<?xml version="1.0" standalone="no"?>
<!DOCTYPE svg PUBLIC "-//W3C//DTD SVG 1.1//EN" "http://www.w3.org/Graphics/SVG/1.1/DTD/svg11.dtd" >
<svg xmlns="http://www.w3.org/2000/svg" xmlns:xlink="http://www.w3.org/1999/xlink" version="1.1">
<metadata>
Created by FontForge 20201107 at Sat Mar 23 03:33:46 2024
 By 
(c) 2023 ILLOUSA SUPPLY CO, a SAJAKLAMO company. All rights reserved.
</metadata>
<defs>
<font id="SalemoRegular" horiz-adv-x="0" >
  <font-face 
    font-family="Salemo"
    font-weight="400"
    font-stretch="normal"
    units-per-em="2048"
    panose-1="0 0 0 0 0 0 0 0 0 0"
    ascent="1638"
    descent="-410"
    x-height="1069"
    cap-height="1524"
    bbox="102 -266.229 2513.2 1878.69"
    underline-thickness="0"
    underline-position="0"
    unicode-range="U+000A-F000"
  />
<missing-glyph horiz-adv-x="1079" 
d="M102 1434h875v-1434h-875v1434zM160 1393l379 -633l381 633h-760zM514 717l-369 614v-1231zM541 674l-379 -631h758zM565 717l371 -621v1239z" />
    <glyph glyph-name=".notdef" horiz-adv-x="1079" 
d="M102 1434h875v-1434h-875v1434zM160 1393l379 -633l381 633h-760zM514 717l-369 614v-1231zM541 674l-379 -631h758zM565 717l371 -621v1239z" />
    <glyph glyph-name=".null" 
 />
    <glyph glyph-name=".null" 
 />
    <glyph glyph-name="nonmarkingreturn" horiz-adv-x="682" 
 />
    <glyph glyph-name="controlLF" unicode="&#xa;" 
 />
    <glyph glyph-name="controlCR" unicode="&#xd;" 
 />
    <glyph glyph-name="space" unicode=" " horiz-adv-x="774" 
 />
    <glyph glyph-name="exclam" unicode="!" horiz-adv-x="1218" 
d="M528 665q-8 99 -13 208.5t-9 250.5t-7 208q-9 109 5 222q6 35 18.5 45.5t47.5 12.5q44 3 84 -7q40 -11 56 -29.5t20 -58.5v-37h1q-11 -121 -13 -137q-9 -56 -28 -296q-6 -79 -19.5 -225t-17.5 -192q-2 -24 -3.5 -68.5t-2.5 -63.5q-5 -63 -40 -68q-16 -2 -30 13t-23 45
q-21 82 -26 177zM784 181q5 -59 -60 -98q-55 -36 -120 -33q-66 -3 -120 37q-47 34 -45.5 86t52.5 80q50 31 108 35t111 -19q69 -30 74 -88z" />
    <glyph glyph-name="quotedbl" unicode="&#x22;" horiz-adv-x="1335" 
d="M973 1560q14 -38 12 -79q1 -29 -6 -57q-71 -218 -204 -315q-3 -2 -9 -7.5t-10 -8t-10 -5t-11.5 -1.5t-10.5 5l-5.5 5.5t-3 5.5t-0.5 5.5t1 6.5t2 6t3.5 6t3.5 5.5t4 5.5t4 5q66 89 32 191q-12 52 -16 78q-12 69 35.5 131.5t116.5 68.5q25 0 44.5 -14.5t27.5 -37.5z
M488 1621q53 17 93.5 -12t41.5 -85q0 -24 -6 -47q-37 -153 -125 -279q-32 -47 -84 -88q-3 -2 -8.5 -7.5t-9.5 -8.5t-9.5 -5.5t-11 -2t-10.5 5.5q-8 6 -8.5 13.5t2.5 12t9.5 12.5t8.5 11q59 97 56 169q-1 39 -16 83q-24 63 -12 125q6 36 30 64t59 39z" />
    <glyph glyph-name="quotedbl" unicode="&#x201d;" horiz-adv-x="1335" 
d="M973 1560q14 -38 12 -79q1 -29 -6 -57q-71 -218 -204 -315q-3 -2 -9 -7.5t-10 -8t-10 -5t-11.5 -1.5t-10.5 5l-5.5 5.5t-3 5.5t-0.5 5.5t1 6.5t2 6t3.5 6t3.5 5.5t4 5.5t4 5q66 89 32 191q-12 52 -16 78q-12 69 35.5 131.5t116.5 68.5q25 0 44.5 -14.5t27.5 -37.5z
M488 1621q53 17 93.5 -12t41.5 -85q0 -24 -6 -47q-37 -153 -125 -279q-32 -47 -84 -88q-3 -2 -8.5 -7.5t-9.5 -8.5t-9.5 -5.5t-11 -2t-10.5 5.5q-8 6 -8.5 13.5t2.5 12t9.5 12.5t8.5 11q59 97 56 169q-1 39 -16 83q-24 63 -12 125q6 36 30 64t59 39z" />
    <glyph glyph-name="quotedbl" unicode="&#x201c;" horiz-adv-x="1335" 
d="M973 1560q14 -38 12 -79q1 -29 -6 -57q-71 -218 -204 -315q-3 -2 -9 -7.5t-10 -8t-10 -5t-11.5 -1.5t-10.5 5l-5.5 5.5t-3 5.5t-0.5 5.5t1 6.5t2 6t3.5 6t3.5 5.5t4 5.5t4 5q66 89 32 191q-12 52 -16 78q-12 69 35.5 131.5t116.5 68.5q25 0 44.5 -14.5t27.5 -37.5z
M488 1621q53 17 93.5 -12t41.5 -85q0 -24 -6 -47q-37 -153 -125 -279q-32 -47 -84 -88q-3 -2 -8.5 -7.5t-9.5 -8.5t-9.5 -5.5t-11 -2t-10.5 5.5q-8 6 -8.5 13.5t2.5 12t9.5 12.5t8.5 11q59 97 56 169q-1 39 -16 83q-24 63 -12 125q6 36 30 64t59 39z" />
    <glyph glyph-name="numbersign" unicode="#" horiz-adv-x="2476" 
d="M1994 1197q39 1 49.5 -12.5t-0.5 -50.5q-16 -52 -28 -60.5t-67 -9.5q-97 -3 -186 4q-48 5 -87 -24.5t-46 -77.5q-19 -111 -56 -226q-11 -31 -16 -72q-3 -29 7.5 -40.5t39.5 -12.5q57 -1 170 1q15 0 54.5 -4t61.5 -2q19 2 26 -10t2 -33q-5 -19 -7 -27t-7 -20t-7 -15.5
t-9 -9t-11 -6t-16.5 -2t-20.5 -1t-28 1.5q-22 1 -88 5t-102 5q-63 2 -90 -18t-40 -81q-10 -46 -44 -250q-8 -54 -21 -104q-11 -35 -48 -26q-39 9 -45.5 17t-1.5 44q11 82 49 249q3 14 8 39t9.5 46t9.5 39q5 11 -1 20t-17 11q-31 10 -56 13q-122 2 -366 4q-68 0 -80 -62
q-8 -40 -24.5 -114t-28 -134.5t-16.5 -115.5q-3 -36 -18 -47.5t-52 -7.5q-3 0 -10 1t-11 1q-24 4 -29.5 10.5t-1.5 30.5q14 92 43 197q14 65 45 152q5 13 5 26q1 32 -16 49.5t-48 14.5q-47 -5 -212 -14q-5 0 -17 -1.5t-18.5 -1.5t-16 0.5t-16.5 4t-12 10.5q-8 9 -8.5 20
t3.5 19.5t9.5 20.5t7.5 19q7 29 48 34q25 6 114 3.5t114 -1.5q57 2 82 22t40 75q4 16 19 70t21.5 79t15 67t12.5 78q5 42 -6 55.5t-50 13.5q-111 4 -233 -10q-24 -3 -48 -3q-31 0 -25 31q9 41 30 79q13 23 40 20q64 2 96 2q29 0 87.5 -2t87.5 -2q37 -1 53.5 12.5t27.5 50.5
q15 49 42 164t48 174q7 31 36 41q34 12 51 0q4 -3 6.5 -6t3.5 -7l1.5 -6t0 -8t-1 -7t-1.5 -8l-2 -7q-11 -45 -32.5 -134t-32.5 -133q-1 -4 -7 -27t-8 -35q-7 -35 5 -51t48 -17q13 -1 36.5 0.5t32.5 1.5h117v-4h170q37 -3 67 19.5t38 58.5q33 115 79 286q5 19 9.5 30.5
t15.5 23.5t28 18q13 4 18 5.5t14.5 0.5t16.5 -8q16 -13 8 -44q-12 -47 -34.5 -141.5t-33.5 -141.5q-8 -28 -4 -52q7 -34 14 -40t40 -6q154 2 233 4zM1530 985q7 38 -12 60.5t-57 23.5q-30 1 -180 1v4h-175q-20 3 -34 -9q-3 -3 -13.5 -14t-14.5 -16t-11 -14.5t-11 -18.5
t-6 -19q-8 -37 -33.5 -137t-35.5 -156q-9 -51 -1.5 -60.5t58.5 -9.5q42 0 165 4.5t190 1.5q43 -1 62 12.5t34 55.5q8 23 20 76.5t23 81.5q23 66 32 133z" />
    <glyph glyph-name="dollar" unicode="$" horiz-adv-x="2209" 
d="M1565 727q49 -15 94 -61.5t71 -105t35 -123t-13 -115.5q-34 -89 -99.5 -157t-153.5 -105q-154 -67 -319 -73q-28 -2 -32.5 -6.5t-4.5 -33.5q0 -17 1 -68t0 -80q-1 -36 -13 -51.5t-38 -13.5q-42 2 -59.5 18t-18.5 52q-2 103 0 154q1 21 -7.5 30t-30.5 12q-212 27 -337 104
q-82 50 -127 132q-36 70 -61 152q-16 48 8 63q25 16 78 4q4 -1 13 -14q3 -5 5 -15q17 -108 87.5 -168t185.5 -95q81 -20 151 -25q19 -2 27 5t8 27q-1 80 -1 239h1v223q0 31 -5.5 37.5t-37.5 9.5q-77 8 -113.5 12.5t-98 17.5t-109.5 33q-167 68 -189 230q-22 169 138 267
q128 79 327 98q65 6 76 18t11 76q0 24 -1 71.5t-1 71.5q0 26 6 33t33 8q61 4 71 -5.5t11 -69.5q1 -21 1 -64t1 -64q1 -49 7 -56q5 -6 44 -8q4 -1 8 -1q203 -15 369 -135q78 -58 124 -144q24 -42 18 -87q-1 -20 -14.5 -36t-33.5 -21q-46 -15 -50 28q-3 23 -14.5 44t-23 33
t-32.5 31q-111 100 -292 127q-3 0 -74 9q-19 2 -26.5 -6.5t-6.5 -27.5q1 -58 1 -175q0 -92 -1 -138q0 -16 6.5 -23.5t23.5 -10.5q25 -4 74 -10.5t88 -13.5t73 -16q71 -19 162 -48zM1013 873q1 49 1 148h-1q0 103 1 154q1 18 -7 25.5t-27 8.5q-67 2 -196 -39
q-85 -28 -120 -64q-65 -67 -45.5 -139.5t108.5 -96.5q1 0 5 -1t5 -1q44 -12 127 -17t115 -11q24 -4 29 1t5 32zM1628 371q29 78 -15 136q-53 76 -141 107q-42 14 -91 21t-109 11.5t-93 9.5q-29 4 -34.5 -2t-5.5 -38v-218h3v-201q0 -41 6.5 -47t48.5 -8q114 -3 218 37
q162 54 213 192z" />
    <glyph glyph-name="percent" unicode="%" horiz-adv-x="2451" 
d="M1112 1152q5 -109 -56.5 -201.5t-166 -129.5t-240.5 7q-74 27 -126.5 86t-69.5 136q-34 134 -3 235q15 50 46.5 94t78 79t113.5 49.5t144 2.5q134 -21 199 -103t81 -218q2 -19 0 -37zM533 1186q-11 -91 67.5 -173t173.5 -83q94 -1 160.5 57.5t70.5 178.5q-2 97 -59.5 161
t-166.5 68q-114 4 -174 -53.5t-72 -155.5zM1631 1167q-45 -58 -136.5 -165t-101.5 -120q-51 -62 -151.5 -185t-150.5 -184q-17 -19 -54 -59q-60 -63 -157 -190t-122 -157q-6 -8 -9 -13q-5 -9 -12.5 -21t-9 -16.5t-8 -11t-7.5 -8.5t-10 -4t-11.5 -2t-16.5 1.5t-21.5 3.5
t-29.5 6q-24 4 -45 7q34 63 84 122q21 26 104.5 132t130.5 162q52 62 149 173t128 147q13 15 70.5 85.5t90.5 105.5q55 57 146 170.5t130 157.5q24 27 63 81t49 67q23 31 59 42.5t72 -1.5q16 -2 23 -17q6 -14 -4 -28q-10 -16 -20 -24q-117 -120 -222 -257zM2015 364
q9 -120 -56 -222q-33 -52 -85.5 -87t-109.5 -49t-114 -13t-105 16q-116 37 -179.5 127t-62.5 219q1 75 28 141.5t73.5 112t108 74.5t131.5 29t144 -24q215 -77 227 -324zM1711 99q95 8 156 81q60 72 52 168q-6 83 -48 155q-24 44 -66.5 72t-91.5 32q-165 17 -254 -98
q-68 -86 -60.5 -184t87.5 -172q58 -53 173 -57q1 0 21 1t31 2z" />
    <glyph glyph-name="ampersand" unicode="&#x26;" horiz-adv-x="2832" 
d="M2381 106q24 -16 21 -33q-1 -7 -5 -10.5t-7 -4.5t-11 -2t-10 -1h-6q-74 -8 -101 -1t-99 55q-14 9 -41.5 28t-49 33t-42.5 26q-26 18 -53 0q-172 -107 -457 -160q-141 -27 -285 -27q-280 0 -539 98q-84 34 -151 97q-144 130 -99 329q25 107 162 188q120 67 248 107
q62 22 101 36q-40 26 -112 72q-145 95 -211 182q-48 63 -41.5 152.5t64.5 143.5q98 89 232 122q326 85 679 -34q138 -45 226 -160q36 -47 29 -133t-52 -127q-109 -99 -172 -132q-39 -20 -110.5 -54t-98.5 -48q-17 -10 -36 -7.5t-32 16.5q-8 8 -25.5 23t-25.5 23
q-16 15 -14 24t22 18q116 50 176 72q74 27 180 112q49 39 45 95t-58 100q-71 60 -163 87q-274 79 -524 20q-52 -12 -101 -33q-65 -29 -99 -92q-27 -51 -13 -107.5t61 -90.5q22 -15 72 -49.5t88 -59t74 -45.5q61 -35 167 -110.5t136 -94.5q58 -38 172.5 -102.5t165.5 -96.5
q104 -66 137 -91q32 -24 98 -57t91 -49q16 -10 30 2q142 112 238 263l-21 6q-131 0 -276 11q-42 3 -57.5 20.5t-10.5 57.5q3 27 15.5 38.5t39.5 11.5q131 -2 196 -6q81 -6 175 -4l16 1q16 0 16 -1q37 -2 45 -13.5t-4 -46.5q-69 -197 -219 -347q-9 -9 -19.5 -18.5t-25 -23
t-24.5 -22.5q69 -42 189 -116q32 -20 94 -60zM1635 179q137 31 253 97q-8 5 -18 12t-14 10q-342 213 -391 245q-136 88 -331 209q-35 24 -73 6q-17 -7 -160 -58q-169 -59 -267 -137q-44 -35 -55.5 -67t1.5 -85q24 -103 140 -170q78 -45 165.5 -65t200.5 -29q276 -24 549 32z
" />
    <glyph glyph-name="quotesingle" unicode="'" horiz-adv-x="978" 
d="M548 1667q41 -6 67 -38t24 -74q0 -37 -15 -72q-65 -147 -153 -291q-24 -39 -55 -64q-18 -15 -30 -21q-8 -6 -18 -5t-16 9q-10 16 3 29q11 14 21 34t13.5 29.5t13.5 39.5l11 33q37 109 -30 190q-11 14 -17 22t-13 23t-5 26t6 29q25 72 99 96q47 16 94 5z" />
    <glyph glyph-name="quotesingle" unicode="&#x2019;" horiz-adv-x="978" 
d="M548 1667q41 -6 67 -38t24 -74q0 -37 -15 -72q-65 -147 -153 -291q-24 -39 -55 -64q-18 -15 -30 -21q-8 -6 -18 -5t-16 9q-10 16 3 29q11 14 21 34t13.5 29.5t13.5 39.5l11 33q37 109 -30 190q-11 14 -17 22t-13 23t-5 26t6 29q25 72 99 96q47 16 94 5z" />
    <glyph glyph-name="quotesingle" unicode="&#x2018;" horiz-adv-x="978" 
d="M548 1667q41 -6 67 -38t24 -74q0 -37 -15 -72q-65 -147 -153 -291q-24 -39 -55 -64q-18 -15 -30 -21q-8 -6 -18 -5t-16 9q-10 16 3 29q11 14 21 34t13.5 29.5t13.5 39.5l11 33q37 109 -30 190q-11 14 -17 22t-13 23t-5 26t6 29q25 72 99 96q47 16 94 5z" />
    <glyph glyph-name="parenleft" unicode="(" horiz-adv-x="1677" 
d="M1239 45q16 -1 23 -6.5t6 -20.5q0 -47 -8 -100q0 -14 -11 -23t-25 -6q-73 5 -140 27q-224 75 -389 241q-153 156 -214 397q-32 140 -34 291q7 430 321 710q157 140 423 184q7 1 18.5 1h18.5q29 3 29 -27q0 -10 2.5 -30.5t2.5 -36t-6 -28.5q-7 -15 -20.5 -20.5t-34 -6.5
t-29.5 -3q-248 -70 -388 -209q-135 -135 -165 -347q-43 -289 45 -566q52 -165 218 -286q92 -65 211 -108q75 -26 146 -27z" />
    <glyph glyph-name="parenright" unicode=")" horiz-adv-x="1679" 
d="M1208 1057q19 -103 24 -209q-6 -174 -41.5 -316.5t-116.5 -264.5q-148 -221 -427 -336q-90 -37 -184 -47q-26 -3 -34 3t-12 31q-7 42 -9 84q0 20 7 29t28 10q273 22 468 242q76 83 108 192q98 353 12 675q-28 103 -123 207q-160 174 -443 234q-37 8 -43 15t-5 42
q0 11 1 29t0.5 23.5t2.5 15.5t2.5 12t7 6.5t10.5 4t17 -1.5t21.5 -2.5t30.5 -5.5q364 -64 555 -355q111 -171 143 -317z" />
    <glyph glyph-name="asterisk" unicode="*" horiz-adv-x="1847" 
d="M1462 1388q1 -40 -9.5 -52t-52.5 -16q-43 -4 -129.5 -13.5t-129.5 -14.5q-20 -2 -31 -4q-16 -4 -19 -13.5t8 -20.5q4 -4 12 -10q18 -13 106.5 -76t135.5 -97q2 -2 15 -8.5t17 -13.5t2 -19q-2 -11 -26 -34.5t-33 -24.5q-7 -1 -33 15q-124 79 -229 171q-5 4 -16 15
q-18 20 -44 8q-13 -5 -14 -18t3 -23q18 -122 47 -223q14 -45 18 -66q4 -28 -3 -38.5t-35 -16.5q-43 -10 -53.5 -3t-17.5 52q-2 15 -45 256q-4 22 -8 31q-6 16 -16.5 23t-21.5 3t-21 -18q-17 -25 -47.5 -73t-39.5 -61q-34 -53 -79 -119q-10 -14 -15.5 -18.5t-12.5 -3
t-22 11.5q-14 9 -25 19q-21 20 -22 31t15 36q55 83 119 176l27 39q25 35 8 59q-2 4 -5.5 6t-7 3t-6.5 1.5t-8 0t-7.5 -0.5t-8 -1.5t-7.5 -1.5q-129 -23 -265 -51q-30 -6 -39 -0.5t-13 34.5v5q0 12 -0.5 27t0 20t2 11.5t9.5 9t19 5.5t33 7q36 6 77.5 11.5t91.5 11.5t78 10
q5 1 17 1.5t19 1.5t15 6t10 14q4 13 -2 21t-22 15.5t-19 9.5q-121 86 -232 148q-1 1 -7.5 4.5t-8.5 4.5t-8 5t-6 6t-4.5 7t-2.5 8.5t1 10.5q9 47 52 71q4 2 7 2.5t6.5 0t6 -1t6.5 -3.5t5.5 -4t5.5 -4.5t5 -4.5q56 -46 203 -153q4 -3 13 -9t13 -9t11 -8.5t12 -9t11.5 -6.5
t13 -3t13.5 4q12 6 13.5 15.5t-4 23.5t-5.5 19q-17 140 -54 275q-12 49 -0.5 60.5t55.5 15.5q33 3 45 -7t16 -44q5 -45 16 -134t16 -134q4 -29 7 -47q0 -1 0.5 -3.5t1 -4t1 -4t1 -3.5l1.5 -3t2.5 -3t3.5 -2t5 -1q14 -1 25 15q46 59 72 99q19 33 62 89.5t60 83.5q25 40 68 10
q13 -9 28 -24q19 -18 20 -28t-15 -30q-31 -42 -94.5 -124t-95.5 -124q-1 -2 -5.5 -7t-6.5 -8t-4 -7.5t-1.5 -9.5t3.5 -10q7 -11 19 -12.5t23 0.5q40 3 114.5 20.5t109.5 21.5q11 1 31 5t26 5q57 10 67.5 1t12.5 -66z" />
    <glyph glyph-name="plus" unicode="+" horiz-adv-x="1861" 
d="M1426 938q24 0 32.5 -8.5t9.5 -32.5q0 -21 -4 -37q-6 -30 -18.5 -40.5t-42.5 -9.5q-55 1 -164 3t-164 3q-67 2 -79.5 -9t-15.5 -74q0 -7 -2 -40.5t-2.5 -44t-1.5 -39t-0.5 -44t1.5 -39t3 -44t6 -40.5q7 -46 -6 -100q-4 -22 -15 -27q-10 -5 -49.5 2.5t-46.5 15.5
q-9 14 -6 30q1 30 0.5 122t4.5 122q4 32 -2 94t-4 91q0 6 -1.5 10t-3 6.5t-6.5 3.5t-7 1h-8.5h-7.5h-196v-5q-159 0 -191 -1q-21 -1 -31 6.5t-10 27.5q0 6 -2 16.5t-2 14.5q-2 32 7.5 43t41.5 12q47 1 185.5 0t185.5 3q41 2 49 10.5t4 48.5q-4 46 -2.5 142.5t-3.5 142.5v21
q0 51 26.5 71t75.5 5q16 -5 25 -19t7 -30q0 -10 -3 -33t-3 -36q-1 -42 -1.5 -90t-1 -106t-0.5 -90q0 -29 4.5 -34t32.5 -5q118 -3 244 8q85 5 159 2z" />
    <glyph glyph-name="comma" unicode="," horiz-adv-x="903" 
d="M467 306q55 -1 80.5 -28.5t24.5 -84.5q-5 -57 -24 -102q-54 -156 -200 -321q-10 -10 -16 -14q-12 -10 -25 -2t-6 23q4 12 14 34q3 6 17 36t20 46q41 93 2 185q-16 39 -21 81q-10 61 32 106q41 44 102 41z" />
    <glyph glyph-name="hyphen" unicode="-" horiz-adv-x="1673" 
d="M1371 895q2 -61 1 -91q-1 -23 -10 -31.5t-32 -9.5q-76 -3 -143 1q-79 7 -238 9q-222 2 -281 8q-151 12 -301 -9q-41 -5 -51 3t-17 49q-8 52 15 77.5t79 30.5q37 3 78.5 4.5t71.5 2t81 -0.5t72 -1.5t82.5 -3t75.5 -3.5q84 3 124.5 2t127 -5t128.5 -5q48 -2 90 7
q27 6 36 -1t11 -33z" />
    <glyph glyph-name="period" unicode="." horiz-adv-x="980" 
d="M585 273q45 -18 63 -45t14 -72q-4 -42 -32.5 -73t-70.5 -37q-7 -1 -22 -2t-23 -2q-100 14 -122 19q-53 13 -71 64q-18 53 17 95q91 103 202 67q5 -2 20.5 -6.5t24.5 -7.5z" />
    <glyph glyph-name="slash" unicode="/" horiz-adv-x="1566" 
d="M1169 1700q52 0 36 -51l-6 -15q-37 -83 -103 -272q-17 -51 -42 -103q-202 -433 -314 -754q-30 -87 -63.5 -175t-85 -221t-67.5 -174q-11 -30 -23 -36.5t-46 -2.5q-15 -1 -31 0q-21 3 -26 13t1 31q24 85 123 355q59 162 109 271q61 134 119 294q18 51 40 108t49.5 125.5
t42.5 107.5q5 14 26 68t29 74t25 66.5t26 74.5t21 67.5t21 74.5q16 65 86 71q27 3 53 3z" />
    <glyph glyph-name="zero" unicode="0" horiz-adv-x="2547" 
d="M1976 1184q88 -116 112 -256q22 -111 13 -229q-13 -112 -35 -204q-35 -147 -153 -245q-136 -120 -310 -176q-174 -57 -352 -57q-41 0 -81 3q-140 6 -273 61q-226 100 -330 255q-43 69 -67 136q-58 140 -58 291l1 10q2 138 21 202q38 138 127 250q116 138 279 211
q76 33 176 51q7 2 22.5 5.5t23.5 4.5q90 21 179 17q200 -2 390 -75q176 -70 315 -255zM1244 192q104 -6 206 16.5t219 66.5q85 30 149 93.5t96 148.5q53 135 47 205v1q10 241 -121 395q-116 136 -249 183q-102 34 -211 42q-79 7 -143 7q-140 2 -269 -37q-112 -36 -204 -114
q-78 -66 -111 -158q-17 -49 -27 -97l-12 -48q-46 -170 9 -337q1 -3 3.5 -11t3.5 -11q6 -26 18 -50q59 -110 218 -200q143 -81 378 -95z" />
    <glyph glyph-name="one" unicode="1" horiz-adv-x="2119" 
d="M1633 175q49 3 63 -11q15 -15 12 -63v-7v-10q-4 -41 -14.5 -51t-50.5 -10h-1q-70 0 -228 4q-272 7 -422 4q-113 -9 -442 -7h-32h-12q-19 0 -28 1q-25 -2 -40 15q-12 19 -6 41q2 14 5 43q4 36 15.5 43t65.5 11l15 1q110 6 229 -2q120 -5 146 -5q55 0 120 13q61 12 79 78
q6 29 5 54v5q0 24 -0.5 72.5t-0.5 72.5q-2 199 2 342q1 25 1 75q0 156 19 233q3 14 1 31v11q-2 62 -15 70q-13 7 -65 -19q-110 -59 -221 -94q-117 -38 -224 -90l-18 -8q-33 -16 -66 -20q-30 -3 -43 8t-18 41q-2 22 -2 34q0 58 19.5 83.5t74.5 37.5q144 33 275 101
q130 66 241 137q44 25 78 65q14 18 36 24.5t44 -0.5q16 -4 25.5 -16.5t11.5 -22t3 -26.5q9 -150 -1 -292l-1 -17q-14 -281 -5 -642q3 -96 -2 -191q-6 -112 102 -129q133 -24 270 -18z" />
    <glyph glyph-name="two" unicode="2" horiz-adv-x="2232" 
d="M1726 192q48 0 58 -9.5t11 -56.5v-4v-47q-1 -37 -12.5 -49t-47.5 -13q-47 -1 -140 -1h-39h-308h-292h-430h-2q-43 0 -54.5 12t-12.5 56v33q2 34 -1 61q-10 109 105 167q20 10 165 80q124 59 204 101q185 92 341 197q56 39 87 62t76 65t75 83q9 13 17 22q26 32 45 73
q40 101 -35 193q-98 122 -239 138q-276 33 -452 -17q-78 -20 -142 -58q-81 -49 -98 -141q-2 -9 -4 -27q-2 -13 -11 -50q-10 -41 -45 -56q-38 -16 -73 5q-24 14 -26 43q-15 107 32 205q42 95 123 167q58 46 128 70q148 60 311 60h3q192 0 291 -29l13 -4q149 -42 213 -96
q198 -164 165 -383q-15 -80 -56 -153q-27 -53 -64 -99.5t-80 -83t-80 -62t-83 -52.5q-58 -33 -212 -115q-49 -25 -88 -46q-60 -31 -134 -65q-98 -42 -189 -96q-4 -2 -10 -6t-10 -6q-27 -14 -44 -29q-18 -18 -14 -31q2 -9 21 -8h8h259h570h79h128z" />
    <glyph glyph-name="three" unicode="3" horiz-adv-x="2234" 
d="M1449 957q129 -16 242 -146q114 -132 91 -334q-18 -143 -103 -265q-30 -45 -80 -81q-202 -141 -477 -141q-21 0 -63 2l-18 1q-79 5 -94 7q-157 18 -292 111q-98 68 -166 166q-59 86 -54 195q1 49 51 53q47 4 65.5 -7t32.5 -56l5 -18q8 -24 11 -36q24 -79 92 -129
q120 -99 346 -125q154 -17 352 49q44 17 84 39q6 3 17.5 9t17.5 9t11 8q111 132 125 245q11 89 -49 160q-100 126 -269 164q-108 25 -292 17h-11q-35 -3 -70 3q-30 5 -49 31q-16 28 -7 57q13 55 64 76q90 41 171 80q21 11 63.5 31.5t63.5 30.5q93 46 188 91q4 2 12 5.5
t12 5.5q45 19 74 38q9 6 9 10q0 5 -12 10q-27 10 -54 8h-4q-390 13 -889 8h-5h-46q-37 2 -55 19.5t-20 54.5q-3 38 14 64.5t49 34.5q17 4 41 4h63q91 0 166 -4q120 -7 357 -1q139 3 252 2q22 0 66 -2q80 -7 144 0q33 6 61 -15q30 -28 28 -70q0 -5 0.5 -11t1.5 -13t1 -11
q2 -36 2 -55q-1 -52 -13.5 -76.5t-57.5 -44.5q-51 -23 -232 -111l-59 -28q-24 -12 -104 -54l-34 -17l-6 -3q-8 -3 -15 -11q21 -7 43 -6q71 -2 138 -16q69 -11 73 -12z" />
    <glyph glyph-name="four" unicode="4" horiz-adv-x="2398" 
d="M1977 571q0 -22 1 -32q3 -44 -11 -60q-18 -19 -88 -19q-59 0 -116 -3q-9 -1 -26 -1t-25 -1q-34 -2 -40.5 -8t-7.5 -40q-2 -61 -2 -183v-74v-23v-33q3 -46 -34 -75q-19 -13 -45 -13q-22 0 -40 7q-34 12 -29 47v30v82l-1 32q-2 146 -4 214q-1 29 -6 34.5t-35 7.5
q-168 12 -481 10q-77 -9 -240 -13q-119 -2 -177 -6q-86 -6 -115 22q-30 28 -30 117q0 12 1 19q1 14 0 29q-16 83 64 125q69 40 121 88q41 34 59 48q31 23 73 53q59 39 97 71q27 23 96 70q63 41 121 93q21 18 51 35q23 13 41 27q13 10 37.5 29t30.5 23q67 48 130 108
q36 32 71 55q32 21 66 50q23 19 54 25q56 16 85 -5q28 -21 31 -78q7 -139 1 -373q-4 -206 -1 -310v-19.5v-24.5v-23q-2 -17 8 -31.5t27 -18.5q62 -26 184 -28q14 0 21 1q8 1 23 1q35 -1 47.5 -13t12.5 -45zM1514 677q-1 32 3 93q5 55 0 129q-3 46 0 91q1 11 1 33q1 37 1 227
v83q-29 -11 -51 -30q-3 -3 -8.5 -8t-8.5 -7q-19 -18 -41 -32q-93 -54 -174 -115q-6 -4 -36 -25.5t-46 -32.5q-207 -141 -414 -289q-36 -25 -106 -85q-13 -11 -49 -41q-20 -13 -15 -35q3 -12 25 -9q1 0 5 0.5t5 0.5q49 2 139 8l129 8q282 17 413 12l21 -1q93 -6 185 3
q14 1 18 5.5t4 16.5z" />
    <glyph glyph-name="five" unicode="5" horiz-adv-x="2283" 
d="M1601 966q181 -108 234 -343q10 -42 1 -87q-4 -14 -9 -41.5t-6 -32.5q-12 -78 -41 -155q-33 -72 -93 -129q-78 -83 -185 -127q-130 -48 -269 -53q-27 -2 -80 -2q-187 -2 -358 61q-139 50 -229 168q-78 98 -108 215q-4 16 -6 33l-1 6q-3 14 5 25q7 10 23 12q33 6 55 8
q47 5 60 -3t29 -51q56 -157 203 -234q84 -48 179 -66q106 -15 210 -2q143 15 323 133q75 45 117 126q33 66 27 135q-21 196 -167 285q-89 50 -197 67q-190 36 -380 -2q-93 -15 -183 -58q-22 -14 -45 -35q-22 -19 -27 -23q-31 -26 -73 -30.5t-78 12.5q-19 7 -30 23.5
t-10 36.5q0 2 -0.5 7t-0.5 7v19q10 404 16 598q1 34 8.5 42t40.5 12l2 1q106 10 245 7q73 -1 164 2q9 1 29 2t29 1q102 7 205 3q76 -4 154 -6q92 -2 165 -7q32 -3 100 -5q26 0 39 -1q33 -1 43 -13q9 -10 6 -44q-3 -32 -12 -62q-8 -29 -32.5 -47t-54.5 -15q-252 -3 -464 6
h-131h-328q-40 0 -49 -9t-16 -51q-12 -86 -1 -175q7 -73 3 -146q-1 -16 2 -16q4 -4 22 3q26 10 54 26q29 16 50 25q240 98 410 84q243 -19 411 -120z" />
    <glyph glyph-name="six" unicode="6" horiz-adv-x="2285" 
d="M1473 1022q105 -26 189 -93t131 -164q79 -152 27 -359q-44 -177 -215 -298q-186 -132 -411 -127h-14q-212 3 -360 82q-184 98 -257 262q-5 13 -25 48q-16 29 -30 60q-102 252 -40 548q22 110 80 215q63 116 177 188q183 115 395 153q74 12 154 10h37h4q158 0 253 -29
q53 -17 112 -43l9 -4q43 -22 46 -71q11 -49 -24 -86q-18 -15 -39 -5l-5 1q-60 15 -186 36q-180 29 -432 -12q-138 -22 -310 -149q-55 -41 -90 -145q-22 -65 -31.5 -98.5t-18.5 -91t-5 -106.5q18 -221 118 -362q69 -104 178 -164t233 -64q180 -9 292 41q93 41 160.5 98.5
t97.5 150.5q63 195 -87 332q-53 48 -95 75q-53 36 -160 47q-204 18 -342 -42q-40 -18 -64.5 -30.5t-55.5 -36.5t-52 -52q-3 -5 -8 -8q-2 -1 -4 -5q-39 -45 -56 -47t-61 33l-2 1q-32 26 -10 59q64 102 168 165q293 172 629 87z" />
    <glyph glyph-name="seven" unicode="7" horiz-adv-x="2148" 
d="M1671 1514q25 3 46 -13q15 -22 11 -44q0 -8 -2 -24.5t-2 -24.5q-6 -50 -2 -95q8 -54 -15 -92t-68 -73q-80 -67 -136 -128q-46 -49 -71 -72q-19 -18 -78 -82q-52 -56 -68 -72q-67 -68 -121 -143q-99 -131 -172 -239q-14 -21 -111 -174q-38 -61 -71 -112q-9 -13 -15 -29
q-11 -29 -30 -49q-2 -2 -6 -8q-7 -15 -22 -18q-8 -1 -26 -3q-27 -4 -59 -4q-41 0 -73 14l-8 3l3 7q36 106 73 150q18 23 33 57q9 20 21 39q73 119 255 362l51 69q105 141 226 268q155 163 243 247q42 39 43 40q3 2 31 30t45 43q-19 1 -56 2.5t-56 2.5q-243 10 -272 11l-65 2
q-231 10 -471 -5q-130 -10 -184 -12q-48 -2 -63 13t-13 63v10q0 16 1 24q4 35 18.5 49t48.5 15l447 9h18q155 2 397 -7q162 -6 252 -7h37h36z" />
    <glyph glyph-name="eight" unicode="8" horiz-adv-x="2340" 
d="M1741 716q83 -56 127.5 -188.5t0.5 -220.5q-43 -86 -116 -144q-166 -133 -405 -169q-23 -4 -59 -11q-48 -11 -96 -15q-11 -1 -32 -1q-103 3 -204 27q-11 2 -32.5 6t-31.5 6q-35 6 -88 21q-173 47 -284 194q-62 80 -69.5 206.5t54.5 224.5q45 65 150 127q34 20 54 31l15 8
q-104 40 -177 127.5t-86 188.5q-7 56 15.5 103t65.5 98q48 55 111 90.5t153 65.5q209 69 368 63q268 -9 470 -100q130 -58 190 -185q50 -91 33 -198q-21 -111 -109 -175q-28 -21 -55 -37q-26 -16 -38 -25q-24 -14 -44 -15q-19 -2 -35 -9q65 -26 119 -69zM1691 344
q22 36 25.5 73.5t-7 71.5t-33.5 78q-40 77 -150 116q-159 60 -328 78q-242 19 -428 -78q-153 -80 -155 -277q-2 -60 43 -105q82 -79 191 -112q107 -28 214 -29q83 -5 89 -6q124 -6 241 19q119 27 251 121q29 20 47 50zM1682 1017q43 51 24 113q-18 68 -67 119.5t-116 72.5
q-183 61 -368 60q-149 -5 -293 -39q-114 -27 -209 -102q-32 -26 -42.5 -74.5t7.5 -87.5q14 -31 41.5 -54.5t53 -35.5t66.5 -27q83 -28 173 -28q6 0 132 -6q110 -8 236 -2q30 2 48 2q22 0 43 -3q67 -6 130 12q96 20 141 80z" />
    <glyph glyph-name="nine" unicode="9" horiz-adv-x="2291" 
d="M1801 1061q58 -174 38 -423q-10 -83 -41 -164l-5 -16q-4 -13 -33 -89q-76 -188 -309 -283q-210 -87 -439 -89q-107 0 -212 21q-60 13 -125 35q-10 3 -29 8.5t-28 8.5q-72 21 -67 90q1 0 1 16l-1 17v28q-2 19 14 31q18 10 36 2q26 -8 43 -16q4 -2 12.5 -5t12.5 -5
q217 -81 502 -47q49 6 107 22.5t93 29.5t100 40q80 34 145 141q37 70 54 135l7 24q27 95 23 190q0 41 -19 81q-53 -82 -114 -159q-24 -30 -36 -46q-40 -52 -102 -83q-204 -107 -487 -81q-89 8 -167.5 46t-163.5 99q-51 42 -83 100q-2 4 -7.5 12t-8.5 12q-103 153 -49 360
q24 113 97 202q110 132 272 182q140 44 292 52q236 15 458 -146q85 -62 134.5 -145t84.5 -188zM1171 648q18 4 28 6q78 15 141.5 41t117.5 78q129 125 171 256q11 37 -7 69q-16 31 -44 54q-23 23 -27 28q-68 85 -175 127q-163 60 -335.5 38t-315.5 -121q-29 -20 -49 -49
q-83 -121 -68 -251q5 -60 35.5 -112t80.5 -87q117 -81 328 -91q64 0 119 14z" />
    <glyph glyph-name="colon" unicode=":" horiz-adv-x="1095" 
d="M694 227q79 -44 19 -119q-31 -37 -73 -49q-61 -20 -123 -19q-88 -6 -142 63q-18 18 -19 43.5t15 44.5q23 37 64 54q127 54 259 -18zM431 1070q-58 26 -63.5 78t45.5 89q104 74 237 31q33 -10 53 -38t19 -62q0 -35 -20 -62.5t-53 -37.5q-53 -19 -114 -17q-55 -2 -104 19z
" />
    <glyph glyph-name="semicolon" unicode=";" horiz-adv-x="1120" 
d="M609 316q17 -2 25 -18q32 -43 37 -98q-2 -72 -36 -132q-83 -144 -203 -264q-20 -22 -44 -29q-14 -5 -24 5q-10 12 -2 25l27 45q83 130 32 257q-17 43 -14 94q0 41 26 73.5t66 41.5q24 5 37 4.5t36.5 -2.5t36.5 -2zM689 1290q34 -25 50.5 -49t9.5 -60q-10 -38 -38.5 -65
t-67.5 -34q-2 0 -110 -12q-36 2 -64 7q-35 7 -60.5 32t-32.5 59q-17 66 49 114q57 42 133.5 44.5t130.5 -36.5z" />
    <glyph glyph-name="less" unicode="&#x3c;" horiz-adv-x="1755" 
d="M735 776q-19 -10 -71 -30.5t-78 -36.5l-44 -27q373 -183 486 -233q54 -24 152 -70t137 -63q14 -3 21 -18q6 -14 -2 -28q-2 -3 -3.5 -10t-3.5 -10q-20 -52 -39.5 -59.5t-69.5 17.5q-31 16 -151.5 80.5t-186.5 97.5q-256 128 -430 206q-60 27 -56 89q1 16 0 32q-3 38 32 55
q166 99 345 174q78 33 217 106t171 89q80 40 120 58q23 10 31 6.5t18 -24.5q30 -66 21 -89t-75 -55q-52 -25 -245.5 -114.5t-295.5 -142.5z" />
    <glyph glyph-name="equal" unicode="=" horiz-adv-x="1789" 
d="M386 991q-32 -2 -39 3t-14 35q0 2 -2.5 11.5t-3.5 14.5q-9 59 51 60q283 7 583 -2q57 -2 170 4q52 3 146.5 -1.5t133.5 -4.5q22 0 31 -10t7 -33q-3 -58 -16 -72t-66 -11q-248 15 -486 5q-36 1 -130.5 5.5t-129.5 5t-129 -2.5q-18 -1 -53 -3.5t-53 -3.5zM1458 715
q17 -36 -4 -71q-3 -5 -7.5 -9t-8 -5.5t-10.5 -2.5t-10.5 -1h-11.5h-10q-28 0 -127 -2.5t-153 -0.5h-212q-27 -1 -160.5 -8t-160.5 -7t-161 1h-16q-6 0 -21.5 -4.5t-25.5 -2.5t-15 15q-17 49 0 98q1 4 3.5 6.5t5 4t7 2.5t7 1t7.5 0.5t7 0.5q90 10 312 1q30 -3 175 -0.5
t174 2.5q42 0 239 5q54 1 121 8q17 3 33 -6t23 -25z" />
    <glyph glyph-name="greater" unicode="&#x3e;" horiz-adv-x="1730" 
d="M1298 758q43 -22 37 -61q-1 -7 -1 -21q2 -31 -15.5 -57.5t-46.5 -36.5q-102 -45 -351 -162q-227 -106 -429 -231q-21 -13 -30 -11t-19 23q-4 7 -11 20.5t-12.5 24.5t-9.5 21q-11 26 -7.5 36t28.5 22q50 24 267 129t335 158q65 29 118 62q-26 20 -58.5 40t-55 32.5t-62 33
t-57.5 29.5q-236 129 -476 231q-27 11 -31 19.5t3 36.5q9 35 17 55q11 30 22.5 34.5t40.5 -9.5q292 -146 336 -169q78 -41 234 -124.5t234 -124.5z" />
    <glyph glyph-name="question" unicode="?" horiz-adv-x="2168" 
d="M1631 1491q72 -43 102.5 -123t12.5 -152q-17 -68 -98 -134q-110 -91 -239 -87q-42 0 -84 -9q-75 -15 -219.5 -28.5t-211.5 -25.5q-61 -9 -102 -53q-31 -31 -26 -77q5 -45 43 -69q62 -40 137 -57q91 -23 139 -99.5t42 -160.5q-2 -29 -10 -41t-27 -14q-29 -4 -53.5 8
t-28.5 34q-17 93 -128 144q-18 8 -53.5 23t-53.5 23q-88 40 -122 114t-13 159q13 44 40 74q93 114 282 141q77 11 148 11q185 -3 357 43q59 15 110 52q59 43 53.5 107t-71.5 94q-172 81 -363 89q-19 0 -122 8q-108 6 -216 -20q-206 -43 -336 -207q-13 -22 -37 -25
q-4 0 -12.5 -1t-13.5 -1t-12 1t-12.5 3.5t-10.5 7.5q-5 6 -7 11.5t-1 12.5t2.5 11.5t5.5 12.5t5 11q25 64 81 109q72 63 154 113q120 72 314 86q39 3 117 7q233 17 445 -77q52 -24 93 -49zM1151 285q84 -20 99 -91q14 -68 -52 -119q-55 -43 -142 -43t-142 42q-44 34 -48 74
t33 81q30 34 72.5 51t87.5 12q49 3 92 -7z" />
    <glyph glyph-name="at" unicode="@" horiz-adv-x="2840" 
d="M2388 907q27 -228 -24 -378q-78 -230 -262 -327q-99 -50 -210 -44q-28 1 -36.5 10.5t-10.5 38.5q0 7 0.5 22.5t0 29t-4.5 27.5q-43 -34 -63 -48q-122 -85 -270 -102q-192 -24 -317 0q-131 22 -213 129q-104 134 -101 267q1 53 16 115q14 61 66 101q118 93 266 110
q211 20 478 -52q24 -7 49.5 -16.5t58.5 -24t49 -20.5q18 85 -21.5 156t-119.5 96q-129 38 -266 43q-246 12 -476 -66q-30 -11 -41.5 -3.5t-11.5 37.5q1 61 12 78t65 33q157 47 392 59q164 9 268 -18q122 -32 215 -112q24 -20 42 -53t23.5 -50.5t18.5 -64.5q12 -51 10 -105
q-1 -79 0 -223.5t1 -190.5q-2 -45 5 -80q69 -3 114 47q224 218 187 508q-21 172 -118 320q-57 87 -146 144q-187 121 -444 145q-240 22 -410 -34q-336 -111 -485 -356q-172 -281 -88 -586q30 -113 93 -225q186 -328 580 -351q225 -12 381 21q11 2 31 4q37 6 51.5 0.5
t16.5 -27.5q5 -44 -5 -62.5t-44 -28.5q-28 -8 -57 -9q-35 -2 -99 -7.5t-99.5 -8t-99.5 -4t-99 4.5q-263 29 -438 148q-146 100 -253 315q-99 205 -101 436q-2 226 112 425q70 135 178 244q125 121 294 173q284 87 577 58q158 -13 310 -68q44 -16 85 -42q125 -77 227 -190
q136 -147 161 -368zM1850 562q2 39 -3 47.5t-39 22.5q-218 93 -455 88q-103 0 -204 -32q-61 -21 -99 -70.5t-31 -103.5q18 -136 117 -205q82 -56 183 -50q56 -6 108 4q243 25 370 181q51 63 53 118z" />
    <glyph glyph-name="A" unicode="A" horiz-adv-x="2275" 
d="M1968 84q10 -51 -21 -74t-85 -20h-15.5t-17.5 0.5t-14.5 2.5t-14.5 8t-9 16q-42 100 -129 265q-11 21 -35 63q-34 61 -120 71q-87 10 -290 12q-138 1 -412 -7q-73 -2 -110 -29t-61 -96q-9 -25 -34 -67t-34 -65q-5 -12 -12.5 -46t-16.5 -51q-15 -30 -34.5 -41t-50.5 -4
q-31 6 -77 8q-50 3 -65 33t9 72q56 108 146 308q57 115 90 228q12 41 35 80q52 102 88 197q10 25 30 83t38 100.5t42 78.5q13 19 23 44.5t15 44t12.5 51.5t11.5 47q16 48 46 82q28 37 69 46t82 -1q63 -10 135 -5q146 6 182 -79q69 -133 116 -270q23 -76 66 -155
q14 -24 32 -81t35 -84q10 -15 19 -32.5t15 -30t14.5 -35.5t11.5 -32t12 -36.5t11 -33.5q2 -11 12 -26q22 -29 54 -89.5t49 -84.5q12 -22 20 -54q49 -134 91 -196q34 -56 46 -116zM1284 623q49 7 101 1q21 -1 40 -0.5t36 2.5t29.5 8.5t19.5 17.5t7 30t-9 45q-4 13 -16 29
q-13 12 -23.5 29.5t-14.5 27.5t-14 34q-24 58 -52 104q-33 58 -54 118q-16 47 -60.5 129.5t-50.5 95.5q-13 28 -33.5 46t-47 22t-52.5 -18q-29 -21 -41 -53q-26 -75 -73 -135q-44 -62 -63 -140q-8 -31 -36.5 -81t-35.5 -65q-46 -102 -81 -212q-8 -28 -1 -37t37 -10
q32 1 100 7.5t99.5 7t99.5 -4.5q99 -9 189 2z" />
    <glyph glyph-name="A" unicode="&#xc5;" horiz-adv-x="2275" 
d="M1968 84q10 -51 -21 -74t-85 -20h-15.5t-17.5 0.5t-14.5 2.5t-14.5 8t-9 16q-42 100 -129 265q-11 21 -35 63q-34 61 -120 71q-87 10 -290 12q-138 1 -412 -7q-73 -2 -110 -29t-61 -96q-9 -25 -34 -67t-34 -65q-5 -12 -12.5 -46t-16.5 -51q-15 -30 -34.5 -41t-50.5 -4
q-31 6 -77 8q-50 3 -65 33t9 72q56 108 146 308q57 115 90 228q12 41 35 80q52 102 88 197q10 25 30 83t38 100.5t42 78.5q13 19 23 44.5t15 44t12.5 51.5t11.5 47q16 48 46 82q28 37 69 46t82 -1q63 -10 135 -5q146 6 182 -79q69 -133 116 -270q23 -76 66 -155
q14 -24 32 -81t35 -84q10 -15 19 -32.5t15 -30t14.5 -35.5t11.5 -32t12 -36.5t11 -33.5q2 -11 12 -26q22 -29 54 -89.5t49 -84.5q12 -22 20 -54q49 -134 91 -196q34 -56 46 -116zM1284 623q49 7 101 1q21 -1 40 -0.5t36 2.5t29.5 8.5t19.5 17.5t7 30t-9 45q-4 13 -16 29
q-13 12 -23.5 29.5t-14.5 27.5t-14 34q-24 58 -52 104q-33 58 -54 118q-16 47 -60.5 129.5t-50.5 95.5q-13 28 -33.5 46t-47 22t-52.5 -18q-29 -21 -41 -53q-26 -75 -73 -135q-44 -62 -63 -140q-8 -31 -36.5 -81t-35.5 -65q-46 -102 -81 -212q-8 -28 -1 -37t37 -10
q32 1 100 7.5t99.5 7t99.5 -4.5q99 -9 189 2z" />
    <glyph glyph-name="A" unicode="&#xc4;" horiz-adv-x="2275" 
d="M1968 84q10 -51 -21 -74t-85 -20h-15.5t-17.5 0.5t-14.5 2.5t-14.5 8t-9 16q-42 100 -129 265q-11 21 -35 63q-34 61 -120 71q-87 10 -290 12q-138 1 -412 -7q-73 -2 -110 -29t-61 -96q-9 -25 -34 -67t-34 -65q-5 -12 -12.5 -46t-16.5 -51q-15 -30 -34.5 -41t-50.5 -4
q-31 6 -77 8q-50 3 -65 33t9 72q56 108 146 308q57 115 90 228q12 41 35 80q52 102 88 197q10 25 30 83t38 100.5t42 78.5q13 19 23 44.5t15 44t12.5 51.5t11.5 47q16 48 46 82q28 37 69 46t82 -1q63 -10 135 -5q146 6 182 -79q69 -133 116 -270q23 -76 66 -155
q14 -24 32 -81t35 -84q10 -15 19 -32.5t15 -30t14.5 -35.5t11.5 -32t12 -36.5t11 -33.5q2 -11 12 -26q22 -29 54 -89.5t49 -84.5q12 -22 20 -54q49 -134 91 -196q34 -56 46 -116zM1284 623q49 7 101 1q21 -1 40 -0.5t36 2.5t29.5 8.5t19.5 17.5t7 30t-9 45q-4 13 -16 29
q-13 12 -23.5 29.5t-14.5 27.5t-14 34q-24 58 -52 104q-33 58 -54 118q-16 47 -60.5 129.5t-50.5 95.5q-13 28 -33.5 46t-47 22t-52.5 -18q-29 -21 -41 -53q-26 -75 -73 -135q-44 -62 -63 -140q-8 -31 -36.5 -81t-35.5 -65q-46 -102 -81 -212q-8 -28 -1 -37t37 -10
q32 1 100 7.5t99.5 7t99.5 -4.5q99 -9 189 2z" />
    <glyph glyph-name="A" unicode="&#xc3;" horiz-adv-x="2275" 
d="M1968 84q10 -51 -21 -74t-85 -20h-15.5t-17.5 0.5t-14.5 2.5t-14.5 8t-9 16q-42 100 -129 265q-11 21 -35 63q-34 61 -120 71q-87 10 -290 12q-138 1 -412 -7q-73 -2 -110 -29t-61 -96q-9 -25 -34 -67t-34 -65q-5 -12 -12.5 -46t-16.5 -51q-15 -30 -34.5 -41t-50.5 -4
q-31 6 -77 8q-50 3 -65 33t9 72q56 108 146 308q57 115 90 228q12 41 35 80q52 102 88 197q10 25 30 83t38 100.5t42 78.5q13 19 23 44.5t15 44t12.5 51.5t11.5 47q16 48 46 82q28 37 69 46t82 -1q63 -10 135 -5q146 6 182 -79q69 -133 116 -270q23 -76 66 -155
q14 -24 32 -81t35 -84q10 -15 19 -32.5t15 -30t14.5 -35.5t11.5 -32t12 -36.5t11 -33.5q2 -11 12 -26q22 -29 54 -89.5t49 -84.5q12 -22 20 -54q49 -134 91 -196q34 -56 46 -116zM1284 623q49 7 101 1q21 -1 40 -0.5t36 2.5t29.5 8.5t19.5 17.5t7 30t-9 45q-4 13 -16 29
q-13 12 -23.5 29.5t-14.5 27.5t-14 34q-24 58 -52 104q-33 58 -54 118q-16 47 -60.5 129.5t-50.5 95.5q-13 28 -33.5 46t-47 22t-52.5 -18q-29 -21 -41 -53q-26 -75 -73 -135q-44 -62 -63 -140q-8 -31 -36.5 -81t-35.5 -65q-46 -102 -81 -212q-8 -28 -1 -37t37 -10
q32 1 100 7.5t99.5 7t99.5 -4.5q99 -9 189 2z" />
    <glyph glyph-name="A" unicode="&#xc2;" horiz-adv-x="2275" 
d="M1968 84q10 -51 -21 -74t-85 -20h-15.5t-17.5 0.5t-14.5 2.5t-14.5 8t-9 16q-42 100 -129 265q-11 21 -35 63q-34 61 -120 71q-87 10 -290 12q-138 1 -412 -7q-73 -2 -110 -29t-61 -96q-9 -25 -34 -67t-34 -65q-5 -12 -12.5 -46t-16.5 -51q-15 -30 -34.5 -41t-50.5 -4
q-31 6 -77 8q-50 3 -65 33t9 72q56 108 146 308q57 115 90 228q12 41 35 80q52 102 88 197q10 25 30 83t38 100.5t42 78.5q13 19 23 44.5t15 44t12.5 51.5t11.5 47q16 48 46 82q28 37 69 46t82 -1q63 -10 135 -5q146 6 182 -79q69 -133 116 -270q23 -76 66 -155
q14 -24 32 -81t35 -84q10 -15 19 -32.5t15 -30t14.5 -35.5t11.5 -32t12 -36.5t11 -33.5q2 -11 12 -26q22 -29 54 -89.5t49 -84.5q12 -22 20 -54q49 -134 91 -196q34 -56 46 -116zM1284 623q49 7 101 1q21 -1 40 -0.5t36 2.5t29.5 8.5t19.5 17.5t7 30t-9 45q-4 13 -16 29
q-13 12 -23.5 29.5t-14.5 27.5t-14 34q-24 58 -52 104q-33 58 -54 118q-16 47 -60.5 129.5t-50.5 95.5q-13 28 -33.5 46t-47 22t-52.5 -18q-29 -21 -41 -53q-26 -75 -73 -135q-44 -62 -63 -140q-8 -31 -36.5 -81t-35.5 -65q-46 -102 -81 -212q-8 -28 -1 -37t37 -10
q32 1 100 7.5t99.5 7t99.5 -4.5q99 -9 189 2z" />
    <glyph glyph-name="A" unicode="&#xc1;" horiz-adv-x="2275" 
d="M1968 84q10 -51 -21 -74t-85 -20h-15.5t-17.5 0.5t-14.5 2.5t-14.5 8t-9 16q-42 100 -129 265q-11 21 -35 63q-34 61 -120 71q-87 10 -290 12q-138 1 -412 -7q-73 -2 -110 -29t-61 -96q-9 -25 -34 -67t-34 -65q-5 -12 -12.5 -46t-16.5 -51q-15 -30 -34.5 -41t-50.5 -4
q-31 6 -77 8q-50 3 -65 33t9 72q56 108 146 308q57 115 90 228q12 41 35 80q52 102 88 197q10 25 30 83t38 100.5t42 78.5q13 19 23 44.5t15 44t12.5 51.5t11.5 47q16 48 46 82q28 37 69 46t82 -1q63 -10 135 -5q146 6 182 -79q69 -133 116 -270q23 -76 66 -155
q14 -24 32 -81t35 -84q10 -15 19 -32.5t15 -30t14.5 -35.5t11.5 -32t12 -36.5t11 -33.5q2 -11 12 -26q22 -29 54 -89.5t49 -84.5q12 -22 20 -54q49 -134 91 -196q34 -56 46 -116zM1284 623q49 7 101 1q21 -1 40 -0.5t36 2.5t29.5 8.5t19.5 17.5t7 30t-9 45q-4 13 -16 29
q-13 12 -23.5 29.5t-14.5 27.5t-14 34q-24 58 -52 104q-33 58 -54 118q-16 47 -60.5 129.5t-50.5 95.5q-13 28 -33.5 46t-47 22t-52.5 -18q-29 -21 -41 -53q-26 -75 -73 -135q-44 -62 -63 -140q-8 -31 -36.5 -81t-35.5 -65q-46 -102 -81 -212q-8 -28 -1 -37t37 -10
q32 1 100 7.5t99.5 7t99.5 -4.5q99 -9 189 2z" />
    <glyph glyph-name="A" unicode="&#xc0;" horiz-adv-x="2275" 
d="M1968 84q10 -51 -21 -74t-85 -20h-15.5t-17.5 0.5t-14.5 2.5t-14.5 8t-9 16q-42 100 -129 265q-11 21 -35 63q-34 61 -120 71q-87 10 -290 12q-138 1 -412 -7q-73 -2 -110 -29t-61 -96q-9 -25 -34 -67t-34 -65q-5 -12 -12.5 -46t-16.5 -51q-15 -30 -34.5 -41t-50.5 -4
q-31 6 -77 8q-50 3 -65 33t9 72q56 108 146 308q57 115 90 228q12 41 35 80q52 102 88 197q10 25 30 83t38 100.5t42 78.5q13 19 23 44.5t15 44t12.5 51.5t11.5 47q16 48 46 82q28 37 69 46t82 -1q63 -10 135 -5q146 6 182 -79q69 -133 116 -270q23 -76 66 -155
q14 -24 32 -81t35 -84q10 -15 19 -32.5t15 -30t14.5 -35.5t11.5 -32t12 -36.5t11 -33.5q2 -11 12 -26q22 -29 54 -89.5t49 -84.5q12 -22 20 -54q49 -134 91 -196q34 -56 46 -116zM1284 623q49 7 101 1q21 -1 40 -0.5t36 2.5t29.5 8.5t19.5 17.5t7 30t-9 45q-4 13 -16 29
q-13 12 -23.5 29.5t-14.5 27.5t-14 34q-24 58 -52 104q-33 58 -54 118q-16 47 -60.5 129.5t-50.5 95.5q-13 28 -33.5 46t-47 22t-52.5 -18q-29 -21 -41 -53q-26 -75 -73 -135q-44 -62 -63 -140q-8 -31 -36.5 -81t-35.5 -65q-46 -102 -81 -212q-8 -28 -1 -37t37 -10
q32 1 100 7.5t99.5 7t99.5 -4.5q99 -9 189 2z" />
    <glyph glyph-name="B" unicode="B" horiz-adv-x="2242" 
d="M1243 19q-76 -5 -140 2q-78 5 -230 -2t-225 -4q-20 2 -42 1t-44.5 1t-41.5 7.5t-33.5 21t-20.5 39.5q-19 78 -12 157q4 98 -5 204l-2 32t-1 34v31t2 34t2.5 31t3 33.5t3 31t3.5 34t4 31.5q8 68 -1 143q-8 80 9 158q11 62 0 124q-26 117 6 231q6 26 8 64q5 40 38 50
q27 9 56 12q164 7 300 -7q114 -6 222 7q10 1 38.5 3.5t42 3t36.5 1.5t42.5 -0.5t38.5 -4.5q24 -4 79 -11.5t86 -13t75 -18.5t79 -32q33 -16 58 -43q4 -5 15.5 -18.5t20.5 -22t20 -13.5q9 -7 13 -15q79 -130 68 -279q-1 -33 -30 -83.5t-34 -63.5q-7 -16 -31.5 -36t-32.5 -31
q-22 -31 -21.5 -44t26.5 -39q17 -20 37 -37q67 -53 81 -138q13 -80 20 -182q6 -64 -15.5 -124t-66.5 -106q-67 -75 -165 -98q-223 -44 -339 -56zM1302 721q-42 4 -89.5 5t-113 0.5t-104.5 0.5q-27 0 -84.5 0.5t-110 0t-99.5 -3.5q-35 -2 -49 -14t-20 -45q-18 -110 -6 -332
q3 -21 6.5 -33.5t14 -27t26.5 -19.5q62 -27 131 -25q70 5 130 -5q103 -18 208 2q105 21 211 24q110 6 222 43q98 31 92 138q-3 59 -13 99t-41 75q-59 66 -111 82q-100 29 -200 35zM712 890q130 -4 374 -10q93 8 313 6q70 -1 104.5 9t56 31.5t60.5 81.5q37 56 34.5 123
t-44.5 119q-33 36 -76 51q-104 45 -222 43q-315 5 -522 -10q-46 -2 -90 -15q-46 -14 -55 -57q-7 -25 -10 -53q-7 -87 -12 -174q-3 -43 6 -78q11 -36 29 -51t54 -16z" />
    <glyph glyph-name="C" unicode="C" horiz-adv-x="2371" 
d="M1266 25q-45 1 -90 -3q-138 -2 -181 5q-102 17 -229 99q-69 48 -145 89q-47 23 -79 70q-13 18 -26.5 39t-22 36t-22.5 43t-18.5 37.5t-20 44t-18.5 40.5q-13 29 -11 67q2 54 -15 107q-24 81 -3 199q2 9 9.5 45.5t9.5 56.5q3 48 27 88q7 11 52 90.5t80 113.5
q107 110 252 149q24 5 41 13q107 54 223 61q178 15 256 2q124 -24 248 -65q88 -26 161 -73q106 -72 144 -154q7 -15 17 -29.5t23 -31t20 -27.5q21 -33 36 -75q16 -45 -2 -70.5t-64 -27.5q-16 -1 -27.5 -1t-22.5 1t-18 2t-14.5 5t-11.5 7t-9 11.5t-7.5 14t-7 19t-7 23
l-7.5 28.5q-40 148 -164 189q-23 8 -103.5 30t-122.5 40q-42 15 -91 13q-42 2 -120 3t-103 2t-49.5 -5t-58 -18t-46.5 -16q-76 -21 -140 -63q-58 -39 -95.5 -76.5t-55.5 -89.5q-7 -18 -32 -63t-31 -74q-14 -51 -19 -111q1 -54 -6 -108q-4 -20 0 -34q3 -13 8 -36.5t8.5 -39
t10 -35.5t14.5 -35q93 -191 253 -254q147 -56 308 -48q77 1 163 19q75 16 159 11q40 -3 74 17q18 11 54.5 29.5t64.5 35.5t50 38q22 18 39 42q7 12 41.5 58.5t43.5 77.5q7 12 17 18q22 16 65.5 11t60.5 -27q30 -30 13 -69q-34 -84 -88 -172q-76 -117 -252 -212
q-164 -89 -390 -97z" />
    <glyph glyph-name="C" unicode="&#xc7;" horiz-adv-x="2371" 
d="M1266 25q-45 1 -90 -3q-138 -2 -181 5q-102 17 -229 99q-69 48 -145 89q-47 23 -79 70q-13 18 -26.5 39t-22 36t-22.5 43t-18.5 37.5t-20 44t-18.5 40.5q-13 29 -11 67q2 54 -15 107q-24 81 -3 199q2 9 9.5 45.5t9.5 56.5q3 48 27 88q7 11 52 90.5t80 113.5
q107 110 252 149q24 5 41 13q107 54 223 61q178 15 256 2q124 -24 248 -65q88 -26 161 -73q106 -72 144 -154q7 -15 17 -29.5t23 -31t20 -27.5q21 -33 36 -75q16 -45 -2 -70.5t-64 -27.5q-16 -1 -27.5 -1t-22.5 1t-18 2t-14.5 5t-11.5 7t-9 11.5t-7.5 14t-7 19t-7 23
l-7.5 28.5q-40 148 -164 189q-23 8 -103.5 30t-122.5 40q-42 15 -91 13q-42 2 -120 3t-103 2t-49.5 -5t-58 -18t-46.5 -16q-76 -21 -140 -63q-58 -39 -95.5 -76.5t-55.5 -89.5q-7 -18 -32 -63t-31 -74q-14 -51 -19 -111q1 -54 -6 -108q-4 -20 0 -34q3 -13 8 -36.5t8.5 -39
t10 -35.5t14.5 -35q93 -191 253 -254q147 -56 308 -48q77 1 163 19q75 16 159 11q40 -3 74 17q18 11 54.5 29.5t64.5 35.5t50 38q22 18 39 42q7 12 41.5 58.5t43.5 77.5q7 12 17 18q22 16 65.5 11t60.5 -27q30 -30 13 -69q-34 -84 -88 -172q-76 -117 -252 -212
q-164 -89 -390 -97z" />
    <glyph glyph-name="D" unicode="D" horiz-adv-x="2322" 
d="M1138 45q-91 -16 -192 -11q-59 -4 -121.5 -4.5t-153.5 1.5t-122 2q-30 -2 -53 5q-14 4 -23 17t-9 28q-2 32 -4 172.5t-12 215.5q-4 27 -4 60t1 51.5t5 62t5 53.5q14 133 -1 261q-3 17 -1 39q9 56 9 157.5t5 157.5q2 18 -1 55.5t0 57.5q3 35 21.5 58t45 31.5t57.5 12
t60 -1.5q54 -7 188.5 -2t187.5 -10q76 -14 150 -8q100 3 194 -32q54 -22 108 -29q37 -8 66 -28q10 -5 32.5 -17t35 -19t30.5 -18t32 -23t27 -25q24 -21 43 -46q15 -24 49 -63t40 -47q49 -60 85 -136q11 -25 15.5 -72.5t8.5 -62.5q29 -123 -4 -244q-3 -13 -12 -68t-22 -84
q-45 -101 -123 -179q-92 -90 -205 -144q-113 -49 -200 -86q-58 -24 -113 -24q-61 0 -125 -14zM1068 1327q-34 11 -73.5 15.5t-73 3.5t-73.5 -1v3q-110 0 -131 1q-46 2 -64 -14.5t-17 -63.5q1 -60 -7 -201.5t-3 -217.5q-1 -14 -6.5 -57t-5.5 -57.5t1 -57.5q3 -43 2 -180
t9 -180q10 -66 23 -79.5t75 -17.5q2 0 7 -0.5t8 -0.5q116 2 232 -12q29 -3 63 2q45 5 132 22t130 22q79 8 143 43q19 11 56.5 28t52.5 25q50 26 79.5 45t63.5 53t53 75q17 38 39 79q33 57 35.5 122.5t-24.5 124.5q-10 23 -34 90t-43 101q-74 136 -196 158q-36 3 -68 24
q-32 25 -69.5 37t-92.5 23q-24 4 -70.5 11.5t-83.5 14.5t-69 17z" />
    <glyph glyph-name="E" unicode="E" horiz-adv-x="2056" 
d="M674 250q18 0 118.5 -3t118.5 1q61 3 121 0q82 -3 165 6q48 5 174.5 2.5t173.5 9.5q27 5 48 5q30 0 46.5 -12.5t24.5 -41.5q8 -32 5 -69q-3 -47 -22 -66t-65 -24q-64 -7 -140 -2q-42 4 -97 -3q-103 -13 -207 0q-110 10 -233 2q-58 -2 -348 -7q-21 0 -38 4q-23 2 -38.5 20
t-15.5 41q-3 38 -2 69q4 114 -11 233q-15 143 -4 292q3 44 -1.5 123t-4.5 110q0 17 8 153q1 23 4 203q-2 60 18 117q4 9 4.5 20t-0.5 24t-1 20q2 25 16 37.5t38 8.5q55 -11 115.5 -15t139.5 -4.5t116 -2.5q28 -1 59 0.5t70.5 5.5t59.5 5q71 4 213 0q50 -1 256 6q29 1 44.5 0
t35.5 -12t26 -34q18 -47 6 -97q-10 -33 -26.5 -47t-46.5 -11q-48 5 -159.5 2t-159.5 5q-29 4 -84 -1t-66 -5q-69 -1 -195 -5t-167 -5q-72 0 -130 -34q-15 -7 -22.5 -21.5t-4.5 -31.5q10 -60 -7 -122q-2 -14 1 -25q11 -50 8 -98q-2 -29 9.5 -42.5t40.5 -15.5q15 -1 58.5 -5.5
t65 -6t56.5 -3.5t65 -1t59 4q30 3 87 -0.5t77 -3.5q33 1 93 4.5t86 4.5q80 5 150 -5q38 -3 72 4q52 6 76.5 -17.5t18.5 -76.5q-5 -50 -26.5 -76.5t-77.5 -25.5q-38 1 -69 0t-69.5 1t-69.5 7q-23 4 -39 1q-81 -10 -215 -8.5t-215 -1.5q-23 -2 -89.5 -1t-89.5 1q-29 0 -36 -7
t-13 -37q-20 -105 2 -206q3 -15 3.5 -32t-1 -39t-1.5 -33q0 -6 -1 -25.5t0 -29.5q2 -34 12 -44t44 -10z" />
    <glyph glyph-name="E" unicode="&#xcb;" horiz-adv-x="2056" 
d="M674 250q18 0 118.5 -3t118.5 1q61 3 121 0q82 -3 165 6q48 5 174.5 2.5t173.5 9.5q27 5 48 5q30 0 46.5 -12.5t24.5 -41.5q8 -32 5 -69q-3 -47 -22 -66t-65 -24q-64 -7 -140 -2q-42 4 -97 -3q-103 -13 -207 0q-110 10 -233 2q-58 -2 -348 -7q-21 0 -38 4q-23 2 -38.5 20
t-15.5 41q-3 38 -2 69q4 114 -11 233q-15 143 -4 292q3 44 -1.5 123t-4.5 110q0 17 8 153q1 23 4 203q-2 60 18 117q4 9 4.5 20t-0.5 24t-1 20q2 25 16 37.5t38 8.5q55 -11 115.5 -15t139.5 -4.5t116 -2.5q28 -1 59 0.5t70.5 5.5t59.5 5q71 4 213 0q50 -1 256 6q29 1 44.5 0
t35.5 -12t26 -34q18 -47 6 -97q-10 -33 -26.5 -47t-46.5 -11q-48 5 -159.5 2t-159.5 5q-29 4 -84 -1t-66 -5q-69 -1 -195 -5t-167 -5q-72 0 -130 -34q-15 -7 -22.5 -21.5t-4.5 -31.5q10 -60 -7 -122q-2 -14 1 -25q11 -50 8 -98q-2 -29 9.5 -42.5t40.5 -15.5q15 -1 58.5 -5.5
t65 -6t56.5 -3.5t65 -1t59 4q30 3 87 -0.5t77 -3.5q33 1 93 4.5t86 4.5q80 5 150 -5q38 -3 72 4q52 6 76.5 -17.5t18.5 -76.5q-5 -50 -26.5 -76.5t-77.5 -25.5q-38 1 -69 0t-69.5 1t-69.5 7q-23 4 -39 1q-81 -10 -215 -8.5t-215 -1.5q-23 -2 -89.5 -1t-89.5 1q-29 0 -36 -7
t-13 -37q-20 -105 2 -206q3 -15 3.5 -32t-1 -39t-1.5 -33q0 -6 -1 -25.5t0 -29.5q2 -34 12 -44t44 -10z" />
    <glyph glyph-name="E" unicode="&#xca;" horiz-adv-x="2056" 
d="M674 250q18 0 118.5 -3t118.5 1q61 3 121 0q82 -3 165 6q48 5 174.5 2.5t173.5 9.5q27 5 48 5q30 0 46.5 -12.5t24.5 -41.5q8 -32 5 -69q-3 -47 -22 -66t-65 -24q-64 -7 -140 -2q-42 4 -97 -3q-103 -13 -207 0q-110 10 -233 2q-58 -2 -348 -7q-21 0 -38 4q-23 2 -38.5 20
t-15.5 41q-3 38 -2 69q4 114 -11 233q-15 143 -4 292q3 44 -1.5 123t-4.5 110q0 17 8 153q1 23 4 203q-2 60 18 117q4 9 4.5 20t-0.5 24t-1 20q2 25 16 37.5t38 8.5q55 -11 115.5 -15t139.5 -4.5t116 -2.5q28 -1 59 0.5t70.5 5.5t59.5 5q71 4 213 0q50 -1 256 6q29 1 44.5 0
t35.5 -12t26 -34q18 -47 6 -97q-10 -33 -26.5 -47t-46.5 -11q-48 5 -159.5 2t-159.5 5q-29 4 -84 -1t-66 -5q-69 -1 -195 -5t-167 -5q-72 0 -130 -34q-15 -7 -22.5 -21.5t-4.5 -31.5q10 -60 -7 -122q-2 -14 1 -25q11 -50 8 -98q-2 -29 9.5 -42.5t40.5 -15.5q15 -1 58.5 -5.5
t65 -6t56.5 -3.5t65 -1t59 4q30 3 87 -0.5t77 -3.5q33 1 93 4.5t86 4.5q80 5 150 -5q38 -3 72 4q52 6 76.5 -17.5t18.5 -76.5q-5 -50 -26.5 -76.5t-77.5 -25.5q-38 1 -69 0t-69.5 1t-69.5 7q-23 4 -39 1q-81 -10 -215 -8.5t-215 -1.5q-23 -2 -89.5 -1t-89.5 1q-29 0 -36 -7
t-13 -37q-20 -105 2 -206q3 -15 3.5 -32t-1 -39t-1.5 -33q0 -6 -1 -25.5t0 -29.5q2 -34 12 -44t44 -10z" />
    <glyph glyph-name="E" unicode="&#xc9;" horiz-adv-x="2056" 
d="M674 250q18 0 118.5 -3t118.5 1q61 3 121 0q82 -3 165 6q48 5 174.5 2.5t173.5 9.5q27 5 48 5q30 0 46.5 -12.5t24.5 -41.5q8 -32 5 -69q-3 -47 -22 -66t-65 -24q-64 -7 -140 -2q-42 4 -97 -3q-103 -13 -207 0q-110 10 -233 2q-58 -2 -348 -7q-21 0 -38 4q-23 2 -38.5 20
t-15.5 41q-3 38 -2 69q4 114 -11 233q-15 143 -4 292q3 44 -1.5 123t-4.5 110q0 17 8 153q1 23 4 203q-2 60 18 117q4 9 4.5 20t-0.5 24t-1 20q2 25 16 37.5t38 8.5q55 -11 115.5 -15t139.5 -4.5t116 -2.5q28 -1 59 0.5t70.5 5.5t59.5 5q71 4 213 0q50 -1 256 6q29 1 44.5 0
t35.5 -12t26 -34q18 -47 6 -97q-10 -33 -26.5 -47t-46.5 -11q-48 5 -159.5 2t-159.5 5q-29 4 -84 -1t-66 -5q-69 -1 -195 -5t-167 -5q-72 0 -130 -34q-15 -7 -22.5 -21.5t-4.5 -31.5q10 -60 -7 -122q-2 -14 1 -25q11 -50 8 -98q-2 -29 9.5 -42.5t40.5 -15.5q15 -1 58.5 -5.5
t65 -6t56.5 -3.5t65 -1t59 4q30 3 87 -0.5t77 -3.5q33 1 93 4.5t86 4.5q80 5 150 -5q38 -3 72 4q52 6 76.5 -17.5t18.5 -76.5q-5 -50 -26.5 -76.5t-77.5 -25.5q-38 1 -69 0t-69.5 1t-69.5 7q-23 4 -39 1q-81 -10 -215 -8.5t-215 -1.5q-23 -2 -89.5 -1t-89.5 1q-29 0 -36 -7
t-13 -37q-20 -105 2 -206q3 -15 3.5 -32t-1 -39t-1.5 -33q0 -6 -1 -25.5t0 -29.5q2 -34 12 -44t44 -10z" />
    <glyph glyph-name="E" unicode="&#xc8;" horiz-adv-x="2056" 
d="M674 250q18 0 118.5 -3t118.5 1q61 3 121 0q82 -3 165 6q48 5 174.5 2.5t173.5 9.5q27 5 48 5q30 0 46.5 -12.5t24.5 -41.5q8 -32 5 -69q-3 -47 -22 -66t-65 -24q-64 -7 -140 -2q-42 4 -97 -3q-103 -13 -207 0q-110 10 -233 2q-58 -2 -348 -7q-21 0 -38 4q-23 2 -38.5 20
t-15.5 41q-3 38 -2 69q4 114 -11 233q-15 143 -4 292q3 44 -1.5 123t-4.5 110q0 17 8 153q1 23 4 203q-2 60 18 117q4 9 4.5 20t-0.5 24t-1 20q2 25 16 37.5t38 8.5q55 -11 115.5 -15t139.5 -4.5t116 -2.5q28 -1 59 0.5t70.5 5.5t59.5 5q71 4 213 0q50 -1 256 6q29 1 44.5 0
t35.5 -12t26 -34q18 -47 6 -97q-10 -33 -26.5 -47t-46.5 -11q-48 5 -159.5 2t-159.5 5q-29 4 -84 -1t-66 -5q-69 -1 -195 -5t-167 -5q-72 0 -130 -34q-15 -7 -22.5 -21.5t-4.5 -31.5q10 -60 -7 -122q-2 -14 1 -25q11 -50 8 -98q-2 -29 9.5 -42.5t40.5 -15.5q15 -1 58.5 -5.5
t65 -6t56.5 -3.5t65 -1t59 4q30 3 87 -0.5t77 -3.5q33 1 93 4.5t86 4.5q80 5 150 -5q38 -3 72 4q52 6 76.5 -17.5t18.5 -76.5q-5 -50 -26.5 -76.5t-77.5 -25.5q-38 1 -69 0t-69.5 1t-69.5 7q-23 4 -39 1q-81 -10 -215 -8.5t-215 -1.5q-23 -2 -89.5 -1t-89.5 1q-29 0 -36 -7
t-13 -37q-20 -105 2 -206q3 -15 3.5 -32t-1 -39t-1.5 -33q0 -6 -1 -25.5t0 -29.5q2 -34 12 -44t44 -10z" />
    <glyph glyph-name="F" unicode="F" horiz-adv-x="2000" 
d="M465 178q0 20 -3 79.5t0 94.5q0 11 1 128.5t-3 132.5q-2 45 -1.5 68t2.5 68.5t2 68.5q3 61 -7 117q-20 104 2 219q8 51 3 102q-8 107 13 209q6 32 16 42t41 15q38 5 67 0q154 -20 300 -10q213 13 435 1q51 -3 184 4q42 3 78 -1q38 -6 60.5 -36.5t18.5 -73.5
q-2 -22 -8.5 -37.5t-18.5 -24t-22.5 -14t-29.5 -6t-30 0t-33.5 2.5t-31.5 3q-173 -1 -353 -23q-61 -5 -116 4q-84 12 -164 2q-68 -5 -116 -4q-58 0 -117 -27q-14 -5 -21 -16.5t-4 -25.5q5 -28 2 -94.5t5 -94.5q4 -2 0 -37.5t-4 -39.5q-2 -36 7.5 -47.5t44.5 -17.5
q54 -9 161.5 -13t161.5 -13q49 -6 102 2q99 9 198 0q92 -4 193 2q6 0 19 1t20 1q42 1 62.5 -21.5t18.5 -66.5q2 -26 -14.5 -47t-41.5 -25q-29 -5 -48 -3q-73 9 -275 2q-74 -2 -134 -0.5t-134 -1.5t-133 -12q-5 -6 -77.5 -2.5t-77.5 3.5q-34 0 -43 -8t-10 -43
q-7 -194 -4 -313v-123q-3 -46 10 -96q0 -1 3 -20q9 -62 -15.5 -84t-82.5 -11q-50 9 -56 73q-3 49 -2 88z" />
    <glyph glyph-name="G" unicode="G" horiz-adv-x="2465" 
d="M1793 639q-130 6 -325 6q-47 0 -134 5t-133.5 5.5t-133.5 -9.5q-19 -2 -39 0q-17 0 -31.5 10.5t-19.5 26.5q-24 48 3 93q28 46 81 48q68 5 232 2t232 -1q60 2 189 0t189 1q36 2 72 -3q32 -4 41 -12.5t15 -40.5q16 -106 7 -216q-16 -189 1 -389q1 -12 1.5 -25t1 -29
t0.5 -25q2 -18 -9 -32t-29 -17q-49 -14 -75.5 5.5t-26.5 70.5q0 19 0.5 40.5t1.5 47.5t1 40q0 28 -14 34q-15 5 -34 -12q-53 -49 -124 -94q-8 -5 -37 -23.5t-42.5 -26.5t-37 -20.5t-43.5 -19.5q-21 -7 -57 -21.5t-66.5 -25.5t-58.5 -19q-82 -22 -172 -11q-225 21 -434 112
q-114 50 -196 130q-61 62 -106 120q-11 13 -19.5 29t-14 27.5t-12 33t-8.5 30.5t-8 35t-7 32q-8 36 -14 78t-11.5 91.5t-9.5 78.5q-1 29 7 64q26 164 59 242q39 96 101 173q56 73 142 114q131 60 272 99q54 12 81 15q101 15 202 18q196 8 379 -62q40 -14 60 -20
q24 -7 47 -25q12 -10 57.5 -46.5t69.5 -57.5q109 -99 160 -269q13 -44 3.5 -57t-55.5 -17q-44 -4 -65.5 10t-37.5 56q-23 66 -72 116.5t-115 76.5q-212 88 -442 88q-194 0 -374 -71q-80 -31 -139.5 -69.5t-100.5 -97.5q-23 -29 -32 -65q-4 -16 -12 -47.5t-12.5 -51.5
t-9.5 -47.5t-6 -51.5q-14 -204 66 -336q7 -12 14 -19q158 -169 336 -220q53 -16 114 -19q188 -10 376 26q7 1 28.5 6t33.5 7q41 7 85.5 30.5t74 46.5t72.5 61q68 60 103 146q21 51 9.5 71t-65.5 23z" />
    <glyph glyph-name="H" unicode="H" horiz-adv-x="2381" 
d="M1739 930q1 15 6 75t7 86t2 72t-4 83q0 22 0.5 65t0.5 65q0 43 2 65q7 52 37.5 72t76.5 2q22 -7 36 -25t15 -41q0 -28 4.5 -138t-1.5 -138q-6 -65 -3 -131q1 -42 -8.5 -145.5t-3.5 -159.5q10 -87 10 -186q-1 -27 -10 -120q-2 -48 -1 -72t5 -71.5t5 -71.5q0 -8 1 -51
t4 -65q6 -48 -45 -87q-32 -22 -67 -6t-37 56q-1 23 -5.5 83.5t-4 83.5t5.5 84q4 22 -1 50q-18 97 -13 200q8 56 -36 94q-26 25 -61 23q-85 -3 -268.5 0.5t-268.5 -1.5q-70 -4 -416 -6q-58 -1 -69 -11.5t-22 -71.5q-13 -64 1 -133q13 -69 5 -145q-6 -138 9 -206
q17 -108 -64 -108q-40 -2 -61.5 13.5t-27.5 56.5q-3 25 -6 70.5t-4 59.5q-9 80 -3 161q6 88 -1 170q-1 53 -1 72t2 72t3 72q1 42 -2 181t3 181q17 165 3 331q-5 53 36 75.5t83.5 2t41.5 -70.5q-2 -65 6.5 -202.5t4.5 -209.5q-2 -52 2 -90q2 -33 16.5 -49t46.5 -21
q47 -7 82 -7q81 0 172 1t202 2.5t172 2.5q21 0 48 5q49 10 101 1q34 -6 97 -7.5t87 -3.5q68 -8 73 62z" />
    <glyph glyph-name="I" unicode="I" horiz-adv-x="1110" 
d="M650 1161q0 -4 1.5 -122t-3.5 -149v-411q0 -32 -6.5 -135.5t-1.5 -160.5q1 -11 3 -34.5t3 -35.5q5 -50 -22.5 -79t-74.5 -19q-10 2 -26.5 5.5t-21.5 3.5t-15 4.5t-11.5 5t-6.5 8t-5 11.5t-1 16.5t-0.5 21.5t1.5 30q7 143 3 251q-4 97 -3.5 291t-3.5 291q-9 256 12 511
q3 38 16 49.5t48 9.5q36 -3 72 -9q27 -5 35.5 -15.5t7.5 -37.5q-4 -27 -2 -150.5t2 -150.5z" />
    <glyph glyph-name="I" unicode="&#xcf;" horiz-adv-x="1110" 
d="M650 1161q0 -4 1.5 -122t-3.5 -149v-411q0 -32 -6.5 -135.5t-1.5 -160.5q1 -11 3 -34.5t3 -35.5q5 -50 -22.5 -79t-74.5 -19q-10 2 -26.5 5.5t-21.5 3.5t-15 4.5t-11.5 5t-6.5 8t-5 11.5t-1 16.5t-0.5 21.5t1.5 30q7 143 3 251q-4 97 -3.5 291t-3.5 291q-9 256 12 511
q3 38 16 49.5t48 9.5q36 -3 72 -9q27 -5 35.5 -15.5t7.5 -37.5q-4 -27 -2 -150.5t2 -150.5z" />
    <glyph glyph-name="I" unicode="&#xce;" horiz-adv-x="1110" 
d="M650 1161q0 -4 1.5 -122t-3.5 -149v-411q0 -32 -6.5 -135.5t-1.5 -160.5q1 -11 3 -34.5t3 -35.5q5 -50 -22.5 -79t-74.5 -19q-10 2 -26.5 5.5t-21.5 3.5t-15 4.5t-11.5 5t-6.5 8t-5 11.5t-1 16.5t-0.5 21.5t1.5 30q7 143 3 251q-4 97 -3.5 291t-3.5 291q-9 256 12 511
q3 38 16 49.5t48 9.5q36 -3 72 -9q27 -5 35.5 -15.5t7.5 -37.5q-4 -27 -2 -150.5t2 -150.5z" />
    <glyph glyph-name="I" unicode="&#xcd;" horiz-adv-x="1110" 
d="M650 1161q0 -4 1.5 -122t-3.5 -149v-411q0 -32 -6.5 -135.5t-1.5 -160.5q1 -11 3 -34.5t3 -35.5q5 -50 -22.5 -79t-74.5 -19q-10 2 -26.5 5.5t-21.5 3.5t-15 4.5t-11.5 5t-6.5 8t-5 11.5t-1 16.5t-0.5 21.5t1.5 30q7 143 3 251q-4 97 -3.5 291t-3.5 291q-9 256 12 511
q3 38 16 49.5t48 9.5q36 -3 72 -9q27 -5 35.5 -15.5t7.5 -37.5q-4 -27 -2 -150.5t2 -150.5z" />
    <glyph glyph-name="I" unicode="&#xcc;" horiz-adv-x="1110" 
d="M650 1161q0 -4 1.5 -122t-3.5 -149v-411q0 -32 -6.5 -135.5t-1.5 -160.5q1 -11 3 -34.5t3 -35.5q5 -50 -22.5 -79t-74.5 -19q-10 2 -26.5 5.5t-21.5 3.5t-15 4.5t-11.5 5t-6.5 8t-5 11.5t-1 16.5t-0.5 21.5t1.5 30q7 143 3 251q-4 97 -3.5 291t-3.5 291q-9 256 12 511
q3 38 16 49.5t48 9.5q36 -3 72 -9q27 -5 35.5 -15.5t7.5 -37.5q-4 -27 -2 -150.5t2 -150.5z" />
    <glyph glyph-name="J" unicode="J" horiz-adv-x="1744" 
d="M1174 523v158q1 82 -2.5 172.5t-9.5 204.5t-8 172q0 1 -3 25q-4 29 -9.5 34.5t-34.5 12.5q-21 5 -45 7t-53.5 3t-45.5 2q-53 5 -155 7t-150 6q-115 8 -213 4q-38 -1 -49 11.5t-7 50.5q0 43 12 85q12 30 24 39t41 7q60 -7 249 -4.5t249 1.5q17 0 65 -1t73 -1.5t63 -3
t70 -7.5q29 -4 33.5 -10t4.5 -38q0 -141 16 -345q1 -7 1 -21q0 -50 9 -274.5t3 -345.5q-1 0 0 -8v-7q16 -103 -45 -246q-46 -100 -146 -150q-73 -39 -159 -42q-112 -6 -271 -8q-35 0 -66 10q-82 22 -163 26q-30 4 -65 19q-29 11 -36 44q-17 80 -7 157q5 35 27 46t45 -12
q34 -36 76 -57.5t82.5 -28t87 -9t89.5 0.5q138 4 277 43q68 18 110 99q39 84 36 172z" />
    <glyph glyph-name="K" unicode="K" horiz-adv-x="1961" 
d="M318 552q5 59 7 169t3 135v268q0 48 5 106q6 85 2 162q-1 41 2 91q3 41 40 41h78q33 0 38 -36q6 -46 1 -97q-5 -99 -3 -394q0 -31 7 -41t32 -8q28 2 123 2t123 9q52 9 88 48q27 30 86.5 71.5t82.5 62.5q25 23 73.5 62.5t68.5 56.5q15 13 54 48.5t67.5 59t58.5 42.5
q52 35 87 78q29 33 72 35q22 1 136 1q34 0 40 -21q7 -23 -21 -46q-19 -16 -54 -43.5t-63.5 -51t-51.5 -46.5q-66 -59 -127 -100q-21 -16 -61 -42.5t-72 -50t-56 -47.5q-23 -23 -86 -83.5t-96 -95.5q-10 -10 -10 -25q0 -14 12 -24q17 -17 59 -68t70 -75q72 -66 124 -133
q19 -22 60 -59t59 -57q10 -11 35 -35t37 -39q13 -17 39 -37q88 -60 148 -144q14 -20 45 -48.5t41 -39.5q20 -22 29 -34q16 -24 8.5 -42.5t-35.5 -21.5q-45 -3 -101 -1q-6 0 -11 1.5t-10 5.5t-7.5 6.5t-7.5 8.5t-7 8q-23 24 -81.5 86.5t-89.5 97.5q-23 25 -52 53.5
t-49.5 46.5t-58 50.5t-52.5 46.5q-26 23 -70 73t-54 60q-26 26 -47 42q-22 17 -66.5 63.5t-73.5 66.5q-48 36 -108 39q-134 2 -260 -19q-23 -3 -29 -10t-8 -31q-13 -194 -7 -547q0 -14 5.5 -43.5t4.5 -46.5q-2 -32 -13 -43.5t-40 -11.5q-17 0 -49 2q-30 2 -42.5 14t-15.5 44
q-10 131 -1 268q6 92 -2 172q-2 12 -2 35z" />
    <glyph glyph-name="L" unicode="L" horiz-adv-x="1865" 
d="M605 1055q1 -13 1 -40q1 -62 -1.5 -184.5t-0.5 -220t14 -184.5q6 -56 4 -120q0 -38 37 -41q30 -2 84 -7t70 -6q346 -26 551 -23q76 2 136 7q42 4 57.5 -9.5t20.5 -56.5q0 -4 1 -10.5t1 -9.5q8 -49 -10 -73.5t-72 -33.5q-86 -11 -159 -10h-131t-148 0.5t-125.5 3.5
t-142.5 9q-18 2 -52 -1t-49 -3q-77 1 -174 8q-26 1 -35 8.5t-16 33.5q-2 6 -2 20q-2 26 -10 111t-8.5 111.5t0.5 111.5q8 126 8.5 358t4.5 326q2 60 -1 172t-2 162q1 32 6 39t37 14q69 16 88.5 -3.5t18.5 -89.5q0 -38 -3 -123t-3 -123t5 -123z" />
    <glyph glyph-name="M" unicode="M" horiz-adv-x="2408" 
d="M1999 1298q8 23 -11 37q-10 -15 -19.5 -31t-18 -35.5t-14 -32t-13.5 -36.5t-11 -33.5t-12 -37.5t-11 -34q-6 -21 -15 -42q-20 -41 -57 -130.5t-59 -133.5q-28 -62 -46 -138q-9 -33 -26 -64q-109 -206 -182 -431q-4 -13 -20 -51t-21 -61q-6 -32 -54 -34q-123 -5 -223 -5
q-27 0 -51 22.5t-34 55.5q-33 113 -96 218q-16 25 -34 76.5t-24 66.5q-10 23 -28 69.5t-28 69.5q-24 58 -69 182t-72 186q-12 27 -31 82t-38 97t-44 75q-4 6 -9.5 27.5t-16.5 28.5q-9 -7 -9 -8q0 -37 -3 -107t-2.5 -126.5t6.5 -107.5q2 -50 2.5 -60t-3 -60.5t-3.5 -60.5
q-7 -153 -3 -267q1 -39 -0.5 -151t2.5 -151q0 -7 3.5 -44.5t3.5 -56.5q0 -29 -8 -37t-37 -10q-6 0 -17 -1t-17 -1q-22 -3 -39 11t-19 36q-20 120 -5 236q0 4 1.5 16.5t2 17t1 15t0 17t-1.5 15.5t-3.5 16.5t-6.5 15.5q-9 27 -3 55q11 66 13 187.5t6 167.5q14 134 -11 260
q-7 36 -1 75q7 44 9.5 89t2.5 112.5v89.5q1 39 12 49t50 7q24 -3 48 -3q94 7 148 -92q2 -3 11.5 -21t11.5 -22.5t10.5 -20.5t11 -23t9 -21t9.5 -23.5t7 -22.5t6.5 -25t3.5 -24q1 -7 5 -14q28 -57 53 -116.5t60.5 -152t46.5 -119.5q8 -21 25.5 -61.5t30.5 -73.5t22 -64
q23 -70 60 -131q28 -50 62 -125q13 -29 39.5 -86t39.5 -86q11 -29 41 -39q17 -7 32 1q16 8 19 24q14 42 52 112.5t50 97.5q39 88 119 264q9 20 27.5 60.5t27.5 61.5q4 7 10 23q24 77 61 153q16 34 57 149q15 43 49.5 131t50.5 135q2 5 18.5 51t21.5 72q8 46 64 52
q59 5 111 2q45 -1 44 -53q-2 -90 -5.5 -271t-5.5 -272q-3 -90 7 -196q6 -65 -1 -126q-9 -87 -6 -176q8 -120 3 -217q-3 -47 8 -95q7 -30 4 -65q-4 -25 -12.5 -35t-31.5 -15q-70 -16 -78 63q-2 10 -1.5 45t0.5 45q-4 62 -0.5 231.5t2.5 231.5q-1 92 0.5 261t1.5 223
q0 16 -0.5 47.5t-0.5 51.5t1.5 47t4.5 50z" />
    <glyph glyph-name="N" unicode="N" horiz-adv-x="2105" 
d="M1829 1265v-409v-589q5 -87 22 -163q8 -38 -12 -66q-13 -19 -37 -19q-28 -3 -59 -4t-69.5 -1t-59.5 -1q-75 -3 -104 58q-19 31 -39 51q-72 80 -129 171q-8 14 -18.5 28.5t-24.5 32.5t-20 27q-34 47 -40 56q-106 173 -248 335q-75 84 -131 177q-12 20 -39 53t-38 49
q-92 134 -126 176q-43 47 -88 112q-8 10 -23 17q-22 10 -23 -13q-1 -8 -1 -25q3 -45 2 -139.5t3 -139.5q4 -56 4 -119t-2 -140.5t-2 -119.5q-3 -68 8 -139q2 -14 2 -20q-3 -55 0.5 -116.5t11 -136.5t9.5 -115q1 -12 3.5 -34t3.5 -30q2 -27 -7.5 -39.5t-34.5 -13.5
q-39 0 -77 6q-22 3 -24 38q-5 89 -8 114q-14 104 -13 269t-1 269q-5 67 -0.5 267t3.5 267q0 13 -1 48t-1.5 53.5t2 46.5t7.5 51q6 28 18.5 40.5t38.5 14.5q90 6 174 -1q29 -2 45 -25q35 -42 67 -91q18 -33 41 -66t56.5 -78t46.5 -62q80 -111 98 -140q38 -50 73 -86
q58 -71 104 -149q54 -86 115 -159q15 -18 41 -54.5t38 -51.5t47.5 -63t56.5 -73q108 -129 131 -159q39 -45 79 -81q18 -18 29 -10q15 13 9 32q-9 61 -8 119q0 54 1.5 174t1 211t-4.5 174q-4 84 -5 240t-3 224q-1 52 -8 119q-5 44 23.5 67t79.5 7q17 -5 27 -20t8 -33
q-1 -33 -1 -200z" />
    <glyph glyph-name="N" unicode="&#xd1;" horiz-adv-x="2105" 
d="M1829 1265v-409v-589q5 -87 22 -163q8 -38 -12 -66q-13 -19 -37 -19q-28 -3 -59 -4t-69.5 -1t-59.5 -1q-75 -3 -104 58q-19 31 -39 51q-72 80 -129 171q-8 14 -18.5 28.5t-24.5 32.5t-20 27q-34 47 -40 56q-106 173 -248 335q-75 84 -131 177q-12 20 -39 53t-38 49
q-92 134 -126 176q-43 47 -88 112q-8 10 -23 17q-22 10 -23 -13q-1 -8 -1 -25q3 -45 2 -139.5t3 -139.5q4 -56 4 -119t-2 -140.5t-2 -119.5q-3 -68 8 -139q2 -14 2 -20q-3 -55 0.5 -116.5t11 -136.5t9.5 -115q1 -12 3.5 -34t3.5 -30q2 -27 -7.5 -39.5t-34.5 -13.5
q-39 0 -77 6q-22 3 -24 38q-5 89 -8 114q-14 104 -13 269t-1 269q-5 67 -0.5 267t3.5 267q0 13 -1 48t-1.5 53.5t2 46.5t7.5 51q6 28 18.5 40.5t38.5 14.5q90 6 174 -1q29 -2 45 -25q35 -42 67 -91q18 -33 41 -66t56.5 -78t46.5 -62q80 -111 98 -140q38 -50 73 -86
q58 -71 104 -149q54 -86 115 -159q15 -18 41 -54.5t38 -51.5t47.5 -63t56.5 -73q108 -129 131 -159q39 -45 79 -81q18 -18 29 -10q15 13 9 32q-9 61 -8 119q0 54 1.5 174t1 211t-4.5 174q-4 84 -5 240t-3 224q-1 52 -8 119q-5 44 23.5 67t79.5 7q17 -5 27 -20t8 -33
q-1 -33 -1 -200z" />
    <glyph glyph-name="O" unicode="O" horiz-adv-x="2420" 
d="M1541 43q-183 -49 -371 -44q-89 -7 -176 17t-204 73q-73 29 -145 74q-88 61 -158 152q-77 93 -99 244q-2 13 -7.5 46.5t-7 46t-4 46t1.5 46.5q27 223 82 337q39 79 98 146q37 40 77 70q117 88 212 112q74 19 133.5 31t129 21.5t138 9t134.5 -10.5q36 -5 72.5 -14.5
t90 -26t70.5 -21.5q26 -11 53 -33q15 -10 44.5 -27t51.5 -32t40 -31q82 -76 147 -170q71 -100 104 -285q6 -33 6 -70t-3 -65t-12.5 -70t-15.5 -63.5t-19 -67.5q-43 -146 -142 -257q-113 -129 -321 -184zM1586 1177q-157 75 -334 66q-110 -6 -293 -28q-114 -11 -209 -67
q-35 -22 -53 -35t-42 -37t-37 -50q-7 -14 -22 -42t-23.5 -45.5t-19 -42.5t-16.5 -48q-42 -159 10 -289q12 -25 36 -62q85 -146 238 -213q78 -37 158 -56q150 -38 304 -23.5t294 79.5q3 1 11 3.5t11 4.5q127 58 191 135q97 117 100 217q5 51 2.5 115t-23.5 111
q-49 114 -114 188t-169 119z" />
    <glyph glyph-name="O" unicode="&#xd8;" horiz-adv-x="2420" 
d="M1541 43q-183 -49 -371 -44q-89 -7 -176 17t-204 73q-73 29 -145 74q-88 61 -158 152q-77 93 -99 244q-2 13 -7.5 46.5t-7 46t-4 46t1.5 46.5q27 223 82 337q39 79 98 146q37 40 77 70q117 88 212 112q74 19 133.5 31t129 21.5t138 9t134.5 -10.5q36 -5 72.5 -14.5
t90 -26t70.5 -21.5q26 -11 53 -33q15 -10 44.5 -27t51.5 -32t40 -31q82 -76 147 -170q71 -100 104 -285q6 -33 6 -70t-3 -65t-12.5 -70t-15.5 -63.5t-19 -67.5q-43 -146 -142 -257q-113 -129 -321 -184zM1586 1177q-157 75 -334 66q-110 -6 -293 -28q-114 -11 -209 -67
q-35 -22 -53 -35t-42 -37t-37 -50q-7 -14 -22 -42t-23.5 -45.5t-19 -42.5t-16.5 -48q-42 -159 10 -289q12 -25 36 -62q85 -146 238 -213q78 -37 158 -56q150 -38 304 -23.5t294 79.5q3 1 11 3.5t11 4.5q127 58 191 135q97 117 100 217q5 51 2.5 115t-23.5 111
q-49 114 -114 188t-169 119z" />
    <glyph glyph-name="O" unicode="&#xd6;" horiz-adv-x="2420" 
d="M1541 43q-183 -49 -371 -44q-89 -7 -176 17t-204 73q-73 29 -145 74q-88 61 -158 152q-77 93 -99 244q-2 13 -7.5 46.5t-7 46t-4 46t1.5 46.5q27 223 82 337q39 79 98 146q37 40 77 70q117 88 212 112q74 19 133.5 31t129 21.5t138 9t134.5 -10.5q36 -5 72.5 -14.5
t90 -26t70.5 -21.5q26 -11 53 -33q15 -10 44.5 -27t51.5 -32t40 -31q82 -76 147 -170q71 -100 104 -285q6 -33 6 -70t-3 -65t-12.5 -70t-15.5 -63.5t-19 -67.5q-43 -146 -142 -257q-113 -129 -321 -184zM1586 1177q-157 75 -334 66q-110 -6 -293 -28q-114 -11 -209 -67
q-35 -22 -53 -35t-42 -37t-37 -50q-7 -14 -22 -42t-23.5 -45.5t-19 -42.5t-16.5 -48q-42 -159 10 -289q12 -25 36 -62q85 -146 238 -213q78 -37 158 -56q150 -38 304 -23.5t294 79.5q3 1 11 3.5t11 4.5q127 58 191 135q97 117 100 217q5 51 2.5 115t-23.5 111
q-49 114 -114 188t-169 119z" />
    <glyph glyph-name="O" unicode="&#xd5;" horiz-adv-x="2420" 
d="M1541 43q-183 -49 -371 -44q-89 -7 -176 17t-204 73q-73 29 -145 74q-88 61 -158 152q-77 93 -99 244q-2 13 -7.5 46.5t-7 46t-4 46t1.5 46.5q27 223 82 337q39 79 98 146q37 40 77 70q117 88 212 112q74 19 133.5 31t129 21.5t138 9t134.5 -10.5q36 -5 72.5 -14.5
t90 -26t70.5 -21.5q26 -11 53 -33q15 -10 44.5 -27t51.5 -32t40 -31q82 -76 147 -170q71 -100 104 -285q6 -33 6 -70t-3 -65t-12.5 -70t-15.5 -63.5t-19 -67.5q-43 -146 -142 -257q-113 -129 -321 -184zM1586 1177q-157 75 -334 66q-110 -6 -293 -28q-114 -11 -209 -67
q-35 -22 -53 -35t-42 -37t-37 -50q-7 -14 -22 -42t-23.5 -45.5t-19 -42.5t-16.5 -48q-42 -159 10 -289q12 -25 36 -62q85 -146 238 -213q78 -37 158 -56q150 -38 304 -23.5t294 79.5q3 1 11 3.5t11 4.5q127 58 191 135q97 117 100 217q5 51 2.5 115t-23.5 111
q-49 114 -114 188t-169 119z" />
    <glyph glyph-name="O" unicode="&#xd4;" horiz-adv-x="2420" 
d="M1541 43q-183 -49 -371 -44q-89 -7 -176 17t-204 73q-73 29 -145 74q-88 61 -158 152q-77 93 -99 244q-2 13 -7.5 46.5t-7 46t-4 46t1.5 46.5q27 223 82 337q39 79 98 146q37 40 77 70q117 88 212 112q74 19 133.5 31t129 21.5t138 9t134.5 -10.5q36 -5 72.5 -14.5
t90 -26t70.5 -21.5q26 -11 53 -33q15 -10 44.5 -27t51.5 -32t40 -31q82 -76 147 -170q71 -100 104 -285q6 -33 6 -70t-3 -65t-12.5 -70t-15.5 -63.5t-19 -67.5q-43 -146 -142 -257q-113 -129 -321 -184zM1586 1177q-157 75 -334 66q-110 -6 -293 -28q-114 -11 -209 -67
q-35 -22 -53 -35t-42 -37t-37 -50q-7 -14 -22 -42t-23.5 -45.5t-19 -42.5t-16.5 -48q-42 -159 10 -289q12 -25 36 -62q85 -146 238 -213q78 -37 158 -56q150 -38 304 -23.5t294 79.5q3 1 11 3.5t11 4.5q127 58 191 135q97 117 100 217q5 51 2.5 115t-23.5 111
q-49 114 -114 188t-169 119z" />
    <glyph glyph-name="O" unicode="&#xd3;" horiz-adv-x="2420" 
d="M1541 43q-183 -49 -371 -44q-89 -7 -176 17t-204 73q-73 29 -145 74q-88 61 -158 152q-77 93 -99 244q-2 13 -7.5 46.5t-7 46t-4 46t1.5 46.5q27 223 82 337q39 79 98 146q37 40 77 70q117 88 212 112q74 19 133.5 31t129 21.5t138 9t134.5 -10.5q36 -5 72.5 -14.5
t90 -26t70.5 -21.5q26 -11 53 -33q15 -10 44.5 -27t51.5 -32t40 -31q82 -76 147 -170q71 -100 104 -285q6 -33 6 -70t-3 -65t-12.5 -70t-15.5 -63.5t-19 -67.5q-43 -146 -142 -257q-113 -129 -321 -184zM1586 1177q-157 75 -334 66q-110 -6 -293 -28q-114 -11 -209 -67
q-35 -22 -53 -35t-42 -37t-37 -50q-7 -14 -22 -42t-23.5 -45.5t-19 -42.5t-16.5 -48q-42 -159 10 -289q12 -25 36 -62q85 -146 238 -213q78 -37 158 -56q150 -38 304 -23.5t294 79.5q3 1 11 3.5t11 4.5q127 58 191 135q97 117 100 217q5 51 2.5 115t-23.5 111
q-49 114 -114 188t-169 119z" />
    <glyph glyph-name="O" unicode="&#xd2;" horiz-adv-x="2420" 
d="M1541 43q-183 -49 -371 -44q-89 -7 -176 17t-204 73q-73 29 -145 74q-88 61 -158 152q-77 93 -99 244q-2 13 -7.5 46.5t-7 46t-4 46t1.5 46.5q27 223 82 337q39 79 98 146q37 40 77 70q117 88 212 112q74 19 133.5 31t129 21.5t138 9t134.5 -10.5q36 -5 72.5 -14.5
t90 -26t70.5 -21.5q26 -11 53 -33q15 -10 44.5 -27t51.5 -32t40 -31q82 -76 147 -170q71 -100 104 -285q6 -33 6 -70t-3 -65t-12.5 -70t-15.5 -63.5t-19 -67.5q-43 -146 -142 -257q-113 -129 -321 -184zM1586 1177q-157 75 -334 66q-110 -6 -293 -28q-114 -11 -209 -67
q-35 -22 -53 -35t-42 -37t-37 -50q-7 -14 -22 -42t-23.5 -45.5t-19 -42.5t-16.5 -48q-42 -159 10 -289q12 -25 36 -62q85 -146 238 -213q78 -37 158 -56q150 -38 304 -23.5t294 79.5q3 1 11 3.5t11 4.5q127 58 191 135q97 117 100 217q5 51 2.5 115t-23.5 111
q-49 114 -114 188t-169 119z" />
    <glyph glyph-name="P" unicode="P" horiz-adv-x="2103" 
d="M522 1466q70 4 205.5 1.5t187.5 1.5q173 5 473 -15q112 -6 211 -51q61 -28 102 -80.5t53 -118.5q5 -27 10.5 -79.5t6.5 -61.5q11 -74 -26 -137q-12 -23 -40.5 -61.5t-33.5 -46.5q-9 -13 -50 -29q-145 -53 -298 -53h-128t-162 -1t-127 -5q-46 -3 -131.5 -5t-104.5 -3
q-30 -2 -43.5 -13.5t-18.5 -40.5q-4 -18 -6 -54q-2 -260 -2 -389q0 -14 -1 -83.5t0 -83.5q1 -33 -12 -45.5t-46 -14.5q-63 -3 -78 11t-16 77q-6 115 4 246q3 59 -5 123q-3 36 1.5 100t4.5 86q3 422 5 487q4 120 -1 270q-1 50 7.5 58t58.5 10zM957 1277q-82 7 -147 4
q-22 -1 -65.5 -2t-64.5 -3q-40 -3 -53.5 -15.5t-16.5 -52.5q-9 -131 -9 -221q-2 -52 17 -64.5t75 -13.5q41 1 129.5 -1t156 0t129.5 11q39 6 78.5 8.5t103.5 3.5t79 2q92 3 172 44q37 20 53.5 58t4.5 78q-5 16 -22 54q-18 45 -65 53q-247 55 -397 57h-158z" />
    <glyph glyph-name="Q" unicode="Q" horiz-adv-x="2486" 
d="M857 1423q194 53 441 46q157 4 400 -69q115 -38 204 -119q21 -17 40 -38.5t42.5 -51.5t35.5 -43q11 -13 18 -28.5t15 -41t11 -32.5q7 -20 13.5 -43.5t10.5 -40t9 -46.5t6.5 -40.5t6.5 -46.5t6 -42q3 -19 3.5 -38t-2 -39t-5 -36t-8.5 -38t-10 -35t-11.5 -38t-10.5 -36
q-38 -127 -116 -232q-84 -122 -210 -202q-29 -18 -29.5 -25t26.5 -31q5 -4 20.5 -16.5t25 -22.5t15.5 -22q4 -8 14 -13q37 -18 99 -71.5t100 -71.5q18 -10 24 -29q21 -50 -30 -51q-43 -2 -87 3q-43 5 -78 1q-26 -5 -50 5t-39 32q-40 48 -88 88q-21 21 -126 113
q-26 26 -60 23q-270 -26 -533 44q-164 45 -240 86q-7 4 -30 16t-32.5 17.5t-29 17t-31.5 19.5t-27 20t-27 24q-89 88 -117 174q-78 243 -18 491q45 180 162 317q71 87 175 150q11 7 22 12t25.5 9.5t23 7t27 7t24.5 6.5zM1592 1219q-182 58 -369 52q-160 6 -248 -21
q-11 -3 -32 -9.5t-38 -11.5t-32 -9q-98 -27 -174 -100q-81 -67 -122 -164q-3 -7 -11 -26.5t-11.5 -30t-9 -26.5t-8 -30.5t-2.5 -29.5q-2 -124 0 -165q5 -89 58 -161q79 -104 195 -163q125 -72 264 -107q209 -47 341 -34q196 17 305 119q7 6 44.5 40.5t51 48t38 41.5t41.5 53
q78 118 80 218q8 295 -235 447q-10 6 -29.5 18.5t-31.5 20t-30 16.5t-35 14z" />
    <glyph glyph-name="R" unicode="R" horiz-adv-x="2138" 
d="M454 67q-1 15 -1 94q-6 89 0 257t3 246q-9 228 -9 685v35q1 41 17 58t55 18q47 1 150 5t150.5 4.5t149.5 -5.5q53 -5 216.5 -11.5t251.5 -21.5q90 -14 172 -48q53 -24 88.5 -70.5t45.5 -104.5q37 -159 -37 -306q-6 -12 -24 -27.5t-20 -17.5q-90 -95 -250 -117
q-121 -19 -245 -21q-25 0 -30 -11q-5 -4 -2 -10.5t4 -8t7 -7t7 -6.5q118 -120 241 -235q26 -25 88 -82.5t96 -90t84 -81t91 -90.5q30 -32 24 -56t-48 -38q-39 -13 -71.5 1t-68.5 47q-24 22 -68.5 67.5t-66.5 65.5q-105 97 -149 132q-20 16 -42 36t-48.5 45.5t-41.5 38.5
q-31 28 -111 108.5t-128 120.5q-11 9 -23.5 16t-22 12t-26 10t-23.5 7t-27 7t-25 6q-60 13 -110 16q-35 3 -49 -9t-16 -49q-4 -72 -8 -212q-2 -98 -4 -290q-2 -49 6 -99q7 -40 -7.5 -60t-52.5 -24t-64.5 16.5t-27.5 54.5zM815 904q134 -19 256 -16q120 0 135 1q98 2 192 21
q68 18 120 50q60 37 63 107t-53 112q-54 40 -122 43q-31 3 -93.5 8t-94.5 8q-273 26 -498 25q-71 -1 -95 -26t-23 -99q0 -26 4 -85.5t3 -91.5q-1 -28 4 -33.5t33 -8.5q19 -2 53.5 -4t62.5 -4.5t53 -6.5z" />
    <glyph glyph-name="S" unicode="S" horiz-adv-x="2170" 
d="M793 1445q133 29 270 24q201 8 387 -68q200 -82 277 -260q23 -44 24 -88q2 -15 -3 -29q-6 -14 -17.5 -22t-20 -9.5t-26.5 -2t-24 -1.5q-24 -3 -35.5 4t-19.5 28q-29 82 -87 144q-64 69 -160 80q-171 23 -353 8q-48 -5 -97 -3q-131 -1 -262 -40q-58 -16 -80 -70
q-17 -31 -7 -67.5t46 -62.5q21 -15 46 -28.5t44.5 -22t51.5 -19t47 -14.5t53 -14t49 -13q81 -22 249 -30q164 -6 312 -41q98 -24 167.5 -70.5t106.5 -129.5q4 -9 14 -25q98 -159 -10 -341l-12 -18t-13.5 -18t-13 -15.5t-15.5 -16t-14.5 -13.5t-16.5 -14t-15.5 -13t-17.5 -14
t-16 -13q-16 -11 -39 -19q-27 -9 -45 -18q-29 -18 -65.5 -32t-63 -20.5t-71 -16t-66.5 -15.5q-95 -20 -197 -5q-181 20 -341 68q-38 11 -59.5 19t-50.5 26t-47 43q-4 5 -16 11q-55 37 -90.5 94t-46.5 124q-3 32 -16 70q-6 25 -2 48q-2 17 16 22q36 7 81 10q6 0 10 -2.5
t5.5 -5.5t3.5 -10t3 -9q6 -13 22 -49t28.5 -60t28.5 -45q75 -97 224 -145q218 -71 478 -29q153 26 276 112q59 37 77 105t-14 130q-14 29 -42 46q-85 57 -184 66q-318 19 -485 54q-146 27 -304 78q-9 2 -21 9q-55 41 -89 78t-52 88q-42 123 -35 212q1 43 26 80q7 10 27.5 47
t37.5 54q12 11 28 21.5t23.5 14.5t32.5 16t27 13q25 12 54.5 18.5t67.5 12t57 9.5z" />
    <glyph glyph-name="T" unicode="T" horiz-adv-x="2029" 
d="M334 1450h738q149 5 545 19q44 3 82 -1q28 -3 39 -16.5t12 -42.5q0 -26 -1 -39q-4 -102 -104 -103q-134 -2 -402 -4q-35 0 -62 -8q-27 -7 -45 -27.5t-21 -47.5q-22 -120 -24 -261q-1 -60 -2.5 -274t-6.5 -330q-3 -92 12 -182q4 -28 1 -59q-5 -41 -23 -58.5t-57 -20.5h-5
q-54 -2 -70.5 13t-19.5 69q-8 97 0 193q2 47 -1 84q0 25 -2 96.5t-2 106.5t-0.5 93t1.5 106.5t6 96.5q3 40 4.5 87.5t1 80t-1.5 91t-1 82.5q0 30 -10.5 41t-41.5 15q-20 2 -75.5 9t-94.5 11t-76 4q-174 2 -259 -22q-22 -8 -43 -5q-18 0 -30 15t-9 31v59.5t-1 59.5
q-2 15 7 25q10 12 23 12q6 1 19 1z" />
    <glyph glyph-name="U" unicode="U" horiz-adv-x="2273" 
d="M1848 1453q2 -9 3 -21q5 -42 4 -73t-1 -158t-6 -158q2 -193 -8 -326q-4 -48 -10 -145t-10 -146q-8 -99 -66 -180q-67 -101 -176 -153q-82 -43 -178 -73q-113 -29 -230 -24q-204 2 -396 60q-31 10 -64 29t-53 33.5t-55 42.5q-17 13 -31.5 29.5t-25 30t-22 35t-17.5 34
t-15.5 39t-12.5 36.5t-12.5 40t-11.5 38q-8 25 -14 52.5t-10 49t-7 54t-4.5 49.5t-2 54.5t-0.5 50v54.5v51q0 148 11 379q1 27 2 57t2 66.5t2 56.5q1 28 7.5 35t34.5 10q32 4 72 4q21 0 30 -8.5t10 -29.5q3 -49 -1 -92q-6 -40 -6 -82q0 -63 -8.5 -287t0.5 -288
q5 -125 29 -236q34 -140 182 -198q162 -64 337 -50q20 0 39 -3q112 -12 219 26q16 6 48 15t45 13q84 28 127 105q15 31 41 71q16 24 18 55q6 59 11 167.5t8 148.5q3 37 5 140.5t9 159.5q7 52 -1 112q-5 34 -6 70t-0.5 84.5t0.5 69.5q0 12 1 18q3 14 17 19q11 3 20 3h21
q7 0 21 0.5t21 0.5q14 1 43 -1q9 0 15 -6q2 -2 6 -10z" />
    <glyph glyph-name="U" unicode="&#xdc;" horiz-adv-x="2273" 
d="M1848 1453q2 -9 3 -21q5 -42 4 -73t-1 -158t-6 -158q2 -193 -8 -326q-4 -48 -10 -145t-10 -146q-8 -99 -66 -180q-67 -101 -176 -153q-82 -43 -178 -73q-113 -29 -230 -24q-204 2 -396 60q-31 10 -64 29t-53 33.5t-55 42.5q-17 13 -31.5 29.5t-25 30t-22 35t-17.5 34
t-15.5 39t-12.5 36.5t-12.5 40t-11.5 38q-8 25 -14 52.5t-10 49t-7 54t-4.5 49.5t-2 54.5t-0.5 50v54.5v51q0 148 11 379q1 27 2 57t2 66.5t2 56.5q1 28 7.5 35t34.5 10q32 4 72 4q21 0 30 -8.5t10 -29.5q3 -49 -1 -92q-6 -40 -6 -82q0 -63 -8.5 -287t0.5 -288
q5 -125 29 -236q34 -140 182 -198q162 -64 337 -50q20 0 39 -3q112 -12 219 26q16 6 48 15t45 13q84 28 127 105q15 31 41 71q16 24 18 55q6 59 11 167.5t8 148.5q3 37 5 140.5t9 159.5q7 52 -1 112q-5 34 -6 70t-0.5 84.5t0.5 69.5q0 12 1 18q3 14 17 19q11 3 20 3h21
q7 0 21 0.5t21 0.5q14 1 43 -1q9 0 15 -6q2 -2 6 -10z" />
    <glyph glyph-name="U" unicode="&#xdb;" horiz-adv-x="2273" 
d="M1848 1453q2 -9 3 -21q5 -42 4 -73t-1 -158t-6 -158q2 -193 -8 -326q-4 -48 -10 -145t-10 -146q-8 -99 -66 -180q-67 -101 -176 -153q-82 -43 -178 -73q-113 -29 -230 -24q-204 2 -396 60q-31 10 -64 29t-53 33.5t-55 42.5q-17 13 -31.5 29.5t-25 30t-22 35t-17.5 34
t-15.5 39t-12.5 36.5t-12.5 40t-11.5 38q-8 25 -14 52.5t-10 49t-7 54t-4.5 49.5t-2 54.5t-0.5 50v54.5v51q0 148 11 379q1 27 2 57t2 66.5t2 56.5q1 28 7.5 35t34.5 10q32 4 72 4q21 0 30 -8.5t10 -29.5q3 -49 -1 -92q-6 -40 -6 -82q0 -63 -8.5 -287t0.5 -288
q5 -125 29 -236q34 -140 182 -198q162 -64 337 -50q20 0 39 -3q112 -12 219 26q16 6 48 15t45 13q84 28 127 105q15 31 41 71q16 24 18 55q6 59 11 167.5t8 148.5q3 37 5 140.5t9 159.5q7 52 -1 112q-5 34 -6 70t-0.5 84.5t0.5 69.5q0 12 1 18q3 14 17 19q11 3 20 3h21
q7 0 21 0.5t21 0.5q14 1 43 -1q9 0 15 -6q2 -2 6 -10z" />
    <glyph glyph-name="U" unicode="&#xda;" horiz-adv-x="2273" 
d="M1848 1453q2 -9 3 -21q5 -42 4 -73t-1 -158t-6 -158q2 -193 -8 -326q-4 -48 -10 -145t-10 -146q-8 -99 -66 -180q-67 -101 -176 -153q-82 -43 -178 -73q-113 -29 -230 -24q-204 2 -396 60q-31 10 -64 29t-53 33.5t-55 42.5q-17 13 -31.5 29.5t-25 30t-22 35t-17.5 34
t-15.5 39t-12.5 36.5t-12.5 40t-11.5 38q-8 25 -14 52.5t-10 49t-7 54t-4.5 49.5t-2 54.5t-0.5 50v54.5v51q0 148 11 379q1 27 2 57t2 66.5t2 56.5q1 28 7.5 35t34.5 10q32 4 72 4q21 0 30 -8.5t10 -29.5q3 -49 -1 -92q-6 -40 -6 -82q0 -63 -8.5 -287t0.5 -288
q5 -125 29 -236q34 -140 182 -198q162 -64 337 -50q20 0 39 -3q112 -12 219 26q16 6 48 15t45 13q84 28 127 105q15 31 41 71q16 24 18 55q6 59 11 167.5t8 148.5q3 37 5 140.5t9 159.5q7 52 -1 112q-5 34 -6 70t-0.5 84.5t0.5 69.5q0 12 1 18q3 14 17 19q11 3 20 3h21
q7 0 21 0.5t21 0.5q14 1 43 -1q9 0 15 -6q2 -2 6 -10z" />
    <glyph glyph-name="U" unicode="&#xd9;" horiz-adv-x="2273" 
d="M1848 1453q2 -9 3 -21q5 -42 4 -73t-1 -158t-6 -158q2 -193 -8 -326q-4 -48 -10 -145t-10 -146q-8 -99 -66 -180q-67 -101 -176 -153q-82 -43 -178 -73q-113 -29 -230 -24q-204 2 -396 60q-31 10 -64 29t-53 33.5t-55 42.5q-17 13 -31.5 29.5t-25 30t-22 35t-17.5 34
t-15.5 39t-12.5 36.5t-12.5 40t-11.5 38q-8 25 -14 52.5t-10 49t-7 54t-4.5 49.5t-2 54.5t-0.5 50v54.5v51q0 148 11 379q1 27 2 57t2 66.5t2 56.5q1 28 7.5 35t34.5 10q32 4 72 4q21 0 30 -8.5t10 -29.5q3 -49 -1 -92q-6 -40 -6 -82q0 -63 -8.5 -287t0.5 -288
q5 -125 29 -236q34 -140 182 -198q162 -64 337 -50q20 0 39 -3q112 -12 219 26q16 6 48 15t45 13q84 28 127 105q15 31 41 71q16 24 18 55q6 59 11 167.5t8 148.5q3 37 5 140.5t9 159.5q7 52 -1 112q-5 34 -6 70t-0.5 84.5t0.5 69.5q0 12 1 18q3 14 17 19q11 3 20 3h21
q7 0 21 0.5t21 0.5q14 1 43 -1q9 0 15 -6q2 -2 6 -10z" />
    <glyph glyph-name="V" unicode="V" horiz-adv-x="2179" 
d="M1255 0q-29 0 -52 -4q-34 9 -72 10t-91.5 -2.5t-74.5 -3.5q-35 -2 -65 14.5t-46 47.5q-19 30 -45 89t-35 76q-14 31 -33 64q-16 24 -34 72t-24 61q-21 45 -54.5 136t-52.5 134q-25 55 -68.5 160.5t-63.5 151.5q-23 54 -39 115q-13 44 -31 81q-18 35 -40.5 103.5
t-28.5 82.5q-6 16 4 33q15 26 41.5 39.5t55.5 9.5q78 -4 96 -83q4 -18 15 -51.5t13 -41.5q6 -28 23 -53q6 -7 11.5 -15.5t9.5 -15.5t8.5 -18t6.5 -16.5t6 -18.5t5 -17.5t5 -19t5 -17.5q4 -16 18.5 -62.5t20.5 -72.5q2 -11 8 -22t15 -24.5t13 -21.5q14 -26 29.5 -77t25.5 -73
q23 -50 89 -236q5 -16 24 -50t24 -55q13 -54 68.5 -138.5t62.5 -98.5q8 -16 47.5 -30t56.5 -7q11 5 69 22q42 14 59 72q27 90 63 168q20 43 55.5 131.5t55.5 132.5q23 49 65 151q56 130 87 194q49 99 89 199q8 25 40.5 89t37.5 103q6 38 21 49t53 6q105 -2 71 -73
q-8 -17 -30.5 -61t-32.5 -69q-9 -23 -28 -65.5t-33.5 -78.5t-23.5 -68q-11 -38 -29 -66q-57 -101 -95 -221q-4 -11 -15 -31t-15 -30q-14 -34 -64.5 -141.5t-69.5 -169.5q-10 -33 -38.5 -111.5t-40.5 -122.5q-15 -48 -43 -103q-8 -20 -26 -31t-39 -10z" />
    <glyph glyph-name="W" unicode="W" horiz-adv-x="2822" 
d="M2031 -13q-13 -1 -91 -1q-29 -6 -87.5 4.5t-71.5 11.5q-59 4 -96 80q-10 20 -17.5 44.5t-11 41.5t-8.5 47t-8 44q-7 34 -46 247q-5 28 -25 124.5t-28 149.5q-7 50 -25 108q-9 29 -16 62t-13.5 74.5t-10.5 62.5q-16 76 -37 140q-2 8 -10 22q-10 17 -22 1q-18 -26 -24 -57
q-2 -10 -10.5 -51t-11.5 -63q-18 -113 -60 -219q-18 -64 -28 -137q-7 -32 -18 -92.5t-21 -109t-21 -91.5q-45 -176 -69 -321q-1 -7 -2.5 -19.5t-2.5 -18.5q-4 -35 -20.5 -50t-52.5 -17q-58 -3 -111 7q-52 9 -106 12q-122 8 -146 124q-11 54 -29.5 111t-45.5 129.5t-39 107.5
q-11 33 -62 223q-5 19 -13 56.5t-16 66.5t-20 54q-47 100 -70 200q-12 49 -44.5 152t-45.5 158q-13 61 44 74q44 11 81 -12q39 -24 48 -66q21 -60 27 -122q3 -26 13 -47q17 -43 51.5 -145t56.5 -154q21 -50 44.5 -152t42.5 -149q8 -21 26 -77.5t33 -85.5q22 -50 34 -90
q28 -83 76 -203q10 -23 32.5 -34t46.5 -5q14 3 21 18q11 16 16 40q0 42 9 86t26 100t23 82q5 19 20 83.5t24 99.5q36 136 52 205q7 29 33 110t32 127q5 45 31 201q13 65 33 126q8 25 30 39.5t48 13.5q128 -12 130 -12q20 1 36 -11t21 -32q21 -57 37 -130q44 -285 63 -367
q6 -27 40.5 -200.5t61.5 -262.5q32 -114 52 -240q4 -20 8 -32.5t16 -24t30 -15.5q29 -7 57 2.5t47 32.5q32 41 47 89q3 7 9 24t10 26q23 45 39.5 96t33.5 121t26 100q6 20 18 59.5t18 59.5q5 17 29 105.5t43 134.5q11 26 18.5 57t15 71t12.5 60q15 60 62 242q8 30 19.5 38
t45.5 10q61 2 75.5 -14t3.5 -78q-8 -50 -25 -93q-12 -30 -30 -93.5t-31 -94.5q-16 -37 -32.5 -110t-27.5 -104q-11 -30 -73 -230q-12 -35 -18 -75q-3 -26 -11 -52.5t-21 -62t-18 -50.5q-6 -18 -29.5 -80t-34 -104t-12.5 -85q-2 -44 -45 -126q-19 -32 -57 -30z" />
    <glyph glyph-name="X" unicode="X" horiz-adv-x="2123" 
d="M463 1473q18 1 36 0q49 17 101 -44q32 -37 87 -109.5t79 -101.5q22 -27 68.5 -82t68.5 -83q45 -55 107 -138q26 -38 74 -40q112 -5 167 75q20 29 64 76t59 66q26 33 78.5 99.5t78.5 99.5q50 57 79 122q10 28 35 42.5t54 9.5q9 -1 33.5 -0.5t34.5 0.5q22 -1 29.5 -15
t-2.5 -33q-16 -30 -35 -52q-45 -52 -260 -322q-78 -105 -168 -201q-4 -4 -10 -12t-8 -11q-14 -15 -15 -34.5t11 -36.5q22 -41 48 -74q90 -115 171 -242q29 -45 90 -123t84 -111q74 -106 92 -132q29 -44 -21 -47q-48 -3 -87 -2q-46 0 -78 35q-65 71 -115 144q-24 37 -119 172
q-33 50 -71 98q-27 31 -67 94t-57 86q-39 52 -115.5 59t-118.5 -36q-42 -42 -79 -93q-80 -114 -137 -189q-75 -102 -145 -226q-42 -63 -80 -135q-18 -34 -55 -36q-60 -6 -115 10q-45 13 -22 52q56 96 114 182q85 126 163 231q26 35 77 99.5t73 93.5q26 34 72 104
q16 25 14.5 55.5t-20.5 54.5q-40 59 -120.5 162t-102.5 133q-73 102 -163 200q-37 39 -40 60q-2 13 4 25q6 13 18.5 17t33.5 3.5t28 0.5z" />
    <glyph glyph-name="Y" unicode="Y" horiz-adv-x="1945" 
d="M898 233h6q-18 281 -18 284q-5 56 -61 126q-12 15 -60 73t-68 84t-52.5 73.5t-55.5 89.5q-66 111 -128 192q-24 32 -39 62q-32 65 -81 117q-35 35 -56 80q-14 36 16 37q109 8 163 -6q23 -10 32 -30q12 -19 35.5 -52.5t41 -62t29.5 -56.5q5 -12 12.5 -24t14 -20t17.5 -21
t16 -19q13 -16 37.5 -55t41.5 -57q27 -30 42 -66q10 -24 42.5 -61t37.5 -44q11 -16 44.5 -53.5t47.5 -61.5t35 -9q22 12 34 28q21 37 70 95.5t66 83.5q11 16 50.5 65.5t56.5 81.5q9 18 36.5 46.5t37.5 44.5q12 19 52.5 78.5t60.5 93.5q32 45 64 81q34 46 105 24
q61 -19 31 -77q-32 -64 -79 -125q-26 -32 -77 -108q-9 -14 -69 -89q-21 -27 -59.5 -84t-59.5 -84q-71 -89 -139 -197q-10 -15 -43.5 -59.5t-47.5 -73.5q-36 -79 -34 -164q-3 -153 11 -354q3 -38 -5.5 -48.5t-44.5 -13.5q-22 -2 -34 -2q-33 -2 -55 22q-23 25 -20 55v160z" />
    <glyph glyph-name="Y" unicode="&#x178;" horiz-adv-x="1945" 
d="M898 233h6q-18 281 -18 284q-5 56 -61 126q-12 15 -60 73t-68 84t-52.5 73.5t-55.5 89.5q-66 111 -128 192q-24 32 -39 62q-32 65 -81 117q-35 35 -56 80q-14 36 16 37q109 8 163 -6q23 -10 32 -30q12 -19 35.5 -52.5t41 -62t29.5 -56.5q5 -12 12.5 -24t14 -20t17.5 -21
t16 -19q13 -16 37.5 -55t41.5 -57q27 -30 42 -66q10 -24 42.5 -61t37.5 -44q11 -16 44.5 -53.5t47.5 -61.5t35 -9q22 12 34 28q21 37 70 95.5t66 83.5q11 16 50.5 65.5t56.5 81.5q9 18 36.5 46.5t37.5 44.5q12 19 52.5 78.5t60.5 93.5q32 45 64 81q34 46 105 24
q61 -19 31 -77q-32 -64 -79 -125q-26 -32 -77 -108q-9 -14 -69 -89q-21 -27 -59.5 -84t-59.5 -84q-71 -89 -139 -197q-10 -15 -43.5 -59.5t-47.5 -73.5q-36 -79 -34 -164q-3 -153 11 -354q3 -38 -5.5 -48.5t-44.5 -13.5q-22 -2 -34 -2q-33 -2 -55 22q-23 25 -20 55v160z" />
    <glyph glyph-name="Y" unicode="&#xdd;" horiz-adv-x="1945" 
d="M898 233h6q-18 281 -18 284q-5 56 -61 126q-12 15 -60 73t-68 84t-52.5 73.5t-55.5 89.5q-66 111 -128 192q-24 32 -39 62q-32 65 -81 117q-35 35 -56 80q-14 36 16 37q109 8 163 -6q23 -10 32 -30q12 -19 35.5 -52.5t41 -62t29.5 -56.5q5 -12 12.5 -24t14 -20t17.5 -21
t16 -19q13 -16 37.5 -55t41.5 -57q27 -30 42 -66q10 -24 42.5 -61t37.5 -44q11 -16 44.5 -53.5t47.5 -61.5t35 -9q22 12 34 28q21 37 70 95.5t66 83.5q11 16 50.5 65.5t56.5 81.5q9 18 36.5 46.5t37.5 44.5q12 19 52.5 78.5t60.5 93.5q32 45 64 81q34 46 105 24
q61 -19 31 -77q-32 -64 -79 -125q-26 -32 -77 -108q-9 -14 -69 -89q-21 -27 -59.5 -84t-59.5 -84q-71 -89 -139 -197q-10 -15 -43.5 -59.5t-47.5 -73.5q-36 -79 -34 -164q-3 -153 11 -354q3 -38 -5.5 -48.5t-44.5 -13.5q-22 -2 -34 -2q-33 -2 -55 22q-23 25 -20 55v160z" />
    <glyph glyph-name="Z" unicode="Z" horiz-adv-x="1970" 
d="M1411 0h-126q-183 3 -625 -8q-20 0 -76.5 -5t-87.5 -3q-74 3 -105.5 29t-42.5 109q-17 134 95 228q150 124 220 194q10 9 36.5 26.5t36.5 30.5q34 42 108.5 104t97.5 85q58 58 151 140q30 27 89 70t78 58q44 36 128 114q42 40 32 97q-3 39 -37 36h-29t-29 -1
q-30 -4 -228 -14q-14 -1 -29 0q-37 8 -76 8.5t-94.5 -4t-75.5 -5.5q-112 -4 -169 -3q-44 1 -124 -4.5t-113 -5.5q-30 -1 -37 4.5t-16 35.5q-7 20 -15 64q-5 26 7.5 43.5t37.5 19.5q20 2 59 2h48q139 5 415 31q28 3 53 -1q67 -11 198 -9t198 -7q57 -7 102 0q103 11 130 -95
q14 -67 7 -130q-5 -60 -50 -99q-59 -56 -176 -157q-88 -73 -151 -140q-42 -46 -131.5 -115.5t-114.5 -92.5q-25 -22 -75.5 -65.5t-75.5 -66.5q-21 -18 -63 -61.5t-66 -64.5q-10 -9 -46.5 -46.5t-61.5 -53.5t-35 -70q-5 -16 4 -29t25 -15q16 -4 38 -2q292 26 731 30l213 9
q31 1 37 -5t8 -39q1 -11 3.5 -44t3.5 -51q2 -28 -5.5 -37t-34.5 -11q-55 -4 -169 -8z" />
    <glyph glyph-name="bracketleft" unicode="[" horiz-adv-x="1372" 
d="M963 -58q3 -46 -9.5 -60.5t-56.5 -13.5q-114 -3 -227 12q-80 13 -161 96q-26 30 -27 67q-6 67 -16 350q-2 35 -0.5 132.5t1.5 132.5q0 19 2 52t1.5 58.5t-5.5 45.5q10 141 9.5 359.5t0.5 353.5q2 89 42.5 139.5t126.5 72.5q88 20 174 17q15 0 45 1t45 0q28 -1 39 -12.5
t12 -40.5q0 -4 -0.5 -11t-0.5 -10q-2 -41 -14.5 -52.5t-52.5 -10.5q-11 0 -39 1.5t-42.5 1.5t-37.5 -0.5t-42.5 -3t-38.5 -7.5q-4 -1 -11.5 -2.5t-13.5 -3t-11 -3.5q-34 -10 -43.5 -23t-11.5 -48q-3 -80 -5.5 -227.5t-3.5 -201.5q-4 -117 3.5 -340.5t7.5 -253.5
q3 -247 2 -270q-1 -59 8 -122q4 -38 24 -57t62 -28q104 -18 206 -11q36 2 45.5 -6.5t12.5 -45.5v-14t1 -13z" />
    <glyph glyph-name="backslash" unicode="\" horiz-adv-x="1558" 
d="M1172 -48q18 -33 12 -43.5t-45 -12.5h-23q-13 -2 -23 -2.5t-18 0t-13 0.5t-10 4t-7.5 4.5t-5.5 7.5t-4 9t-4.5 12.5l-4.5 13.5q-6 16 -48 140q-42 125 -131 336q-22 52 -63.5 157t-63.5 157q-25 61 -68.5 177t-50.5 135q-22 58 -65 166t-52 130q-108 274 -116 295
q-13 34 -3 47.5t46 14.5q3 0 8 0.5t8 0.5q38 1 49.5 -6.5t25.5 -42.5q62 -162 92 -243q20 -56 87.5 -242.5t99.5 -273.5t88 -230.5t105 -259.5q12 -29 46 -107t56.5 -133t41.5 -108q19 -44 54 -103z" />
    <glyph glyph-name="bracketright" unicode="]" horiz-adv-x="1366" 
d="M892 1110q7 -237 9 -711q0 -52 -1.5 -107t-6 -130.5t-5.5 -106.5q-3 -65 -54 -105q-70 -67 -166 -75q-130 -8 -196 -8q-45 0 -58.5 16.5t-8.5 62.5q6 56 16 65t68 9q88 -3 169 10q56 12 77.5 34.5t23.5 77.5q1 48 4 292v90h4q1 45 4 135t4 135q3 154 2.5 235t-3.5 235
t-3 235q0 63 -15 81t-77 32q-91 16 -190 8q-3 0 -17.5 -1.5t-20.5 -1t-15 5t-15 13.5q-18 31 -6 98q4 24 38 22q20 -1 84.5 -0.5t107 -3t83.5 -14.5q85 -22 123 -71.5t40 -138.5q1 -58 0 -209t1 -209z" />
    <glyph glyph-name="asciicircum" unicode="^" horiz-adv-x="1658" 
d="M1286 1142q24 -26 23 -34t-28 -31q-18 -16 -25 -21q-20 -16 -30 -15.5t-28 18.5q-34 34 -87.5 103.5t-70.5 89.5q-27 32 -200 240q-31 -35 -92 -102t-97.5 -107.5t-84.5 -100.5t-84 -114q-9 -13 -20 -26q-6 -8 -17 -10q-12 -2 -20 6q-1 1 -4 3q-14 11 -32.5 22.5
t-24.5 16.5t-12 14t-0.5 19.5t15.5 26t32 41.5q107 129 358 399q34 33 82 31t79 -37q21 -25 70.5 -85t76.5 -92.5t68.5 -81.5t78.5 -91t74 -82z" />
    <glyph glyph-name="underscore" unicode="_" horiz-adv-x="2048" 
d="M1580 -111q1 -49 -7 -56.5t-57 -6.5q-90 2 -270.5 5.5t-270.5 5.5l-93 3l-93 3q-127 6 -248 -10q-35 -5 -46.5 3t-21.5 42q-4 18 -6 37q-1 31 10.5 42.5t42.5 10.5q18 0 38.5 -1t45 -2.5t38.5 -2.5v3q109 0 122 1q125 9 265 -1q141 -9 493 -15q42 -1 49.5 -9t8.5 -52z
" />
    <glyph glyph-name="a" unicode="a" horiz-adv-x="1902" 
d="M1486 228q-4 -85 4 -186q2 -23 -2.5 -27.5t-28.5 -6.5q-42 -2 -63 -1q-28 1 -36.5 9t-9.5 35v99q-87 -56 -179 -85q-75 -28 -157 -45q-122 -22 -250 -16q-85 5 -155 48q-110 64 -153 114q-66 75 -79 170.5t39 181.5q60 94 184 155q151 75 380 66q106 0 193 -15
q66 -10 128 -39q25 -14 42 16q17 33 4 69q-16 53 -55 85t-99 53q-129 46 -310 36q-172 -10 -248 -36q-124 -40 -128 -42q-65 -26 -87.5 -15.5t-37.5 76.5q-10 43 2.5 65t56.5 33q190 52 390 63q4 0 193 6q182 5 333 -97q137 -90 137 -232q0 -378 -8 -537zM1264 246
q42 33 62.5 82.5t15.5 102.5q-5 68 -60 109q-68 51 -148 66q-96 17 -206 17q-164 7 -310 -110q-42 -35 -57 -88t2 -106q12 -33 67 -79q55 -48 116 -73.5t109 -25.5q159 6 309 51q54 16 100 54z" />
    <glyph glyph-name="a" unicode="&#xe5;" horiz-adv-x="1902" 
d="M1486 228q-4 -85 4 -186q2 -23 -2.5 -27.5t-28.5 -6.5q-42 -2 -63 -1q-28 1 -36.5 9t-9.5 35v99q-87 -56 -179 -85q-75 -28 -157 -45q-122 -22 -250 -16q-85 5 -155 48q-110 64 -153 114q-66 75 -79 170.5t39 181.5q60 94 184 155q151 75 380 66q106 0 193 -15
q66 -10 128 -39q25 -14 42 16q17 33 4 69q-16 53 -55 85t-99 53q-129 46 -310 36q-172 -10 -248 -36q-124 -40 -128 -42q-65 -26 -87.5 -15.5t-37.5 76.5q-10 43 2.5 65t56.5 33q190 52 390 63q4 0 193 6q182 5 333 -97q137 -90 137 -232q0 -378 -8 -537zM1264 246
q42 33 62.5 82.5t15.5 102.5q-5 68 -60 109q-68 51 -148 66q-96 17 -206 17q-164 7 -310 -110q-42 -35 -57 -88t2 -106q12 -33 67 -79q55 -48 116 -73.5t109 -25.5q159 6 309 51q54 16 100 54z" />
    <glyph glyph-name="a" unicode="&#xe4;" horiz-adv-x="1902" 
d="M1486 228q-4 -85 4 -186q2 -23 -2.5 -27.5t-28.5 -6.5q-42 -2 -63 -1q-28 1 -36.5 9t-9.5 35v99q-87 -56 -179 -85q-75 -28 -157 -45q-122 -22 -250 -16q-85 5 -155 48q-110 64 -153 114q-66 75 -79 170.5t39 181.5q60 94 184 155q151 75 380 66q106 0 193 -15
q66 -10 128 -39q25 -14 42 16q17 33 4 69q-16 53 -55 85t-99 53q-129 46 -310 36q-172 -10 -248 -36q-124 -40 -128 -42q-65 -26 -87.5 -15.5t-37.5 76.5q-10 43 2.5 65t56.5 33q190 52 390 63q4 0 193 6q182 5 333 -97q137 -90 137 -232q0 -378 -8 -537zM1264 246
q42 33 62.5 82.5t15.5 102.5q-5 68 -60 109q-68 51 -148 66q-96 17 -206 17q-164 7 -310 -110q-42 -35 -57 -88t2 -106q12 -33 67 -79q55 -48 116 -73.5t109 -25.5q159 6 309 51q54 16 100 54z" />
    <glyph glyph-name="a" unicode="&#xe3;" horiz-adv-x="1902" 
d="M1486 228q-4 -85 4 -186q2 -23 -2.5 -27.5t-28.5 -6.5q-42 -2 -63 -1q-28 1 -36.5 9t-9.5 35v99q-87 -56 -179 -85q-75 -28 -157 -45q-122 -22 -250 -16q-85 5 -155 48q-110 64 -153 114q-66 75 -79 170.5t39 181.5q60 94 184 155q151 75 380 66q106 0 193 -15
q66 -10 128 -39q25 -14 42 16q17 33 4 69q-16 53 -55 85t-99 53q-129 46 -310 36q-172 -10 -248 -36q-124 -40 -128 -42q-65 -26 -87.5 -15.5t-37.5 76.5q-10 43 2.5 65t56.5 33q190 52 390 63q4 0 193 6q182 5 333 -97q137 -90 137 -232q0 -378 -8 -537zM1264 246
q42 33 62.5 82.5t15.5 102.5q-5 68 -60 109q-68 51 -148 66q-96 17 -206 17q-164 7 -310 -110q-42 -35 -57 -88t2 -106q12 -33 67 -79q55 -48 116 -73.5t109 -25.5q159 6 309 51q54 16 100 54z" />
    <glyph glyph-name="a" unicode="&#xe2;" horiz-adv-x="1902" 
d="M1486 228q-4 -85 4 -186q2 -23 -2.5 -27.5t-28.5 -6.5q-42 -2 -63 -1q-28 1 -36.5 9t-9.5 35v99q-87 -56 -179 -85q-75 -28 -157 -45q-122 -22 -250 -16q-85 5 -155 48q-110 64 -153 114q-66 75 -79 170.5t39 181.5q60 94 184 155q151 75 380 66q106 0 193 -15
q66 -10 128 -39q25 -14 42 16q17 33 4 69q-16 53 -55 85t-99 53q-129 46 -310 36q-172 -10 -248 -36q-124 -40 -128 -42q-65 -26 -87.5 -15.5t-37.5 76.5q-10 43 2.5 65t56.5 33q190 52 390 63q4 0 193 6q182 5 333 -97q137 -90 137 -232q0 -378 -8 -537zM1264 246
q42 33 62.5 82.5t15.5 102.5q-5 68 -60 109q-68 51 -148 66q-96 17 -206 17q-164 7 -310 -110q-42 -35 -57 -88t2 -106q12 -33 67 -79q55 -48 116 -73.5t109 -25.5q159 6 309 51q54 16 100 54z" />
    <glyph glyph-name="a" unicode="&#xe1;" horiz-adv-x="1902" 
d="M1486 228q-4 -85 4 -186q2 -23 -2.5 -27.5t-28.5 -6.5q-42 -2 -63 -1q-28 1 -36.5 9t-9.5 35v99q-87 -56 -179 -85q-75 -28 -157 -45q-122 -22 -250 -16q-85 5 -155 48q-110 64 -153 114q-66 75 -79 170.5t39 181.5q60 94 184 155q151 75 380 66q106 0 193 -15
q66 -10 128 -39q25 -14 42 16q17 33 4 69q-16 53 -55 85t-99 53q-129 46 -310 36q-172 -10 -248 -36q-124 -40 -128 -42q-65 -26 -87.5 -15.5t-37.5 76.5q-10 43 2.5 65t56.5 33q190 52 390 63q4 0 193 6q182 5 333 -97q137 -90 137 -232q0 -378 -8 -537zM1264 246
q42 33 62.5 82.5t15.5 102.5q-5 68 -60 109q-68 51 -148 66q-96 17 -206 17q-164 7 -310 -110q-42 -35 -57 -88t2 -106q12 -33 67 -79q55 -48 116 -73.5t109 -25.5q159 6 309 51q54 16 100 54z" />
    <glyph glyph-name="a" unicode="&#xe0;" horiz-adv-x="1902" 
d="M1486 228q-4 -85 4 -186q2 -23 -2.5 -27.5t-28.5 -6.5q-42 -2 -63 -1q-28 1 -36.5 9t-9.5 35v99q-87 -56 -179 -85q-75 -28 -157 -45q-122 -22 -250 -16q-85 5 -155 48q-110 64 -153 114q-66 75 -79 170.5t39 181.5q60 94 184 155q151 75 380 66q106 0 193 -15
q66 -10 128 -39q25 -14 42 16q17 33 4 69q-16 53 -55 85t-99 53q-129 46 -310 36q-172 -10 -248 -36q-124 -40 -128 -42q-65 -26 -87.5 -15.5t-37.5 76.5q-10 43 2.5 65t56.5 33q190 52 390 63q4 0 193 6q182 5 333 -97q137 -90 137 -232q0 -378 -8 -537zM1264 246
q42 33 62.5 82.5t15.5 102.5q-5 68 -60 109q-68 51 -148 66q-96 17 -206 17q-164 7 -310 -110q-42 -35 -57 -88t2 -106q12 -33 67 -79q55 -48 116 -73.5t109 -25.5q159 6 309 51q54 16 100 54z" />
    <glyph glyph-name="b" unicode="b" horiz-adv-x="2058" 
d="M1691 584q17 -164 -59 -307q-37 -72 -97.5 -124t-137.5 -78q-15 -5 -66.5 -26t-81.5 -28q-167 -38 -332 -7q-129 23 -241 87q-26 12 -46 34q-12 16 -24 10q-10 -5 -10 -25q0 -25 0.5 -46.5t-12.5 -38.5t-42 -21q-2 0 -7 -1t-8 -1q-60 -7 -82.5 13t-24.5 78q-6 259 5 657
q0 21 2.5 90.5t3 102.5t-0.5 87t-4 98q-1 45 7 102q2 21 11.5 30t31.5 10q32 2 63 0q28 -1 40.5 -12.5t14.5 -38.5q1 -19 -2 -42q-4 -41 -2.5 -115.5t-0.5 -123.5q74 47 158 81q136 57 286 63q166 4 232 -6q172 -23 285 -156q4 -4 26 -29t29.5 -35t20.5 -30t21 -38
q22 -53 33 -112q4 -21 11 -102zM1496 380q75 99 47 220q-13 64 -51 124q-50 81 -123 141q-22 18 -51.5 31t-52 18.5t-60.5 13.5q-143 27 -284 -1q-96 -15 -181 -60q-91 -50 -125.5 -112t-35.5 -166q1 -12 3.5 -47t4.5 -51.5t7 -47.5t12 -50t18 -43t27.5 -42t37.5 -32
q66 -39 129 -61q25 -11 53.5 -17t65 -11t55.5 -9q100 -21 263 21q132 35 241 181z" />
    <glyph glyph-name="c" unicode="c" horiz-adv-x="2027" 
d="M720 874q-139 -71 -182 -168q-42 -104 -27 -217q2 -15 5 -32t7 -38t6 -32q0 -8 4 -13q11 -11 34 -39.5t42.5 -48t42.5 -33.5q248 -148 608 -71q137 27 247 161q18 26 27 55q4 13 15 20.5t25 5.5q7 -1 34 1t40.5 -4.5t9.5 -27.5q-48 -243 -261 -324q-13 -5 -45 -19
t-56 -22.5t-48 -12.5q-104 -19 -215 -16q-129 -6 -251 22q-80 24 -154 65q-9 4 -18 9.5t-16.5 9.5t-17 11t-15 11t-16.5 12.5t-14.5 11.5t-15.5 13.5t-14 12.5t-15 13.5t-14 12.5q-6 5 -11.5 11t-10.5 14t-8 13t-8 15t-6.5 13.5t-7 16t-6.5 14.5q-61 128 -55 270
q8 91 40 173q66 183 268 273q148 68 311 77q195 7 330 -58l36 -15t35 -15q163 -74 264 -225q10 -17 17 -35.5t9.5 -38.5t-9 -34t-36.5 -16h-17h-17q-42 -3 -57 29q-7 16 -19.5 29t-33.5 29t-27 22q-52 47 -83 72t-84 53t-106 36q-137 22 -270 1q-99 -10 -190 -53z" />
    <glyph glyph-name="c" unicode="&#xe7;" horiz-adv-x="2027" 
d="M720 874q-139 -71 -182 -168q-42 -104 -27 -217q2 -15 5 -32t7 -38t6 -32q0 -8 4 -13q11 -11 34 -39.5t42.5 -48t42.5 -33.5q248 -148 608 -71q137 27 247 161q18 26 27 55q4 13 15 20.5t25 5.5q7 -1 34 1t40.5 -4.5t9.5 -27.5q-48 -243 -261 -324q-13 -5 -45 -19
t-56 -22.5t-48 -12.5q-104 -19 -215 -16q-129 -6 -251 22q-80 24 -154 65q-9 4 -18 9.5t-16.5 9.5t-17 11t-15 11t-16.5 12.5t-14.5 11.5t-15.5 13.5t-14 12.5t-15 13.5t-14 12.5q-6 5 -11.5 11t-10.5 14t-8 13t-8 15t-6.5 13.5t-7 16t-6.5 14.5q-61 128 -55 270
q8 91 40 173q66 183 268 273q148 68 311 77q195 7 330 -58l36 -15t35 -15q163 -74 264 -225q10 -17 17 -35.5t9.5 -38.5t-9 -34t-36.5 -16h-17h-17q-42 -3 -57 29q-7 16 -19.5 29t-33.5 29t-27 22q-52 47 -83 72t-84 53t-106 36q-137 22 -270 1q-99 -10 -190 -53z" />
    <glyph glyph-name="d" unicode="d" horiz-adv-x="2056" 
d="M1644 169q5 -45 1 -81q-3 -38 -19 -51.5t-55 -14.5q-56 -2 -73 34q-6 15 -6 32q0 22 -4 62q-4 27 -16 32t-35 -10q-50 -37 -95 -63q-36 -20 -76.5 -32.5t-99 -25t-81.5 -18.5q-122 -23 -246 -6q-147 19 -228 72q-76 47 -136 119q-78 96 -105 216q-10 60 -10 108
q-9 128 34 243q57 146 221 226q148 78 314 81q201 2 322 -52q78 -33 150 -91q6 -4 13 -8q5 -3 15.5 -10.5t15.5 -10.5t16 -6t16 2q10 5 12.5 14t0 26t-2.5 21q0 34 -8 209q-2 26 -1 38q2 31 11.5 40.5t40.5 13.5q20 3 39 3q68 -1 67 -67q-1 -109 1 -490v-337q-3 -113 7 -218
zM1465 402q18 60 18 122q-2 136 -61 224q-52 80 -136 124q-197 98 -457 59q-47 -6 -94 -23q-63 -27 -110 -66q-130 -93 -126 -215q0 -7 -2 -20t-2 -18q-6 -77 15 -150q21 -71 71 -127q67 -75 130 -95q79 -25 155 -37q293 -46 514 110q63 40 85 112z" />
    <glyph glyph-name="e" unicode="e" horiz-adv-x="1959" 
d="M1529 383q56 -6 62.5 -16t-14.5 -60q-11 -27 -31.5 -54.5t-37 -44.5t-46.5 -45q-100 -94 -231 -132q-209 -66 -449 -4q-6 2 -29 8.5t-31 9t-29 9t-31 10.5t-28 11t-29.5 13.5t-26.5 15t-27.5 18t-24.5 20.5q-15 13 -33 34q-159 194 -123 468q19 143 134 263
q175 183 408 186q221 4 337 -29q130 -37 189 -107q3 -2 9.5 -7t9.5 -8q142 -126 119 -321q-9 -83 -105 -91q-11 -1 -68 -1h-68q-375 16 -430 16q-52 1 -157 3t-158 2q-28 0 -38.5 -10.5t-12.5 -38.5q-3 -45 17 -93q24 -63 52.5 -107t74.5 -73q36 -21 84 -34q78 -28 166 -28
q31 1 84.5 1h84.5q107 2 202 43q108 47 137 125q15 39 28.5 46t59.5 2zM565 722q-2 -27 17 -29q17 -2 56.5 -10t62.5 -10q92 -7 388 -9q7 0 119.5 -1t149.5 5q13 1 34 5q25 7 41.5 24t12.5 33q-8 43 -33 77q-41 47 -99 73q-115 55 -243 53q-116 -2 -174 -8
q-68 -7 -100.5 -12t-84 -24t-88.5 -52q-53 -45 -59 -115z" />
    <glyph glyph-name="e" unicode="&#xeb;" horiz-adv-x="1959" 
d="M1529 383q56 -6 62.5 -16t-14.5 -60q-11 -27 -31.5 -54.5t-37 -44.5t-46.5 -45q-100 -94 -231 -132q-209 -66 -449 -4q-6 2 -29 8.5t-31 9t-29 9t-31 10.5t-28 11t-29.5 13.5t-26.5 15t-27.5 18t-24.5 20.5q-15 13 -33 34q-159 194 -123 468q19 143 134 263
q175 183 408 186q221 4 337 -29q130 -37 189 -107q3 -2 9.5 -7t9.5 -8q142 -126 119 -321q-9 -83 -105 -91q-11 -1 -68 -1h-68q-375 16 -430 16q-52 1 -157 3t-158 2q-28 0 -38.5 -10.5t-12.5 -38.5q-3 -45 17 -93q24 -63 52.5 -107t74.5 -73q36 -21 84 -34q78 -28 166 -28
q31 1 84.5 1h84.5q107 2 202 43q108 47 137 125q15 39 28.5 46t59.5 2zM565 722q-2 -27 17 -29q17 -2 56.5 -10t62.5 -10q92 -7 388 -9q7 0 119.5 -1t149.5 5q13 1 34 5q25 7 41.5 24t12.5 33q-8 43 -33 77q-41 47 -99 73q-115 55 -243 53q-116 -2 -174 -8
q-68 -7 -100.5 -12t-84 -24t-88.5 -52q-53 -45 -59 -115z" />
    <glyph glyph-name="e" unicode="&#xea;" horiz-adv-x="1959" 
d="M1529 383q56 -6 62.5 -16t-14.5 -60q-11 -27 -31.5 -54.5t-37 -44.5t-46.5 -45q-100 -94 -231 -132q-209 -66 -449 -4q-6 2 -29 8.5t-31 9t-29 9t-31 10.5t-28 11t-29.5 13.5t-26.5 15t-27.5 18t-24.5 20.5q-15 13 -33 34q-159 194 -123 468q19 143 134 263
q175 183 408 186q221 4 337 -29q130 -37 189 -107q3 -2 9.5 -7t9.5 -8q142 -126 119 -321q-9 -83 -105 -91q-11 -1 -68 -1h-68q-375 16 -430 16q-52 1 -157 3t-158 2q-28 0 -38.5 -10.5t-12.5 -38.5q-3 -45 17 -93q24 -63 52.5 -107t74.5 -73q36 -21 84 -34q78 -28 166 -28
q31 1 84.5 1h84.5q107 2 202 43q108 47 137 125q15 39 28.5 46t59.5 2zM565 722q-2 -27 17 -29q17 -2 56.5 -10t62.5 -10q92 -7 388 -9q7 0 119.5 -1t149.5 5q13 1 34 5q25 7 41.5 24t12.5 33q-8 43 -33 77q-41 47 -99 73q-115 55 -243 53q-116 -2 -174 -8
q-68 -7 -100.5 -12t-84 -24t-88.5 -52q-53 -45 -59 -115z" />
    <glyph glyph-name="e" unicode="&#xe9;" horiz-adv-x="1959" 
d="M1529 383q56 -6 62.5 -16t-14.5 -60q-11 -27 -31.5 -54.5t-37 -44.5t-46.5 -45q-100 -94 -231 -132q-209 -66 -449 -4q-6 2 -29 8.5t-31 9t-29 9t-31 10.5t-28 11t-29.5 13.5t-26.5 15t-27.5 18t-24.5 20.5q-15 13 -33 34q-159 194 -123 468q19 143 134 263
q175 183 408 186q221 4 337 -29q130 -37 189 -107q3 -2 9.5 -7t9.5 -8q142 -126 119 -321q-9 -83 -105 -91q-11 -1 -68 -1h-68q-375 16 -430 16q-52 1 -157 3t-158 2q-28 0 -38.5 -10.5t-12.5 -38.5q-3 -45 17 -93q24 -63 52.5 -107t74.5 -73q36 -21 84 -34q78 -28 166 -28
q31 1 84.5 1h84.5q107 2 202 43q108 47 137 125q15 39 28.5 46t59.5 2zM565 722q-2 -27 17 -29q17 -2 56.5 -10t62.5 -10q92 -7 388 -9q7 0 119.5 -1t149.5 5q13 1 34 5q25 7 41.5 24t12.5 33q-8 43 -33 77q-41 47 -99 73q-115 55 -243 53q-116 -2 -174 -8
q-68 -7 -100.5 -12t-84 -24t-88.5 -52q-53 -45 -59 -115z" />
    <glyph glyph-name="e" unicode="&#xe8;" horiz-adv-x="1959" 
d="M1529 383q56 -6 62.5 -16t-14.5 -60q-11 -27 -31.5 -54.5t-37 -44.5t-46.5 -45q-100 -94 -231 -132q-209 -66 -449 -4q-6 2 -29 8.5t-31 9t-29 9t-31 10.5t-28 11t-29.5 13.5t-26.5 15t-27.5 18t-24.5 20.5q-15 13 -33 34q-159 194 -123 468q19 143 134 263
q175 183 408 186q221 4 337 -29q130 -37 189 -107q3 -2 9.5 -7t9.5 -8q142 -126 119 -321q-9 -83 -105 -91q-11 -1 -68 -1h-68q-375 16 -430 16q-52 1 -157 3t-158 2q-28 0 -38.5 -10.5t-12.5 -38.5q-3 -45 17 -93q24 -63 52.5 -107t74.5 -73q36 -21 84 -34q78 -28 166 -28
q31 1 84.5 1h84.5q107 2 202 43q108 47 137 125q15 39 28.5 46t59.5 2zM565 722q-2 -27 17 -29q17 -2 56.5 -10t62.5 -10q92 -7 388 -9q7 0 119.5 -1t149.5 5q13 1 34 5q25 7 41.5 24t12.5 33q-8 43 -33 77q-41 47 -99 73q-115 55 -243 53q-116 -2 -174 -8
q-68 -7 -100.5 -12t-84 -24t-88.5 -52q-53 -45 -59 -115z" />
    <glyph glyph-name="f" unicode="f" horiz-adv-x="1595" 
d="M727 1176q-23 -13 -33.5 -36.5t-3.5 -49.5q7 -28 22 -38.5t50 -9.5q43 1 148.5 1t182 1.5t148.5 6.5q45 3 52.5 -5t7.5 -55v-25q-2 -28 -11 -38.5t-35 -9.5q-28 1 -80.5 0t-95 0t-80.5 6q-30 4 -66 5t-60.5 0.5t-68 -2.5t-61.5 -3q-31 -1 -45 -16t-18 -49
q-29 -250 -18 -648q1 -24 4.5 -68t4.5 -62q2 -46 -14.5 -61t-62.5 -10q-50 6 -65 22.5t-15 66.5v397h-1v402q0 30 -6 36.5t-37 12.5q-75 11 -145 8q-25 1 -31 6.5t-5 29.5q1 11 1.5 31.5t1 25.5t4 15.5t7.5 11t14.5 3.5t23 1.5t34.5 -4.5q65 -6 130 0q16 -2 27 8q10 9 12 25
q25 123 118 181q74 45 156 61q218 41 433 2q37 -3 48.5 -26t7.5 -62q-3 -38 -14.5 -48.5t-47.5 -6.5q-24 3 -49 4.5t-52 2t-48 1t-52 -1t-48 -2t-52 -3t-48 -3.5l-52 -4t-49 -4q-36 -3 -68 -23z" />
    <glyph glyph-name="g" unicode="g" horiz-adv-x="2064" 
d="M1637 822q0 -74 1 -209.5t1.5 -246t0.5 -209.5q1 -77 -33 -146.5t-95 -116.5q-55 -46 -126 -69q-126 -38 -256 -44q-195 -12 -338 -7q-119 3 -240 29q-97 22 -60 112q12 28 25 36t41 1q35 -8 71 -14.5t77.5 -10t70 -5.5t77.5 -2.5t70.5 -0.5t77.5 0.5t72 0.5
q125 0 321 80q52 21 83.5 84t23.5 125q-10 1 -18 -2t-19 -11t-13 -9q-152 -94 -331 -121q-180 -30 -361 2q-79 18 -147 58q-150 77 -210 232q-56 139 -39 291q11 225 239 370q52 35 118.5 52.5t115 20.5t128.5 2q158 -3 300 -68q9 -4 32 -11t35 -14q48 -22 89 -56
q18 -16 34 -27q22 -14 33 -8t9 29q-4 38 -2 91q1 26 8.5 34t34.5 10h16.5t17.5 1q42 5 53 -4.5t12 -51.5q1 -29 1 -62t-0.5 -73t-0.5 -62zM1468 402q48 77 33 208q-1 8 -2 25.5t-2.5 27.5t-6 24t-12.5 25q-39 55 -94 94q-105 70 -225 106q-193 60 -396 12q-46 -12 -85 -43
q-89 -74 -139 -180q-66 -132 -6 -253q60 -129 182 -189q8 -4 34.5 -19.5t45.5 -23t39 -8.5q70 -4 103 -6q15 1 41 1t47 1t40 4q68 6 128 22q74 18 143 56q47 29 78.5 55t53.5 61z" />
    <glyph glyph-name="h" unicode="h" horiz-adv-x="2035" 
d="M1638 618q0 -90 0.5 -270t0.5 -270q0 -43 -9 -52t-51 -10q-19 0 -27.5 -0.5t-20 1t-15 2t-8.5 7t-6 9.5t-1.5 15.5t0 20t1.5 28.5q5 105 2 236q-1 21 -1.5 70t-1.5 76.5t-5 68t-10 74.5q-30 163 -181 253q-78 48 -225 40q-168 -5 -318 -56q-37 -13 -69 -43
q-41 -44 -60 -65q-18 -21 -23 -52q-14 -83 -17 -181q-2 -57 -4 -122t-4.5 -144t-3.5 -122q-1 -25 -5 -73q0 -14 -12 -26t-27 -10q-23 0 -34 -2q-51 -9 -70 7.5t-23 73.5q-9 164 10 339q8 107 7 191q-2 268 3 447q6 209 6 211q1 30 11 40.5t41 13.5q44 2 81 -11q30 -9 27 -43
q-3 -37 -4.5 -81.5t-1.5 -76.5t0.5 -83.5t0.5 -77.5q0 -4 3 -28q20 16 43.5 30t41.5 23t47 19.5t43 15t48 15t44 13.5q286 90 556 -61q221 -123 221 -380z" />
    <glyph glyph-name="i" unicode="i" horiz-adv-x="1177" 
d="M683 1077q45 -4 68 -32.5t22 -75.5q-1 -28 -8 -160q-7 -109 -11.5 -319t-5.5 -233q-1 -35 -0.5 -64t-1 -64.5t-6.5 -64.5q-6 -36 -17.5 -45.5t-45.5 -5.5q-43 4 -57 21.5t-13 63.5q1 89 16.5 331t10.5 375q0 13 -2 39t-2 39q2 14 -7 24q-10 12 -23 12q-76 14 -101 10
q-21 -3 -69.5 -3.5t-74.5 -7.5q-23 -6 -42.5 12.5t-19.5 43.5q0 42 2 63q4 37 15 47.5t49 10.5h131q32 -3 96.5 -8.5t96.5 -8.5zM502 1237q-58 36 -60 108q-2 69 57 110q13 10 25 12.5t41 2.5q51 3 75 -40q9 -15 25 -35q59 -69 -19 -150q-22 -23 -68 -25.5t-76 17.5z" />
    <glyph glyph-name="i" unicode="&#xef;" horiz-adv-x="1177" 
d="M683 1077q45 -4 68 -32.5t22 -75.5q-1 -28 -8 -160q-7 -109 -11.5 -319t-5.5 -233q-1 -35 -0.5 -64t-1 -64.5t-6.5 -64.5q-6 -36 -17.5 -45.5t-45.5 -5.5q-43 4 -57 21.5t-13 63.5q1 89 16.5 331t10.5 375q0 13 -2 39t-2 39q2 14 -7 24q-10 12 -23 12q-76 14 -101 10
q-21 -3 -69.5 -3.5t-74.5 -7.5q-23 -6 -42.5 12.5t-19.5 43.5q0 42 2 63q4 37 15 47.5t49 10.5h131q32 -3 96.5 -8.5t96.5 -8.5zM502 1237q-58 36 -60 108q-2 69 57 110q13 10 25 12.5t41 2.5q51 3 75 -40q9 -15 25 -35q59 -69 -19 -150q-22 -23 -68 -25.5t-76 17.5z" />
    <glyph glyph-name="i" unicode="&#xee;" horiz-adv-x="1177" 
d="M683 1077q45 -4 68 -32.5t22 -75.5q-1 -28 -8 -160q-7 -109 -11.5 -319t-5.5 -233q-1 -35 -0.5 -64t-1 -64.5t-6.5 -64.5q-6 -36 -17.5 -45.5t-45.5 -5.5q-43 4 -57 21.5t-13 63.5q1 89 16.5 331t10.5 375q0 13 -2 39t-2 39q2 14 -7 24q-10 12 -23 12q-76 14 -101 10
q-21 -3 -69.5 -3.5t-74.5 -7.5q-23 -6 -42.5 12.5t-19.5 43.5q0 42 2 63q4 37 15 47.5t49 10.5h131q32 -3 96.5 -8.5t96.5 -8.5zM502 1237q-58 36 -60 108q-2 69 57 110q13 10 25 12.5t41 2.5q51 3 75 -40q9 -15 25 -35q59 -69 -19 -150q-22 -23 -68 -25.5t-76 17.5z" />
    <glyph glyph-name="i" unicode="&#xed;" horiz-adv-x="1177" 
d="M683 1077q45 -4 68 -32.5t22 -75.5q-1 -28 -8 -160q-7 -109 -11.5 -319t-5.5 -233q-1 -35 -0.5 -64t-1 -64.5t-6.5 -64.5q-6 -36 -17.5 -45.5t-45.5 -5.5q-43 4 -57 21.5t-13 63.5q1 89 16.5 331t10.5 375q0 13 -2 39t-2 39q2 14 -7 24q-10 12 -23 12q-76 14 -101 10
q-21 -3 -69.5 -3.5t-74.5 -7.5q-23 -6 -42.5 12.5t-19.5 43.5q0 42 2 63q4 37 15 47.5t49 10.5h131q32 -3 96.5 -8.5t96.5 -8.5zM502 1237q-58 36 -60 108q-2 69 57 110q13 10 25 12.5t41 2.5q51 3 75 -40q9 -15 25 -35q59 -69 -19 -150q-22 -23 -68 -25.5t-76 17.5z" />
    <glyph glyph-name="i" unicode="&#xec;" horiz-adv-x="1177" 
d="M683 1077q45 -4 68 -32.5t22 -75.5q-1 -28 -8 -160q-7 -109 -11.5 -319t-5.5 -233q-1 -35 -0.5 -64t-1 -64.5t-6.5 -64.5q-6 -36 -17.5 -45.5t-45.5 -5.5q-43 4 -57 21.5t-13 63.5q1 89 16.5 331t10.5 375q0 13 -2 39t-2 39q2 14 -7 24q-10 12 -23 12q-76 14 -101 10
q-21 -3 -69.5 -3.5t-74.5 -7.5q-23 -6 -42.5 12.5t-19.5 43.5q0 42 2 63q4 37 15 47.5t49 10.5h131q32 -3 96.5 -8.5t96.5 -8.5zM502 1237q-58 36 -60 108q-2 69 57 110q13 10 25 12.5t41 2.5q51 3 75 -40q9 -15 25 -35q59 -69 -19 -150q-22 -23 -68 -25.5t-76 17.5z" />
    <glyph glyph-name="j" unicode="j" horiz-adv-x="1316" 
d="M888 528q7 -219 7 -281q2 -122 -9 -242q-20 -199 -209 -220q-180 -20 -355 27q-28 7 -38.5 22.5t-8.5 45.5q2 39 7 68q4 20 12.5 24t27.5 -5q136 -54 285 -60q45 -3 83 27.5t54 73.5q24 63 26 195q2 177 -1 227q-4 63 -6 212t-9 229q0 6 -1.5 16t-1.5 12q-5 23 -14.5 31
t-31.5 8q-36 0 -103 2.5t-103.5 3t-103.5 -3.5q-12 -1 -31.5 -1h-31.5q-13 -1 -22.5 7t-11.5 21q-9 37 -1 77q2 16 14 28t28 13q64 9 130 6q140 -1 281 -6q12 0 51 2t51 -1q20 -2 27.5 -11t7.5 -29q-1 -76 -1 -227v-291h2zM567 1217q-70 31 -79 91t49 112q19 17 31 26.5
t32.5 17t41.5 5.5q24 0 40 -15q3 -3 10 -10.5t10 -10.5t9.5 -10.5t8.5 -10.5t8 -11.5t7 -12t5.5 -12t3.5 -13t1 -14t-1 -14.5q0 -70 -56 -107q-58 -39 -121 -11z" />
    <glyph glyph-name="k" unicode="k" horiz-adv-x="1953" 
d="M1646 73q13 -14 5 -31q-8 -18 -26 -18q-3 -1 -10 -1q-88 -11 -99 -9q-19 3 -47 30q-33 32 -44 42q-40 37 -113.5 111t-84.5 85q-121 119 -216 199q-8 5 -14 12q-48 73 -166 69q-66 -2 -198 -8q-24 -2 -38 -5q-14 -2 -22.5 -13t-7.5 -24q-14 -202 1 -377q0 -8 5 -23.5
t5 -23.5q4 -57 -28 -72q-54 -26 -91 5q-16 15 -18 37q-8 37 -10 113.5t-7 116.5v631q0 53 -1 158t-1 157q0 48 11.5 59t61.5 12q2 0 9 1t10 0q31 -2 42 -14t12 -44q2 -118 -9 -237q-8 -120 1 -232q2 -34 14 -45t46 -12q86 -2 155 1q25 1 53 11.5t42 19t46 28.5
q29 18 128.5 83.5t155.5 98.5q66 43 125 98q17 19 47 22q27 0 81.5 2t82.5 3q10 0 19 -3q11 -3 16.5 -9t4 -14t-10.5 -15q-41 -32 -71 -50q-231 -154 -260 -173q-11 -8 -32.5 -23t-35 -24.5t-33.5 -20.5t-39 -17q-9 -5 -16 -10q-39 -24 -43 -44.5t24 -54.5
q104 -126 220 -234q37 -34 120.5 -108.5t126.5 -114.5q17 -18 60.5 -49.5t61.5 -51.5z" />
    <glyph glyph-name="l" unicode="l" horiz-adv-x="995" 
d="M572 320q0 -25 4 -108.5t1 -128.5q0 -3 -0.5 -13t-1.5 -15t-3 -12t-7 -11t-12 -7q-64 -22 -99 -5q-30 17 -27 53q0 14 -0.5 58t-1.5 68q-12 241 -9 483q0 91 8 288.5t6 302.5q-1 29 7.5 38t39.5 12q11 1 33 5q32 5 47 -6.5t16 -43.5q3 -71 3 -140q-2 -544 -4 -818z" />
    <glyph glyph-name="m" unicode="m" horiz-adv-x="2906" 
d="M2473 788q43 -127 40 -314q-4 -204 -1 -349q0 -17 -2 -49q0 -24 -23 -34q-34 -16 -71 -8q-16 3 -26 16t-8 30q-2 93 -1 140q4 163 1 349q-5 212 -167 330q-65 42 -140 51q-187 34 -351 -56q-142 -77 -165 -255q-28 -203 -14 -575q1 -26 -6 -34.5t-33 -14.5q-8 -2 -24 -4
q-36 -4 -51.5 8.5t-15.5 48.5q0 1 6 256q0 4 0.5 13t0.5 14q-1 38 0.5 103t0.5 120t-8 104q-9 63 -38 119q-11 24 -33 42t-41 26.5t-48 18.5q-156 57 -319 43q-158 -17 -287 -115q-95 -67 -108 -181q-8 -67 -11.5 -146.5t-3 -134.5t3 -150.5t2.5 -138.5q-2 -25 -10.5 -33.5
t-34.5 -10.5q-52 -4 -60 34q-11 67 -10 125q0 30 -1 123t0 156t4 123q4 91 -2 310q-1 31 2.5 87t3.5 77q1 26 8.5 34t29.5 11q29 4 43 -3.5t21 -30.5q4 -13 5 -28t0.5 -34.5t-0.5 -28.5q1 -44 9.5 -49.5t45.5 16.5q112 70 236 107q169 55 344 15q59 -11 118 -38
q73 -36 186 -143q19 -18 24.5 -18t21.5 19q18 22 38 37q20 13 62.5 50.5t69.5 52.5q133 75 330 80q175 5 314 -106q103 -81 143 -207z" />
    <glyph glyph-name="n" unicode="n" horiz-adv-x="2013" 
d="M1619 78v-9.5v-9.5v-9.5t-1 -9t-2.5 -8t-4 -6.5t-6.5 -4.5t-9 -2.5t-11 0l-63 6q-12 0 -21 11q-8 10 -7 22q-2 41 1 73q8 49 5 188.5t-1 188.5q2 44 -5 77q-19 115 -32 166q-28 106 -150 136q-269 64 -487 -4q-109 -37 -192 -110q-33 -27 -49 -103q-7 -37 -12 -77
q-33 -232 -39 -467q0 -14 1 -42t1 -41q0 -26 -8 -34t-34 -9h-19q-33 2 -43 12t-11 43q-2 86 -4 262v29q0 33 3 109.5t3 117.5q0 71 -2.5 213t-2.5 213q0 88 84 62q21 -7 28 -28.5t7 -57.5t1 -44q5 -62 56 -31q24 14 43 32q17 17 42.5 31.5t38.5 20t49 20.5q230 96 470 52
q144 -27 231 -81q42 -26 66 -69q60 -102 66 -224q2 -38 7 -145t7.5 -162t4.5 -140.5t1 -156.5z" />
    <glyph glyph-name="n" unicode="&#xf1;" horiz-adv-x="2013" 
d="M1619 78v-9.5v-9.5v-9.5t-1 -9t-2.5 -8t-4 -6.5t-6.5 -4.5t-9 -2.5t-11 0l-63 6q-12 0 -21 11q-8 10 -7 22q-2 41 1 73q8 49 5 188.5t-1 188.5q2 44 -5 77q-19 115 -32 166q-28 106 -150 136q-269 64 -487 -4q-109 -37 -192 -110q-33 -27 -49 -103q-7 -37 -12 -77
q-33 -232 -39 -467q0 -14 1 -42t1 -41q0 -26 -8 -34t-34 -9h-19q-33 2 -43 12t-11 43q-2 86 -4 262v29q0 33 3 109.5t3 117.5q0 71 -2.5 213t-2.5 213q0 88 84 62q21 -7 28 -28.5t7 -57.5t1 -44q5 -62 56 -31q24 14 43 32q17 17 42.5 31.5t38.5 20t49 20.5q230 96 470 52
q144 -27 231 -81q42 -26 66 -69q60 -102 66 -224q2 -38 7 -145t7.5 -162t4.5 -140.5t1 -156.5z" />
    <glyph glyph-name="o" unicode="o" horiz-adv-x="2062" 
d="M1698 608q14 -169 -34 -286q-49 -119 -181 -201q-108 -68 -290 -100q-10 -2 -38 -7t-38 -6.5t-37.5 -5t-36.5 -2.5t-36 1q-101 -7 -257 41q-34 7 -70 18q-126 57 -213 159t-97 229q-15 104 0 207q16 101 67 180q4 6 10 18.5t10 18.5q38 60 149 119q80 43 165 67
q271 76 517 13q142 -35 244 -139q43 -42 84 -92q76 -103 82 -232zM1581 501q9 226 -129 337q-45 37 -95 54q-53 18 -108 24q-7 1 -32.5 4t-35.5 4t-32 3t-35.5 2t-32 -0.5t-34.5 -2.5q-21 -3 -69.5 -7t-74.5 -8q-155 -21 -251 -76q-165 -94 -164 -284q0 -28 12 -77.5
t14 -69.5q7 -48 40 -85q37 -48 89.5 -75t127.5 -51q152 -43 303 -37q11 1 42 2.5t50.5 3t49 5.5t53.5 9q53 15 100 44q97 51 152.5 117t59.5 164z" />
    <glyph glyph-name="o" unicode="&#xf8;" horiz-adv-x="2062" 
d="M1698 608q14 -169 -34 -286q-49 -119 -181 -201q-108 -68 -290 -100q-10 -2 -38 -7t-38 -6.5t-37.5 -5t-36.5 -2.5t-36 1q-101 -7 -257 41q-34 7 -70 18q-126 57 -213 159t-97 229q-15 104 0 207q16 101 67 180q4 6 10 18.5t10 18.5q38 60 149 119q80 43 165 67
q271 76 517 13q142 -35 244 -139q43 -42 84 -92q76 -103 82 -232zM1581 501q9 226 -129 337q-45 37 -95 54q-53 18 -108 24q-7 1 -32.5 4t-35.5 4t-32 3t-35.5 2t-32 -0.5t-34.5 -2.5q-21 -3 -69.5 -7t-74.5 -8q-155 -21 -251 -76q-165 -94 -164 -284q0 -28 12 -77.5
t14 -69.5q7 -48 40 -85q37 -48 89.5 -75t127.5 -51q152 -43 303 -37q11 1 42 2.5t50.5 3t49 5.5t53.5 9q53 15 100 44q97 51 152.5 117t59.5 164z" />
    <glyph glyph-name="o" unicode="&#xf6;" horiz-adv-x="2062" 
d="M1698 608q14 -169 -34 -286q-49 -119 -181 -201q-108 -68 -290 -100q-10 -2 -38 -7t-38 -6.5t-37.5 -5t-36.5 -2.5t-36 1q-101 -7 -257 41q-34 7 -70 18q-126 57 -213 159t-97 229q-15 104 0 207q16 101 67 180q4 6 10 18.5t10 18.5q38 60 149 119q80 43 165 67
q271 76 517 13q142 -35 244 -139q43 -42 84 -92q76 -103 82 -232zM1581 501q9 226 -129 337q-45 37 -95 54q-53 18 -108 24q-7 1 -32.5 4t-35.5 4t-32 3t-35.5 2t-32 -0.5t-34.5 -2.5q-21 -3 -69.5 -7t-74.5 -8q-155 -21 -251 -76q-165 -94 -164 -284q0 -28 12 -77.5
t14 -69.5q7 -48 40 -85q37 -48 89.5 -75t127.5 -51q152 -43 303 -37q11 1 42 2.5t50.5 3t49 5.5t53.5 9q53 15 100 44q97 51 152.5 117t59.5 164z" />
    <glyph glyph-name="o" unicode="&#xf5;" horiz-adv-x="2062" 
d="M1698 608q14 -169 -34 -286q-49 -119 -181 -201q-108 -68 -290 -100q-10 -2 -38 -7t-38 -6.5t-37.5 -5t-36.5 -2.5t-36 1q-101 -7 -257 41q-34 7 -70 18q-126 57 -213 159t-97 229q-15 104 0 207q16 101 67 180q4 6 10 18.5t10 18.5q38 60 149 119q80 43 165 67
q271 76 517 13q142 -35 244 -139q43 -42 84 -92q76 -103 82 -232zM1581 501q9 226 -129 337q-45 37 -95 54q-53 18 -108 24q-7 1 -32.5 4t-35.5 4t-32 3t-35.5 2t-32 -0.5t-34.5 -2.5q-21 -3 -69.5 -7t-74.5 -8q-155 -21 -251 -76q-165 -94 -164 -284q0 -28 12 -77.5
t14 -69.5q7 -48 40 -85q37 -48 89.5 -75t127.5 -51q152 -43 303 -37q11 1 42 2.5t50.5 3t49 5.5t53.5 9q53 15 100 44q97 51 152.5 117t59.5 164z" />
    <glyph glyph-name="o" unicode="&#xf4;" horiz-adv-x="2062" 
d="M1698 608q14 -169 -34 -286q-49 -119 -181 -201q-108 -68 -290 -100q-10 -2 -38 -7t-38 -6.5t-37.5 -5t-36.5 -2.5t-36 1q-101 -7 -257 41q-34 7 -70 18q-126 57 -213 159t-97 229q-15 104 0 207q16 101 67 180q4 6 10 18.5t10 18.5q38 60 149 119q80 43 165 67
q271 76 517 13q142 -35 244 -139q43 -42 84 -92q76 -103 82 -232zM1581 501q9 226 -129 337q-45 37 -95 54q-53 18 -108 24q-7 1 -32.5 4t-35.5 4t-32 3t-35.5 2t-32 -0.5t-34.5 -2.5q-21 -3 -69.5 -7t-74.5 -8q-155 -21 -251 -76q-165 -94 -164 -284q0 -28 12 -77.5
t14 -69.5q7 -48 40 -85q37 -48 89.5 -75t127.5 -51q152 -43 303 -37q11 1 42 2.5t50.5 3t49 5.5t53.5 9q53 15 100 44q97 51 152.5 117t59.5 164z" />
    <glyph glyph-name="o" unicode="&#xf3;" horiz-adv-x="2062" 
d="M1698 608q14 -169 -34 -286q-49 -119 -181 -201q-108 -68 -290 -100q-10 -2 -38 -7t-38 -6.5t-37.5 -5t-36.5 -2.5t-36 1q-101 -7 -257 41q-34 7 -70 18q-126 57 -213 159t-97 229q-15 104 0 207q16 101 67 180q4 6 10 18.5t10 18.5q38 60 149 119q80 43 165 67
q271 76 517 13q142 -35 244 -139q43 -42 84 -92q76 -103 82 -232zM1581 501q9 226 -129 337q-45 37 -95 54q-53 18 -108 24q-7 1 -32.5 4t-35.5 4t-32 3t-35.5 2t-32 -0.5t-34.5 -2.5q-21 -3 -69.5 -7t-74.5 -8q-155 -21 -251 -76q-165 -94 -164 -284q0 -28 12 -77.5
t14 -69.5q7 -48 40 -85q37 -48 89.5 -75t127.5 -51q152 -43 303 -37q11 1 42 2.5t50.5 3t49 5.5t53.5 9q53 15 100 44q97 51 152.5 117t59.5 164z" />
    <glyph glyph-name="o" unicode="&#xf2;" horiz-adv-x="2062" 
d="M1698 608q14 -169 -34 -286q-49 -119 -181 -201q-108 -68 -290 -100q-10 -2 -38 -7t-38 -6.5t-37.5 -5t-36.5 -2.5t-36 1q-101 -7 -257 41q-34 7 -70 18q-126 57 -213 159t-97 229q-15 104 0 207q16 101 67 180q4 6 10 18.5t10 18.5q38 60 149 119q80 43 165 67
q271 76 517 13q142 -35 244 -139q43 -42 84 -92q76 -103 82 -232zM1581 501q9 226 -129 337q-45 37 -95 54q-53 18 -108 24q-7 1 -32.5 4t-35.5 4t-32 3t-35.5 2t-32 -0.5t-34.5 -2.5q-21 -3 -69.5 -7t-74.5 -8q-155 -21 -251 -76q-165 -94 -164 -284q0 -28 12 -77.5
t14 -69.5q7 -48 40 -85q37 -48 89.5 -75t127.5 -51q152 -43 303 -37q11 1 42 2.5t50.5 3t49 5.5t53.5 9q53 15 100 44q97 51 152.5 117t59.5 164z" />
    <glyph glyph-name="p" unicode="p" horiz-adv-x="2043" 
d="M1675 592q9 -111 -20 -221q-41 -133 -82 -194q-64 -90 -169 -130q-188 -79 -392 -51q-54 7 -118.5 25t-101 31.5t-111.5 43.5q-17 7 -34 16.5t-41 25t-33 21.5q-19 12 -28.5 7.5t-10.5 -27.5q-1 -21 -1 -131q-7 -82 5 -168q1 -11 1.5 -24.5t-6 -24t-20.5 -9.5
q-10 3 -43.5 1.5t-43.5 -1.5q-17 -2 -26 11q-10 14 -6 28q6 46 8.5 132t5.5 119q1 12 5 52t5 58.5t1 49.5t-3 57q-2 37 -1 56.5t5.5 56t5.5 55.5q9 170 4 354q-1 33 5 114.5t2 126.5q-3 10 6 21q7 9 20 7h4q59 5 72 -7.5t11 -71.5v-73q0 -24 23 -13q7 4 19 14
q111 76 235 108q104 32 223 38q160 9 374 -79q116 -47 169 -130q77 -126 82 -274zM1483 330q96 164 20 377q-15 49 -52 86q-116 99 -265 117q-135 22 -280 3q-139 -17 -247 -98q-44 -33 -66 -87q-48 -114 -32 -280q8 -70 52 -123q39 -51 92.5 -81.5t129.5 -55.5
q24 -8 49 -14t56.5 -10t48.5 -5.5t58 -4.5t51 -4h58q228 12 327 180z" />
    <glyph glyph-name="q" unicode="q" horiz-adv-x="2050" 
d="M1631 1022q0 -28 -2 -84.5t-2 -84.5q-3 -822 -2 -897q1 -55 -4 -130q-3 -40 -34 -56.5t-68 2.5q-18 9 -20 46q-3 41 0 285q2 25 -1 44q-4 22 -15 26.5t-32 -6.5q-22 -12 -69 -41t-72 -42q-67 -35 -208 -59q-64 -10 -96 -13q-107 -11 -259 23q-35 8 -64 19
q-161 67 -252 217q-91 142 -65 329q6 69 26 138q33 102 91 169.5t155 104.5q213 85 445 46q247 -43 385 -142q16 -18 39 -11v128q1 27 8 35t33 11q8 1 24 1q34 -1 46.5 -13t12.5 -45zM1474 393q18 102 12 217q-9 135 -95 191q-65 45 -136 70q-231 79 -473 39
q-127 -23 -215 -119q-28 -28 -38 -61q-2 -9 -11 -40t-12 -43t-8 -39t-4.5 -44t4 -40t11.5 -44q6 -15 9 -32q8 -55 32 -97.5t62.5 -72.5t77 -49.5t92.5 -38.5q103 -36 215 -25q67 -1 135 6q116 23 218 77q109 54 124 145z" />
    <glyph glyph-name="r" unicode="r" horiz-adv-x="1511" 
d="M1217 1020q16 -45 -17 -81q-12 -15 -63 -17q-77 -5 -139 -20q-151 -29 -281 -113q-132 -90 -146 -221q-18 -172 -25 -309q-3 -96 13 -187q1 -3 2.5 -12.5t2 -13.5t1 -12t-1 -13t-5 -11t-9.5 -11q-13 -10 -29.5 -12t-27 -0.5t-31.5 6.5q-25 6 -32 33q-9 30 -10 52
q-14 347 0 580q2 39 8 114t9.5 134.5t2.5 113.5q-1 31 8.5 41.5t36.5 11.5q37 1 51 -9t16 -40l3 -120v-42q124 62 158 80q119 60 234 90q101 28 210 25q47 -2 61 -37z" />
    <glyph glyph-name="s" unicode="s" horiz-adv-x="1835" 
d="M1247 598q94 -20 154 -85.5t63 -165.5q2 -70 -30 -122t-92 -101q-122 -100 -304 -105q-9 0 -26 -2t-22 -2q-148 -12 -262 2.5t-216 75.5q-124 73 -146 227q-4 28 3.5 37t37.5 11q29 0 57 6q18 7 31 -2t15 -26q19 -95 99 -148q29 -21 61 -28q60 -18 124 -24
q205 -14 402 44q47 14 78 39t42 72q26 110 -74 164q-23 12 -51.5 21t-47 12t-55.5 8t-51 7q-39 6 -182 24t-220 34q-83 17 -158 58q-68 38 -89 117q-20 77 22 146q20 36 31 54q42 60 108 85q170 70 353 73q272 7 440 -140q95 -82 111 -170q5 -30 -2 -40t-36 -14
q-5 0 -14.5 -1t-14.5 -2q-29 -7 -43 21q-27 39 -56 73q-44 57 -142 97q-144 60 -342 35q-122 -18 -233 -72q-62 -28 -56 -76q11 -74 69 -97q85 -29 159 -39q331 -55 396 -63q71 -10 109 -18z" />
    <glyph glyph-name="t" unicode="t" horiz-adv-x="1660" 
d="M1324 151q0 -1 0.5 -2t0.5 -2q-1 -70 -8 -84q-11 -20 -60 -31q-8 -2 -20 -4q-130 -27 -263 -36q-89 -9 -173 10q-158 41 -196 173q-22 76 -24 157q0 49 -5.5 260.5t-3.5 325.5q1 23 -4 27.5t-29 3.5t-70.5 -3.5t-69.5 -3.5q-22 -2 -34 -2q-44 0 -65 37q-21 38 1 74
q18 27 50 25q21 1 189 4q27 0 32.5 5.5t7.5 32.5q1 20 1 60.5t1 60.5q1 23 8 30t30 9q8 1 18 1.5t22 1t18 0.5q20 1 27.5 -6t8.5 -27q1 -19 -3 -54.5t-4 -41.5q-2 -23 -2.5 -30.5t1 -19t1.5 -13t7.5 -5.5t10.5 -3t18.5 1h24.5h228v-4q170 -8 256 -11q33 -2 42 -10t13 -39
q4 -26 5 -44q2 -32 -8.5 -44t-42.5 -13q-44 -1 -92 5q-40 5 -82 7t-102 3t-82 2q-114 4 -170 7q-16 1 -23 -4t-7 -21q-4 -32 -4 -73q6 -35 2.5 -133.5t-1.5 -132.5q1 -22 2 -69.5t3.5 -83t9.5 -68.5q25 -109 92 -153q47 -31 139 -37q124 -5 241 13q80 11 91 11q22 1 32 -8
t14 -31z" />
    <glyph glyph-name="u" unicode="u" horiz-adv-x="2060" 
d="M1588 1092q31 3 44 -8t13 -42q-1 -79 -5 -242q-9 -351 -9 -470q0 -53 -3.5 -151t-3.5 -120q2 -36 -33 -48q-35 -18 -70 4q-21 18 -16 43v39.5v46.5v41q-17 5 -29 -8q-136 -103 -301 -145q-204 -49 -355 -14q-9 2 -58 10.5t-74 17.5q-66 24 -116 66q-10 9 -31.5 25t-37 30
t-27.5 31q-54 80 -63 175q-28 213 -13 416q3 42 3.5 119.5t1.5 107.5q1 53 12 62.5t64 7.5q39 -1 48.5 -11.5t7.5 -49.5q-6 -164 -10 -251q-9 -168 20 -323q4 -20 11.5 -43.5t13.5 -38l18 -43.5t16 -39q9 -18 24 -30q95 -91 229 -103q80 -8 179 -8q82 0 194 55q11 6 31 17.5
t27 15.5q158 83 215 274q5 18 7 37.5t2.5 48.5t0.5 39q2 87 1.5 123t-4 122.5t-4.5 122.5q0 5 -1 17t-1 17q0 4 -7 13.5t-2 16.5q8 11 39 18q26 6 52 9z" />
    <glyph glyph-name="u" unicode="&#xfc;" horiz-adv-x="2060" 
d="M1588 1092q31 3 44 -8t13 -42q-1 -79 -5 -242q-9 -351 -9 -470q0 -53 -3.5 -151t-3.5 -120q2 -36 -33 -48q-35 -18 -70 4q-21 18 -16 43v39.5v46.5v41q-17 5 -29 -8q-136 -103 -301 -145q-204 -49 -355 -14q-9 2 -58 10.5t-74 17.5q-66 24 -116 66q-10 9 -31.5 25t-37 30
t-27.5 31q-54 80 -63 175q-28 213 -13 416q3 42 3.5 119.5t1.5 107.5q1 53 12 62.5t64 7.5q39 -1 48.5 -11.5t7.5 -49.5q-6 -164 -10 -251q-9 -168 20 -323q4 -20 11.5 -43.5t13.5 -38l18 -43.5t16 -39q9 -18 24 -30q95 -91 229 -103q80 -8 179 -8q82 0 194 55q11 6 31 17.5
t27 15.5q158 83 215 274q5 18 7 37.5t2.5 48.5t0.5 39q2 87 1.5 123t-4 122.5t-4.5 122.5q0 5 -1 17t-1 17q0 4 -7 13.5t-2 16.5q8 11 39 18q26 6 52 9z" />
    <glyph glyph-name="u" unicode="&#xfb;" horiz-adv-x="2060" 
d="M1588 1092q31 3 44 -8t13 -42q-1 -79 -5 -242q-9 -351 -9 -470q0 -53 -3.5 -151t-3.5 -120q2 -36 -33 -48q-35 -18 -70 4q-21 18 -16 43v39.5v46.5v41q-17 5 -29 -8q-136 -103 -301 -145q-204 -49 -355 -14q-9 2 -58 10.5t-74 17.5q-66 24 -116 66q-10 9 -31.5 25t-37 30
t-27.5 31q-54 80 -63 175q-28 213 -13 416q3 42 3.5 119.5t1.5 107.5q1 53 12 62.5t64 7.5q39 -1 48.5 -11.5t7.5 -49.5q-6 -164 -10 -251q-9 -168 20 -323q4 -20 11.5 -43.5t13.5 -38l18 -43.5t16 -39q9 -18 24 -30q95 -91 229 -103q80 -8 179 -8q82 0 194 55q11 6 31 17.5
t27 15.5q158 83 215 274q5 18 7 37.5t2.5 48.5t0.5 39q2 87 1.5 123t-4 122.5t-4.5 122.5q0 5 -1 17t-1 17q0 4 -7 13.5t-2 16.5q8 11 39 18q26 6 52 9z" />
    <glyph glyph-name="u" unicode="&#xfa;" horiz-adv-x="2060" 
d="M1588 1092q31 3 44 -8t13 -42q-1 -79 -5 -242q-9 -351 -9 -470q0 -53 -3.5 -151t-3.5 -120q2 -36 -33 -48q-35 -18 -70 4q-21 18 -16 43v39.5v46.5v41q-17 5 -29 -8q-136 -103 -301 -145q-204 -49 -355 -14q-9 2 -58 10.5t-74 17.5q-66 24 -116 66q-10 9 -31.5 25t-37 30
t-27.5 31q-54 80 -63 175q-28 213 -13 416q3 42 3.5 119.5t1.5 107.5q1 53 12 62.5t64 7.5q39 -1 48.5 -11.5t7.5 -49.5q-6 -164 -10 -251q-9 -168 20 -323q4 -20 11.5 -43.5t13.5 -38l18 -43.5t16 -39q9 -18 24 -30q95 -91 229 -103q80 -8 179 -8q82 0 194 55q11 6 31 17.5
t27 15.5q158 83 215 274q5 18 7 37.5t2.5 48.5t0.5 39q2 87 1.5 123t-4 122.5t-4.5 122.5q0 5 -1 17t-1 17q0 4 -7 13.5t-2 16.5q8 11 39 18q26 6 52 9z" />
    <glyph glyph-name="u" unicode="&#xf9;" horiz-adv-x="2060" 
d="M1588 1092q31 3 44 -8t13 -42q-1 -79 -5 -242q-9 -351 -9 -470q0 -53 -3.5 -151t-3.5 -120q2 -36 -33 -48q-35 -18 -70 4q-21 18 -16 43v39.5v46.5v41q-17 5 -29 -8q-136 -103 -301 -145q-204 -49 -355 -14q-9 2 -58 10.5t-74 17.5q-66 24 -116 66q-10 9 -31.5 25t-37 30
t-27.5 31q-54 80 -63 175q-28 213 -13 416q3 42 3.5 119.5t1.5 107.5q1 53 12 62.5t64 7.5q39 -1 48.5 -11.5t7.5 -49.5q-6 -164 -10 -251q-9 -168 20 -323q4 -20 11.5 -43.5t13.5 -38l18 -43.5t16 -39q9 -18 24 -30q95 -91 229 -103q80 -8 179 -8q82 0 194 55q11 6 31 17.5
t27 15.5q158 83 215 274q5 18 7 37.5t2.5 48.5t0.5 39q2 87 1.5 123t-4 122.5t-4.5 122.5q0 5 -1 17t-1 17q0 4 -7 13.5t-2 16.5q8 11 39 18q26 6 52 9z" />
    <glyph glyph-name="v" unicode="v" horiz-adv-x="1896" 
d="M1552 1078q30 -15 33.5 -24.5t-8.5 -41.5q-38 -98 -57 -164q-9 -30 -32 -83t-30 -74q-42 -116 -136 -313q-14 -30 -50.5 -120t-62.5 -136q-7 -13 -23 -47t-27 -51q-13 -26 -43 -24h-129h-60.5t-86.5 5q-49 6 -74 48q-45 70 -74 141q-11 26 -38 75t-38 75
q-18 44 -39.5 89.5t-53.5 109.5t-43 87q-20 40 -62.5 133t-66.5 142q-27 61 -43 118q-2 11 -3.5 20t4 14.5t10 9.5t14.5 6t17.5 3t19 1t19 -0.5t18 -1t15.5 -0.5q38 -4 58 -52q7 -19 20.5 -55.5t25.5 -65.5t24 -54q18 -36 52.5 -119.5t58.5 -125.5q28 -56 46 -106
q103 -236 140 -307q27 -51 59 -67.5t90 -7.5q65 9 102 76q20 36 61 122t68 130q13 21 31 64.5t25 58.5q20 41 40.5 91t33.5 83.5t36 96.5t32 87q5 13 40 134q8 25 20 32.5t36 0.5q18 -7 31 -13z" />
    <glyph glyph-name="w" unicode="w" horiz-adv-x="2451" 
d="M2119 1070q17 -5 13 -32q-3 -18 -23 -94q-15 -56 -46 -161t-44 -150q-9 -30 -24.5 -83t-28 -97t-22.5 -83q-25 -94 -67 -201q-24 -73 -52 -135q-7 -17 -23 -26.5t-34 -8.5q-136 -3 -264 25q-48 11 -60 80q-15 80 -41 164q-7 24 -24.5 91.5t-29.5 103.5q-13 38 -88 290
q-13 56 -38 110q-5 11 -16 16q-22 -18 -24 -46q-8 -36 -20 -76t-28 -88.5t-24 -75.5q-33 -107 -51 -216q-3 -19 -16.5 -54.5t-16.5 -55.5q-16 -87 -42 -164q-34 -107 -133 -103h-51h-51q-45 1 -69 20.5t-37 63.5q-6 21 -17 63t-21 75t-23 61q-23 50 -55 145t-48 134
q-19 46 -62 188q-37 115 -97 235q-12 25 -17 51q-3 15 6 27q10 13 25 13q41 5 82 3q27 0 37 -26q39 -89 81.5 -198t68.5 -180.5t74 -208.5t67 -189q7 -20 22.5 -59t22.5 -58q8 -24 32 -34q46 -21 60 26q19 60 29 112q8 51 27 97q9 20 16 41.5t13 46.5t10 41t10 46.5t9 43.5
q25 110 97 369q14 50 23 94q1 16 14 27q11 10 30 8q64 0 115 -8q52 -10 71 -59q18 -47 26 -98q5 -22 53 -210q20 -77 105 -356q36 -124 46 -152q15 -36 47.5 -56.5t70.5 -18.5q27 0 37 25q10 20 22.5 60.5t20.5 57.5q26 60 66 177t48 140q21 64 33 131q21 94 59 188
q13 28 15 66q0 28 11 56q2 4 5 17t8 20.5t15 10.5q42 15 85 1z" />
    <glyph glyph-name="x" unicode="x" horiz-adv-x="1855" 
d="M1536 50q7 -13 -5 -22q-26 -20 -58 -17.5t-55 26.5q-93 104 -172 214q-115 151 -196 243q-34 38 -91 42.5t-99 -26.5q-16 -12 -31 -25t-34 -33t-25.5 -27.5t-30.5 -35.5t-26 -30q-126 -140 -235 -305q-17 -32 -50 -46.5t-68 -7.5q-66 11 -36 68q13 25 30 44
q55 56 143 170.5t119 150.5q16 18 54 65t60 71q22 25 -1 49q-14 15 -106 116.5t-142 153.5q-6 6 -48 53t-68 68q-29 23 -23 43q2 6 7 9.5t9.5 4.5t13.5 1.5t12 0.5t11.5 1t16.5 2q29 3 63 -33q155 -161 220 -223q21 -19 60 -59.5t60 -59.5q75 -71 165 -10q39 27 100 89.5
t72 72.5q18 16 153 154q18 18 50 58q2 2 5 7t5 7.5t6 5.5t8 3q69 7 138 -14q22 -7 7 -33q-12 -20 -32 -36q-112 -91 -208 -199q-13 -15 -65.5 -68.5t-76.5 -87.5q-20 -22 -5 -47q39 -77 89 -144q119 -157 202 -269q10 -14 43 -49t47 -58q2 -4 8.5 -13t9.5 -15z" />
    <glyph glyph-name="y" unicode="y" horiz-adv-x="2009" 
d="M1585 803q8 -192 0 -624q0 -59 -7 -111q-8 -69 -48.5 -125t-103.5 -84q-194 -95 -444 -98q-161 -1 -328 23q-82 13 -151 34q-39 11 -47.5 25t-2.5 55q8 58 19.5 64.5t66.5 -15.5q186 -72 452 -56q74 3 139 13q173 32 261 94q80 56 85 133q6 45 6 92q-1 29 -28 13
q-22 -12 -32 -22q-16 -18 -38.5 -35t-40 -27t-46 -26t-42.5 -24q-12 -7 -26.5 -13t-25 -9.5t-30 -7.5t-27 -5t-31 -4.5t-27.5 -4.5q-193 -29 -380 18q-205 51 -255 224q-8 27 -19 49q-29 52 -37 159q-20 284 -11 426q2 32 10 96q3 23 11.5 31t31.5 10q25 2 44 -1
q40 -3 49.5 -14.5t4.5 -52.5q-5 -47 -7.5 -105.5t-2.5 -90t2 -110.5t2 -95q5 -127 53 -245q37 -91 159 -136q182 -71 370 -33q156 33 273 137q74 70 82 171q27 227 20 449q0 16 -1 48.5t-1 48.5q-1 23 3 27.5t28 7.5q12 2 19 2q29 0 39 -10t10 -39v-227z" />
    <glyph glyph-name="y" unicode="&#xff;" horiz-adv-x="2009" 
d="M1585 803q8 -192 0 -624q0 -59 -7 -111q-8 -69 -48.5 -125t-103.5 -84q-194 -95 -444 -98q-161 -1 -328 23q-82 13 -151 34q-39 11 -47.5 25t-2.5 55q8 58 19.5 64.5t66.5 -15.5q186 -72 452 -56q74 3 139 13q173 32 261 94q80 56 85 133q6 45 6 92q-1 29 -28 13
q-22 -12 -32 -22q-16 -18 -38.5 -35t-40 -27t-46 -26t-42.5 -24q-12 -7 -26.5 -13t-25 -9.5t-30 -7.5t-27 -5t-31 -4.5t-27.5 -4.5q-193 -29 -380 18q-205 51 -255 224q-8 27 -19 49q-29 52 -37 159q-20 284 -11 426q2 32 10 96q3 23 11.5 31t31.5 10q25 2 44 -1
q40 -3 49.5 -14.5t4.5 -52.5q-5 -47 -7.5 -105.5t-2.5 -90t2 -110.5t2 -95q5 -127 53 -245q37 -91 159 -136q182 -71 370 -33q156 33 273 137q74 70 82 171q27 227 20 449q0 16 -1 48.5t-1 48.5q-1 23 3 27.5t28 7.5q12 2 19 2q29 0 39 -10t10 -39v-227z" />
    <glyph glyph-name="y" unicode="&#xfd;" horiz-adv-x="2009" 
d="M1585 803q8 -192 0 -624q0 -59 -7 -111q-8 -69 -48.5 -125t-103.5 -84q-194 -95 -444 -98q-161 -1 -328 23q-82 13 -151 34q-39 11 -47.5 25t-2.5 55q8 58 19.5 64.5t66.5 -15.5q186 -72 452 -56q74 3 139 13q173 32 261 94q80 56 85 133q6 45 6 92q-1 29 -28 13
q-22 -12 -32 -22q-16 -18 -38.5 -35t-40 -27t-46 -26t-42.5 -24q-12 -7 -26.5 -13t-25 -9.5t-30 -7.5t-27 -5t-31 -4.5t-27.5 -4.5q-193 -29 -380 18q-205 51 -255 224q-8 27 -19 49q-29 52 -37 159q-20 284 -11 426q2 32 10 96q3 23 11.5 31t31.5 10q25 2 44 -1
q40 -3 49.5 -14.5t4.5 -52.5q-5 -47 -7.5 -105.5t-2.5 -90t2 -110.5t2 -95q5 -127 53 -245q37 -91 159 -136q182 -71 370 -33q156 33 273 137q74 70 82 171q27 227 20 449q0 16 -1 48.5t-1 48.5q-1 23 3 27.5t28 7.5q12 2 19 2q29 0 39 -10t10 -39v-227z" />
    <glyph glyph-name="z" unicode="z" horiz-adv-x="1757" 
d="M1427 111q0 -6 0.5 -17.5t0.5 -16.5q0 -36 -18.5 -54t-52.5 -14q-76 8 -168 12t-153 4t-173.5 -1t-158.5 -1q-148 2 -295 -12q-34 -4 -50 10t-20 49q-6 94 17 178q3 14 13.5 27.5t17.5 18.5t25 18q30 21 101 69.5t109 75.5q28 20 85 59.5t101.5 71t83.5 62.5
q134 101 270 175q28 15 90 56q1 0 5 3t4.5 3.5t4 3.5t3 4t1.5 5t-1 6q-4 12 -28 14q-6 1 -20 1q-61 0 -197 8.5t-209 5.5q-36 -1 -201 0t-201 -5q-30 -2 -41 8.5t-13 40.5q-2 49 12 65.5t62 21.5q99 10 198 3q48 -3 145 -1q146 4 436 -8q17 -1 60.5 -0.5t60.5 0.5
q27 -1 34.5 -8.5t9.5 -33.5q2 -39 4 -121q1 -29 -14 -54.5t-41 -39.5q-40 -24 -113.5 -74.5t-110.5 -73.5q-163 -100 -231 -149q-27 -19 -95.5 -66t-116.5 -83t-89 -76q-40 -34 -73 -55q-26 -14 -19 -40q4 -17 36 -19q32 -3 97 -3l561 -6q30 0 98 4t105 3q35 -1 43.5 -10
t8.5 -44z" />
    <glyph glyph-name="braceleft" unicode="{" horiz-adv-x="1196" 
d="M944 -51q40 5 45 0.5t-1 -41.5q-2 -6 -2 -10q-7 -53 -17 -62t-62 -8h-95q-92 0 -179 42q-112 54 -91 173q5 29 18 94t21 114t13 95q17 134 20 259q2 36 -18 66t-54 40q-31 15 -71 22q-37 4 -32 43q1 5 1 16q4 56 14 66t65 14q66 5 98 46t22 110q-19 133 -63 397
q-17 91 -11 179q2 42 27 76t65 47q23 9 46 12q129 11 244 4q38 -2 40 -26q0 -5 1.5 -15.5t1.5 -16.5t-0.5 -15t-3.5 -16t-8 -14q-6 -8 -30 -6q-13 1 -39.5 3.5t-39.5 3.5q-68 8 -132 -7q-86 -21 -85 -110q6 -133 39 -262q39 -173 43 -202q6 -42 3 -84q-1 -43 -24 -80
t-61 -59q-45 -27 -90 -37q15 -9 40.5 -23.5t36.5 -21.5q43 -25 67 -70t21 -95q-3 -166 -45 -325q-21 -90 -18 -194q-1 -32 16 -58t46 -38q86 -42 218 -26z" />
    <glyph glyph-name="verticalbar" unicode="|" horiz-adv-x="1095" 
d="M547 1609q66 -10 77 -22.5t10 -77.5q0 -11 -1 -32t-1 -31q-2 -105 -6 -315.5t-6 -315.5h-3q0 -97 0.5 -289t0.5 -289q0 -1 3 -148q1 -34 -8 -43t-44 -9q-80 1 -93.5 10.5t-12.5 67.5v25q0 343 1 514q0 26 10 154q7 80 7.5 172.5t-2 199.5t-1.5 173q3 97 -8 201
q-4 36 11 50t50 8q3 0 8.5 -1t7.5 -2z" />
    <glyph glyph-name="braceright" unicode="}" horiz-adv-x="1196" 
d="M751 837q0 -10 3 -28.5t3 -28.5t-6 -27q-8 -13 -36.5 -18t-34.5 -8q-6 -2 -17.5 -6.5t-17.5 -7.5q-31 -12 -48.5 -39t-16.5 -60q1 -120 19 -254q4 -36 10.5 -79t11 -70t15.5 -81.5t14 -72.5q24 -129 -100 -187q-12 -6 -24 -10.5t-26 -8t-23.5 -6t-26.5 -4.5t-24.5 -3
t-26.5 -2.5t-24.5 -2t-27 -1.5t-25.5 -1h-74q-13 -2 -23 5.5t-12 20.5q-7 42 -12 84q-1 9 5 14t15 4q7 -1 21 -4t21 -3q124 -12 207 29q28 11 44.5 36.5t15.5 55.5q5 102 -17 195q-37 147 -46 303q-9 146 127 212q17 4 31 20l-72 33q-94 48 -96 164q0 27 4 60.5t7 50t13 62
t12 52.5q2 11 10 46.5t11.5 49.5t9.5 45t8.5 50.5t5.5 45.5t4 50q2 65 -26 96.5t-93 36.5q-79 4 -170 -4q-29 -1 -38 6.5t-11 35.5q-2 41 10 53.5t53 13.5q59 1 175 -1q65 0 122 -30q58 -32 64 -97q11 -94 -7 -185q-11 -66 -32.5 -198.5t-32.5 -198.5q-8 -48 22 -118
q8 -19 25.5 -30.5t37.5 -11.5q37 -3 74 -3q36 1 36 -35v-5z" />
    <glyph glyph-name="asciitilde" unicode="~" horiz-adv-x="1404" 
d="M1079 793q10 -14 5 -30q-6 -65 -44.5 -118.5t-98.5 -78.5q-107 -49 -219 36q-25 19 -69 57q-62 54 -127.5 35.5t-95.5 -98.5q-1 -4 -2.5 -14.5t-5 -16.5t-12.5 -8q-38 -8 -72 7q-24 15 -17 42q3 32 20 60q92 156 211 152q62 -1 101 -13.5t66 -44.5q47 -48 108 -75
q25 -16 53.5 -11.5t47.5 26.5q33 33 49 74q10 25 47.5 32t54.5 -13z" />
    <glyph glyph-name="nonbreakingspace" unicode="&#xa0;" horiz-adv-x="780" 
 />
    <glyph glyph-name="sterling" unicode="&#xa3;" horiz-adv-x="2258" 
d="M801 1256q-1 -52 -2.5 -110.5t-3.5 -129.5t-3 -110q-1 -27 4.5 -32t34.5 -5q78 0 246.5 6t257.5 4q22 0 93 -0.5t109 -1.5q39 -1 47.5 -14t-4.5 -48q-14 -38 -27 -46.5t-55 -8.5h-653q-42 0 -48.5 -6.5t-8.5 -46.5q-5 -106 -7 -478q0 -7 0.5 -12t0.5 -9.5t1.5 -7.5
t1.5 -5t3 -3.5t3.5 -2t5.5 -1t6 -0.5h8.5h9.5q297 2 812 -13q21 -1 64 -1h64q28 -1 35.5 -8.5t5.5 -35.5q0 -19 -5 -42q-8 -34 -21 -43t-50 -9h-504v4q-234 6 -356 8q-28 1 -81 -0.5t-73 -1.5q-29 0 -37.5 8t-9.5 38q-9 301 5 515q1 22 1 58v58q1 17 -7 24t-25 6
q-31 -1 -92.5 -2t-92.5 -2q-25 -1 -31.5 5t-3.5 28q1 8 5 22.5t5 19.5q6 33 45 33q1 0 154 3q21 0 30.5 9t10.5 32q1 25 3 85t2 85v85q0 79 11 164q8 71 73 144q116 133 286 173q281 66 553 -37q49 -20 114 -57q56 -29 81 -78t39 -123q3 -13 -7 -24q-15 -17 -51.5 -14.5
t-46.5 21.5q-23 45 -62.5 74t-95.5 53q-220 93 -457 55q-138 -21 -262 -142q-46 -45 -48 -109z" />
    <glyph glyph-name="yen" unicode="&#xa5;" horiz-adv-x="2117" 
d="M1741 1611q19 -2 24.5 -13.5t-5.5 -27.5q-5 -7 -25 -27q-67 -74 -153 -155q-75 -69 -201.5 -216t-143.5 -166q-16 -18 -49 -54.5t-50 -55.5q-20 -22 -23.5 -32t-1.5 -45q6 -3 13.5 -4.5t12.5 -1.5t13.5 0.5t12.5 0.5q44 -1 132.5 -3t132.5 -3q30 -1 36 -7t5 -36
q-2 -61 -17.5 -75.5t-77.5 -14.5q-174 0 -233 10q-37 6 -37 -29q0 -7 -1 -10q-2 -22 -3.5 -31.5t-0.5 -23t1 -17.5t6 -10.5t10 -7.5t17 -2.5t22.5 -1t31.5 0.5q23 0 65 0.5t76.5 1t65.5 1.5q18 3 36 -5q19 -12 13 -30q-17 -50 -40 -87q-9 -14 -44 -14q-33 0 -100 1t-101 1
h-38q-17 1 -23.5 -6.5t-6.5 -24.5q0 -19 0.5 -55t1 -65t1.5 -55l3 -69l3 -69q1 -25 -7 -32.5t-33 -5.5q-43 4 -54.5 15.5t-12.5 55.5q0 16 -7 122.5t-4 162.5q1 21 -7 29t-29 7q-81 -2 -244 -2q-37 0 -44.5 10t3.5 47q11 40 20.5 47.5t51.5 8.5q12 1 45 3t49.5 2.5
t42.5 -0.5t48 -5q10 -1 32 1q17 1 24.5 8t6.5 24q-2 42 0 84q1 19 -7.5 26t-27.5 6q-39 -2 -116.5 -4t-116.5 -3q-32 -2 -40 4.5t-9 36.5q-2 28 2 48q2 20 16.5 33t33.5 12q93 5 175 2q32 -2 48 -2q3 0 10.5 -0.5t11.5 -0.5t9 2.5t7 7.5q15 33 -4 61q-13 17 -25 27
q-247 254 -502 555q-11 13 -41 47t-46 53q-13 16 -8.5 29.5t24.5 16.5q42 6 90 4q9 0 15 -4t14.5 -16t9.5 -13q124 -140 242 -275q33 -38 73.5 -81.5t68 -72.5t78 -81t71.5 -74q13 -13 21 -13.5t21 12.5q28 32 81 88.5t74 79.5q156 171 186 203q33 35 100 105.5t100 106.5
q12 13 19 18.5t21.5 10.5t27.5 -2q5 -3 25.5 -2t26.5 0z" />
    <glyph glyph-name="copyright" unicode="&#xa9;" horiz-adv-x="2576" 
d="M2083 1120q56 -162 47 -335q-18 -385 -282 -601q-168 -138 -386 -159q-211 -24 -416 24q-263 63 -414.5 241.5t-182.5 444.5q-34 266 91 505q120 231 389 334q207 80 386 68q184 5 350 -64q301 -118 418 -458zM1972 565q44 126 39 261q5 257 -135 431q-136 176 -351 235
q-274 74 -568 -30q-192 -69 -280 -209q-209 -333 -79 -690q79 -216 266 -317q193 -102 412 -108q100 -4 177.5 5t148.5 45q56 28 110 65q198 131 260 312zM1737 728q34 -6 43 -18.5t0 -45.5q-18 -69 -65 -123.5t-112 -83.5q-105 -47 -282 -51q-126 -10 -256 19
q-81 16 -146.5 66.5t-100.5 124.5q-99 197 -23 380q97 231 346 274q220 37 427 -49q156 -64 199 -213q4 -14 6 -42q2 -15 -13 -21q-26 -11 -52 -1.5t-40 34.5q-63 144 -232 181q-168 37 -289 4q-177 -48 -256 -184q-19 -30 -19 -65q0 -7 -1 -42t0 -42q8 -127 76 -206.5
t191 -104.5q156 -30 316 4q152 30 235 174q7 13 11 18.5t14 10t23 2.5z" />
    <glyph glyph-name="softhyphen" unicode="&#xad;" 
 />
    <glyph glyph-name="periodcentered" unicode="&#xb7;" horiz-adv-x="1906" 
d="M1495 867q2 -49 -6 -59t-56 -19q-15 0 -25.5 -10.5t-11.5 -25.5q-14 -74 -56 -136q-11 -17 -13 -24t2.5 -13t20.5 -17q11 -7 54 -34q15 -9 16 -19q1 -12 -4 -21t-18 -20.5t-15 -13.5q-5 -10 -19 -13q-13 -3 -23 4q-7 5 -34 22.5t-41 27.5q-10 10 -23 10.5t-24 -8.5
q-58 -42 -128 -63q-17 -5 -20.5 -15.5t1.5 -24.5q20 -73 21 -76q5 -30 -3 -41t-39 -16q-9 -1 -25 -5q-29 -10 -34 22q-15 83 -17 99q-2 18 -11 25.5t-27 6.5q-80 -6 -158 17q-22 9 -31 -12q-4 -6 -19.5 -29.5t-23.5 -36.5q-5 -13 -18 -16q-11 -3 -22 6q-23 15 -42 33
q-13 9 -14 24q-2 15 10 27l6 9q23 35 21.5 45t-32.5 36q-62 49 -93 121q-10 25 -22.5 30t-33.5 -3q-32 -8 -41.5 -1.5t-12.5 38.5v16t-1 16q-6 42 33 43q27 1 39 15.5t14 42.5q7 68 68 159q-13 13 -39 28.5t-33 20.5q-20 15 -22.5 26t9.5 32q9 15 25 35q10 15 26 16
q18 2 29 -11q8 -7 28 -22.5t30 -24.5q9 -11 25 -13q16 0 26 10q62 47 132 67q32 9 23 43q-9 32 -23 98q-9 42 32 49q14 3 42 3q22 0 32.5 -9t13.5 -31q8 -51 11 -95q1 -16 8.5 -23t24.5 -7q73 2 142 -18q29 -12 45 16q4 6 18.5 27.5t23.5 33.5q10 17 31 22q19 4 38 -9
q5 -3 24 -20q25 -22 25.5 -32t-20.5 -37l-4 -4q-4 -6 -14.5 -17t-16 -20t-4.5 -19q1 -9 8 -16.5t18.5 -15t16.5 -12.5q51 -48 79 -113q3 -16 18 -24t30 -2q19 4 26 5q24 4 34 -3.5t13 -30.5v-26zM816 1079q-53 -17 -102 -55q38 -36 85.5 -68.5t74.5 -40.5q-3 21 -6.5 44.5
t-8 52t-6.5 44.5q-5 35 -37 23zM570 795q120 9 246 32q-27 23 -87.5 62t-89.5 66q-6 -8 -12 -15.5t-11 -17t-8.5 -16.5t-8 -18.5t-6.5 -17t-6 -19t-5.5 -17.5t-6 -20t-5.5 -19zM712 565q49 62 105 156q-12 -1 -52 -5.5t-56.5 -7t-46 -9t-54.5 -14.5q55 -73 104 -120z
M924 501q28 -3 22 29q-12 66 -33 133q-60 -76 -100 -153q68 -6 111 -9zM968 928q60 70 105 145q-49 19 -95 18q-25 1 -28.5 -3.5t-0.5 -27.5q3 -20 9.5 -63t9.5 -69zM1042 530q58 11 114 48q-9 6 -58.5 48.5t-83.5 57.5q3 -19 9 -50.5t10.5 -56.5t8.5 -47zM1239 666
q40 64 43 107l-182 -21q17 -19 37.5 -34t46 -31.5t37.5 -25.5q5 -4 10 -2q6 2 8 7zM1056 857q26 5 74.5 11.5t85.5 13.5t71 20q-40 60 -90 107q-15 15 -27 1q-65 -86 -114 -153z" />
    <glyph glyph-name="Euro" unicode="&#x20ac;" horiz-adv-x="2467" 
d="M929 1366q-146 -119 -174 -342q-1 -11 2.5 -17t9 -7.5t16.5 -1.5q26 0 93.5 -1.5t103.5 -0.5q202 3 403 18q4 0 17 2t19.5 2.5t15 -2.5t13.5 -10q6 -14 4 -21t-11 -20.5t-11 -20.5t-4.5 -12.5t-7 -9.5t-7.5 -7t-9 -5l-9 -3t-10.5 -1.5t-10 -1t-10.5 -0.5h-10
q-133 -7 -403 -15q-87 -3 -175 0q-20 1 -28 -7t-6 -27q1 -10 2 -41.5t3 -48.5q3 -39 10 -46t45 -9q100 -6 218 1q28 2 84.5 4.5t101 5.5t84.5 9q18 2 26 2q34 0 40 -10.5t-7 -43.5q-28 -71 -109 -74q-338 -12 -424 -12q-29 3 -54 -7q91 -338 388 -438q16 -5 36 -7
q230 -18 384 26q149 42 233 173q81 122 121 259q8 28 18 34.5t38 1.5q24 -4 32 -14.5t6 -37.5q-12 -170 -114 -309q-103 -144 -241 -201q-88 -34 -185 -45q-216 -26 -354 5q-328 74 -444 399q-21 59 -37 133q-2 15 -13 24q-13 10 -27 7q-32 -2 -96 0q-23 0 -42 4
q-26 6 -32 17t1 36q10 40 26.5 52.5t59.5 12.5q12 0 74 -5q30 -3 30 25v40.5v47.5v40q0 25 -27 20q-21 -3 -63 0.5t-64 -0.5q-24 -4 -32 9.5t3 37.5q20 48 38 59t75 12q7 0 22 -3t26.5 -2.5t19.5 6.5q9 6 11.5 16.5t2.5 26t1 22.5q78 390 407 542q151 69 316 52
q225 -21 370 -105q211 -123 277 -372q11 -48 17 -89q3 -23 -5.5 -33t-31.5 -11q-7 0 -21 2.5t-21 2.5q-30 0 -34 31q-14 64 -42 120q-58 142 -194 218q-206 116 -403 86q-193 -26 -341 -147z" />
    <glyph glyph-name="ampersand.alt1" unicode="&#xf000;" horiz-adv-x="2801" 
d="M1115 647q10 -41 29 -84q14 -36 18 -63q1 -7 0.5 -10.5t-3.5 -4.5t-7 -1h-10q-2 0 -7 0.5t-7 0.5q-1 0 -5.5 0.5t-6.5 0.5q-11 0 -17 17q-6 19 -39 100q-7 14 -8 17q-4 14 -15.5 22t-25.5 7q-46 -6 -89 -29q-79 -44 -135 -114q-19 -21 -30 -47q-10 -24 -19 -56
q-1 -5 -7 -33t-11 -44q-7 -24 -9 -50q-2 -14 -4 -21q-6 -43 -31 -75q-5 -6 -20 -33q-9 -16 -14.5 -23t-7.5 -5.5t-1.5 11t4.5 26.5q11 48 27.5 130t20.5 98q5 24 10 50t11 57.5t9 48.5q2 12 18 77q4 18 28 144q1 5 3.5 14.5t2.5 11.5q19 63 29 142q7 37 26 75q10 20 26 30
q2 1 4 3t4 3q24 21 48 35q16 11 29 16q14 4 26 -24q17 -35 35 -91q10 -38 27 -76q4 -9 10 -30t11 -31q17 -38 28 -84q2 -8 4 -11q7 -12 17.5 -37.5t15.5 -34.5q6 -16 8 -25zM988 731q33 10 22 48q-2 7 -5 12q-13 15 -18 35q-8 22 -16 37q-15 30 -19 42q-17 45 -37 79
q-3 7 -9 11q-7 6 -17 0.5t-17 -20.5q-10 -21 -15 -44q-6 -28 -12 -43q-10 -25 -19 -63q-2 -9 -6 -31t-9 -36q-23 -75 -36 -153q0 -3 -0.5 -8.5t-1.5 -8.5q-2 -12 0.5 -13.5t9.5 7.5q4 4 11.5 13t8.5 10q32 42 77 71q8 4 59 35q16 11 32 14q3 1 8.5 3t8.5 3zM2117 1256
q7 -3 23 0.5t22 1.5q15 -6 17 -23q3 -25 7 -43q5 -28 0 -55q-5 -35 -5 -62q-3 -37 -12 -71q-25 -116 -72 -226q-38 -83 -86 -160q-19 -34 -46 -55q-5 -4 -16 -14.5t-16 -14.5q-27 -24 -48 -34q-68 -34 -142 -34q-9 0 -13 2q-11 6 -11 19q-2 24 -3.5 85t-4.5 94q-2 62 2 107
q1 31 -2 71q-3 17 -1 38q1 17 1 101q0 9 -0.5 27.5t-0.5 27.5q-1 35 8 49.5t37 14.5q48 1 96 20q17 6 34 9q22 4 43 20q42 30 75 45q9 4 20 13q15 13 30 20q6 3 23.5 13.5t25.5 11.5q2 0 7.5 1.5t7.5 0.5zM2135 1007q18 78 2 100q-8 18 -27 42q-24 19 -64 -20q-7 -8 -22 -14
q-26 -7 -51 -24q-35 -22 -71 -31q-30 -6 -63 -19l-9 -3q-20 -5 -44 -7q-21 0 -21 -30v-48q0 -90 -1 -135q0 -110 1 -124q1 -8 0 -16q-3 -39 3 -77q2 -10 2 -15q1 -23 5 -28.5t20 -4.5q7 0 10 1q27 6 73 19q16 7 20 10q44 33 80 74q30 31 52 74q5 9 14 25.5t12 22.5
q46 84 66 169q9 44 13 59zM1207 1048q-6 11 -17 8q1 -9 6.5 -59.5t10.5 -76.5q4 -23 7 -49.5t6 -58t5 -48.5q4 -52 9 -77q4 -20 5 -30q2 -33 13.5 -92t13.5 -74q0 -1 0.5 -3t0.5 -3q2 -14 -1 -18.5t-13 -2.5q-5 1 -12 2t-9 1.5t-5 4t-4 10.5t-3 20q-2 16 -8.5 48t-8.5 48
q-5 35 -13 102.5t-12 97.5q-12 94 -15 143q-2 37 -14 106q-3 25 -3 51q-2 23 13 26q35 8 67 2q9 -3 15 -14q16 -23 28 -49q6 -14 14 -28.5t18.5 -32.5t15.5 -27q32 -60 48 -89q6 -11 13 -22.5t15.5 -25t13.5 -21.5q8 -13 20 -38.5t17 -35.5q22 -38 33 -56q4 -7 11 -21
t11 -20q24 -42 36 -62q8 -13 23.5 -37t19.5 -30q16 -24 26 -35q6 -6 9 -5q5 2 2 13q-2 14 -3 41.5t-2 35.5q-2 30 -4.5 86t-3.5 73q-5 89 -8 115q-2 13 -2 37t-1 34q-8 118 -10 138q-5 19 10 34q18 8 31 -8q5 -8 5 -20q1 -8 1 -24t1 -24q3 -80 10 -280q1 -42 5 -118.5
t5 -94.5q1 -19 6 -41q6 -19 0 -38q-5 -9 -10 -10q-30 -5 -61 -3q-20 2 -27 22q-3 6 -17 27q-28 43 -42 72q-3 6 -23 41l-15 27q-31 63 -61 114q-49 81 -52 86q-40 70 -60 104q-39 68 -45 77q-2 3 -15 23t-20 32zM1028 1194q-222 -16 -382 -162q-91 -83 -160 -184
q-28 -41 -38 -52.5t-14 -5.5l-3 8q-1 1 -3 1q-4 2 -4 7q-1 16 7 34q12 29 34 63q130 206 282 298q14 9 54 29q126 60 258 56q34 0 281 -22q109 -11 212 -8q64 3 113 14q35 8 65 18q188 64 335 266q37 51 56.5 71.5t30.5 16.5l3 -2q7 -2 11 -6q6 -8 -4 -36q-17 -41 -40 -75
q-8 -12 -12 -17q0 -1 -1 -2.5t-2 -2.5q-91 -132 -219 -232q-16 -12 -40 -27q-43 -28 -99 -47q-94 -27 -198.5 -30t-184.5 9.5t-173 19.5t-165 0zM2374 738q6 -8 -4 -36q-17 -41 -40 -75q-8 -12 -12 -17q0 -1 -1 -2.5t-2 -2.5q-91 -132 -219 -232q-16 -12 -40 -27
q-43 -28 -99 -47q-94 -27 -198.5 -30t-184.5 9.5t-173 19.5t-165 0q-221 -16 -382 -163q-93 -85 -160 -183q-41 -59 -48 -61q-2 0 -4 2q0 1 -3 8l-1 1q-2 0 -2 1q-4 2 -4 7q-1 16 7 34q11 26 34 62q131 207 282 299q14 9 54 29q121 58 258 55q47 -1 281 -21q109 -11 212 -8
q64 3 113 14q35 8 65 18q188 63 335 265q37 51 56.5 71.5t30.5 16.5l3 -1q7 -2 11 -6z" />
    </font>
</defs>
</svg>
